<svg width="30" height="25" viewBox="0 0 30 25" fill="none" xmlns="http://www.w3.org/2000/svg">
<path d="M13.875 23.75C13.875 24.0484 13.7565 24.3345 13.5455 24.5455C13.3345 24.7565 13.0484 24.875 12.75 24.875C10.3025 24.875 7.90988 24.1492 5.87482 22.7894C3.83977 21.4297 2.25363 19.4969 1.317 17.2357C0.380362 14.9745 0.135296 12.4863 0.612788 10.0858C1.09028 7.68525 2.26888 5.48023 3.99956 3.74956C5.73023 2.01888 7.93525 0.84028 10.3358 0.362788C12.7363 -0.114704 15.2245 0.130362 17.4857 1.067C19.7469 2.00363 21.6797 3.58977 23.0394 5.62482C24.3992 7.65988 25.125 10.0525 25.125 12.5C25.125 12.7984 25.0065 13.0845 24.7955 13.2955C24.5845 13.5065 24.2984 13.625 24 13.625C23.7016 13.625 23.4155 13.5065 23.2045 13.2955C22.9935 13.0845 22.875 12.7984 22.875 12.5C22.875 10.4975 22.2812 8.5399 21.1686 6.87486C20.0561 5.20981 18.4748 3.91206 16.6247 3.14573C14.7746 2.37939 12.7388 2.17888 10.7747 2.56955C8.81066 2.96023 7.00656 3.92454 5.59055 5.34055C4.17454 6.75656 3.21023 8.56066 2.81955 10.5247C2.42888 12.4888 2.62939 14.5246 3.39573 16.3747C4.16206 18.2248 5.45981 19.8061 7.12486 20.9186C8.7899 22.0312 10.7475 22.625 12.75 22.625C13.0484 22.625 13.3345 22.7435 13.5455 22.9545C13.7565 23.1655 13.875 23.4516 13.875 23.75ZM11.625 5.75001V11.375H8.25001C7.95164 11.375 7.66549 11.4935 7.45451 11.7045C7.24353 11.9155 7.12501 12.2016 7.12501 12.5C7.12501 12.7984 7.24353 13.0845 7.45451 13.2955C7.66549 13.5065 7.95164 13.625 8.25001 13.625H12.75C13.0484 13.625 13.3345 13.5065 13.5455 13.2955C13.7565 13.0845 13.875 12.7984 13.875 12.5V5.75001C13.875 5.45164 13.7565 5.16549 13.5455 4.95451C13.3345 4.74353 13.0484 4.62501 12.75 4.62501C12.4516 4.62501 12.1655 4.74353 11.9545 4.95451C11.7435 5.16549 11.625 5.45164 11.625 5.75001ZM20.625 14.75H16.125C15.8266 14.75 15.5405 14.8685 15.3295 15.0795C15.1185 15.2905 15 15.5766 15 15.875C15 16.1734 15.1185 16.4595 15.3295 16.6705C15.5405 16.8815 15.8266 17 16.125 17H19.5V18.125H16.125C15.8266 18.125 15.5405 18.2435 15.3295 18.4545C15.1185 18.6655 15 18.9516 15 19.25V22.625C15 22.9234 15.1185 23.2095 15.3295 23.4205C15.5405 23.6315 15.8266 23.75 16.125 23.75H20.625C20.9234 23.75 21.2095 23.6315 21.4205 23.4205C21.6315 23.2095 21.75 22.9234 21.75 22.625C21.75 22.3266 21.6315 22.0405 21.4205 21.8295C21.2095 21.6185 20.9234 21.5 20.625 21.5H17.25V20.375H20.625C20.9234 20.375 21.2095 20.2565 21.4205 20.0455C21.6315 19.8345 21.75 19.5484 21.75 19.25V15.875C21.75 15.5766 21.6315 15.2905 21.4205 15.0795C21.2095 14.8685 20.9234 14.75 20.625 14.75ZM28.5 14.75C28.2016 14.75 27.9155 14.8685 27.7045 15.0795C27.4935 15.2905 27.375 15.5766 27.375 15.875V18.125H25.125V15.875C25.125 15.5766 25.0065 15.2905 24.7955 15.0795C24.5845 14.8685 24.2984 14.75 24 14.75C23.7016 14.75 23.4155 14.8685 23.2045 15.0795C22.9935 15.2905 22.875 15.5766 22.875 15.875V19.25C22.875 19.5484 22.9935 19.8345 23.2045 20.0455C23.4155 20.2565 23.7016 20.375 24 20.375H27.375V22.625C27.375 22.9234 27.4935 23.2095 27.7045 23.4205C27.9155 23.6315 28.2016 23.75 28.5 23.75C28.7984 23.75 29.0845 23.6315 29.2955 23.4205C29.5065 23.2095 29.625 22.9234 29.625 22.625V15.875C29.625 15.5766 29.5065 15.2905 29.2955 15.0795C29.0845 14.8685 28.7984 14.75 28.5 14.75Z" fill="#26DDFF"/>
</svg>
