<svg width="55" height="65" viewBox="0 0 55 65" fill="none" xmlns="http://www.w3.org/2000/svg">
<path d="M54.4108 59.6105L53.0478 55.6029C50.4883 48.0645 43.5574 42.927 35.6611 42.5898C34.9661 43.1298 34.2335 43.5938 33.4742 43.9995C32.3421 46.9721 28.5386 47.7773 26.3101 45.5009C23.6737 45.268 21.2601 44.2265 19.1522 42.59C11.2559 42.926 4.32683 48.0635 1.76552 55.603L0.404739 59.6105C0.0113505 60.7632 0.20081 62.0335 0.91041 63.023C1.61773 64.0133 2.76226 64.6002 3.97954 64.6002H50.8342C52.0512 64.6002 53.1958 64.0134 53.9033 63.023C54.6126 62.0335 54.802 60.7632 54.4108 59.6105Z" fill="#02D7FF"/>
<path d="M32.6275 39.5388C37.2115 36.3167 40.4177 29.2015 40.4177 22.3225C40.4177 2.77274 14.4062 2.79351 14.4062 22.3225C14.4062 30.683 19.14 39.3796 25.3324 41.0213C25.9295 39.3296 27.5274 38.1062 29.4211 38.1062C30.6945 38.106 31.8306 38.6646 32.6275 39.5388Z" fill="#02D7FF"/>
<path d="M8.69143 30.4846C9.33632 33.0177 12.851 32.3207 12.851 29.9747C12.851 20.5717 13.3003 19.6937 12.0415 18.6731C14.9232 0.915962 39.7467 1.04915 42.768 18.6751C41.5111 19.6989 41.9608 20.5728 41.9608 29.9747C41.9608 30.7102 42.356 31.3273 42.924 31.7101C42.924 39.0251 39.9568 38.5974 31.0345 40.9623C29.655 39.4651 27.1913 40.4399 27.1913 42.4593C27.1913 44.9885 30.8161 45.5803 31.5194 43.0379C38.7228 41.1277 45.0545 40.5253 45.0545 33.3259V31.8484C45.5893 31.5716 45.9679 31.0808 46.1199 30.4846C53.0634 30.3431 53.0655 19.9372 46.1199 19.7957C45.9762 19.2276 45.6227 18.7636 45.1253 18.4806C45.3043 16.3499 44.8654 13.5491 43.6438 10.8453C35.1483 -6.68504 10.0562 0.174069 9.66325 17.1635C9.60912 17.7388 9.6528 18.1467 9.68603 18.4806C9.18866 18.7636 8.83507 19.2276 8.69143 19.7957C5.78256 19.8518 3.4375 22.2187 3.4375 25.1402C3.4375 28.0615 5.78256 30.4283 8.69143 30.4846Z" fill="#02D7FF"/>
</svg>
