<svg width="36" height="37" viewBox="0 0 36 37" fill="none" xmlns="http://www.w3.org/2000/svg">
<path d="M4.5 32.5627H31.5C32.5439 32.5615 33.5448 32.1463 34.2829 31.4082C35.0211 30.67 35.4363 29.6692 35.4375 28.6252C35.4375 28.476 35.3782 28.333 35.2727 28.2275C35.1673 28.122 35.0242 28.0627 34.875 28.0627H33.75V10.0627C33.7491 9.1679 33.3932 8.30998 32.7605 7.67724C32.1278 7.04449 31.2698 6.68863 30.375 6.68773H29.25V6.06055C29.25 5.61299 29.0722 5.18377 28.7557 4.8673C28.4393 4.55084 28.0101 4.37305 27.5625 4.37305H8.4375C7.98995 4.37305 7.56072 4.55084 7.24426 4.8673C6.92779 5.18377 6.75 5.61299 6.75 6.06055V6.68773H5.625C4.73017 6.68863 3.87224 7.04449 3.2395 7.67724C2.60676 8.30998 2.25089 9.1679 2.25 10.0627V28.0627H1.125C0.975816 28.0627 0.832742 28.122 0.727252 28.2275C0.621763 28.333 0.5625 28.476 0.5625 28.6252C0.563691 29.6692 0.978916 30.67 1.71708 31.4082C2.45525 32.1463 3.45608 32.5615 4.5 32.5627ZM30.375 7.81273C30.9717 7.81273 31.544 8.04979 31.966 8.47174C32.3879 8.8937 32.625 9.466 32.625 10.0627V28.0627H31.5V9.50023C31.5 9.35105 31.4407 9.20798 31.3352 9.10249C31.2298 8.997 31.0867 8.93773 30.9375 8.93773H29.25V7.81273H30.375ZM14.625 28.0627H5.625V10.0627H6.75V24.0605C6.75 24.5081 6.92779 24.9373 7.24426 25.2538C7.56072 25.5703 7.98995 25.748 8.4375 25.748H27.5625C28.0101 25.748 28.4393 25.5703 28.7557 25.2538C29.0722 24.9373 29.25 24.5081 29.25 24.0605V10.0627H30.375V28.0627H21.375C21.2258 28.0627 21.0827 28.122 20.9773 28.2275C20.8718 28.333 20.8125 28.476 20.8125 28.6252V29.1877H15.1875V28.6252C15.1875 28.476 15.1282 28.333 15.0227 28.2275C14.9173 28.122 14.7742 28.0627 14.625 28.0627ZM7.875 8.87305H28.125V24.0605C28.125 24.2097 28.0657 24.3528 27.9602 24.4583C27.8548 24.5638 27.7117 24.623 27.5625 24.623H8.4375C8.28832 24.623 8.14524 24.5638 8.03975 24.4583C7.93426 24.3528 7.875 24.2097 7.875 24.0605V8.87305ZM8.4375 5.49805H27.5625C27.7117 5.49805 27.8548 5.55731 27.9602 5.6628C28.0657 5.76829 28.125 5.91136 28.125 6.06055V7.74805H7.875V6.06055C7.875 5.91136 7.93426 5.76829 8.03975 5.6628C8.14524 5.55731 8.28832 5.49805 8.4375 5.49805ZM3.375 10.0627C3.375 9.466 3.61205 8.8937 4.03401 8.47174C4.45597 8.04979 5.02826 7.81273 5.625 7.81273H6.75V8.93773H5.0625C4.91332 8.93773 4.77024 8.997 4.66475 9.10249C4.55926 9.20798 4.5 9.35105 4.5 9.50023V28.0627H3.375V10.0627ZM14.0625 29.1877V29.7502C14.0625 29.8994 14.1218 30.0425 14.2273 30.148C14.3327 30.2535 14.4758 30.3127 14.625 30.3127H21.375C21.5242 30.3127 21.6673 30.2535 21.7727 30.148C21.8782 30.0425 21.9375 29.8994 21.9375 29.7502V29.1877H34.2563C34.1258 29.8226 33.7804 30.3931 33.2783 30.803C32.7762 31.2128 32.1481 31.437 31.5 31.4377H4.5C3.85186 31.437 3.22379 31.2128 2.72169 30.803C2.2196 30.3931 1.87421 29.8226 1.74375 29.1877H14.0625Z" fill="#26DDFF"/>
<path d="M10.6875 18.5C10.6875 18.6492 10.7468 18.7923 10.8523 18.8977C10.9577 19.0032 11.1008 19.0625 11.25 19.0625H13.5C13.6492 19.0625 13.7923 19.0032 13.8977 18.8977C14.0032 18.7923 14.0625 18.6492 14.0625 18.5V17.375H27V16.25H14.0625V15.125C14.0625 14.9758 14.0032 14.8327 13.8977 14.7273C13.7923 14.6218 13.6492 14.5625 13.5 14.5625H11.25C11.1008 14.5625 10.9577 14.6218 10.8523 14.7273C10.7468 14.8327 10.6875 14.9758 10.6875 15.125V16.25H9V17.375H10.6875V18.5ZM11.8125 15.6875H12.9375V17.9375H11.8125V15.6875ZM17.4375 23C17.4375 23.1492 17.4968 23.2923 17.6023 23.3977C17.7077 23.5032 17.8508 23.5625 18 23.5625H20.25C20.3992 23.5625 20.5423 23.5032 20.6477 23.3977C20.7532 23.2923 20.8125 23.1492 20.8125 23V21.875H27V20.75H20.8125V19.625C20.8125 19.4758 20.7532 19.3327 20.6477 19.2273C20.5423 19.1218 20.3992 19.0625 20.25 19.0625H18C17.8508 19.0625 17.7077 19.1218 17.6023 19.2273C17.4968 19.3327 17.4375 19.4758 17.4375 19.625V20.75H9V21.875H17.4375V23ZM18.5625 20.1875H19.6875V22.4375H18.5625V20.1875ZM19.6875 14C19.6875 14.1492 19.7468 14.2923 19.8523 14.3977C19.9577 14.5032 20.1008 14.5625 20.25 14.5625H22.5C22.6492 14.5625 22.7923 14.5032 22.8977 14.3977C23.0032 14.2923 23.0625 14.1492 23.0625 14V12.875H27V11.75H23.0625V10.625C23.0625 10.4758 23.0032 10.3327 22.8977 10.2273C22.7923 10.1218 22.6492 10.0625 22.5 10.0625H20.25C20.1008 10.0625 19.9577 10.1218 19.8523 10.2273C19.7468 10.3327 19.6875 10.4758 19.6875 10.625V11.75H9V12.875H19.6875V14ZM20.8125 11.1875H21.9375V13.4375H20.8125V11.1875Z" fill="#26DDFF"/>
</svg>
