<svg width="36" height="36" viewBox="0 0 36 36" fill="none" xmlns="http://www.w3.org/2000/svg">
<path fill-rule="evenodd" clip-rule="evenodd" d="M15.1919 19.8443C15.2156 20.2767 15.337 20.6829 15.5343 21.0415L14.0626 21.5321V24.75C14.0626 25.0607 14.3145 25.3125 14.6251 25.3125C14.9357 25.3125 15.1876 25.0607 15.1876 24.75V22.3429L16.3407 21.9585C16.8059 22.299 17.3796 22.5 18.0001 22.5C18.6207 22.5 19.1943 22.299 19.6595 21.9585L20.8126 22.3429V24.75C20.8126 25.0607 21.0645 25.3125 21.3751 25.3125C21.6858 25.3125 21.9376 25.0607 21.9376 24.75V21.5321L20.4659 21.0414C20.6632 20.6829 20.7846 20.2767 20.8083 19.8443L22.0184 20.1468L22.511 22.6104C22.572 22.9149 22.8683 23.1124 23.173 23.0516C23.4775 22.9906 23.675 22.6943 23.6142 22.3896L22.9818 19.2282L20.8126 18.6858V18.5625C20.8126 18.3699 20.7933 18.1818 20.7564 18H22.5001V14.625C22.5001 14.3144 22.2482 14.0625 21.9376 14.0625C21.627 14.0625 21.3751 14.3144 21.3751 14.625V16.875H20.2503C20.0223 16.5714 19.7342 16.3154 19.4037 16.1247C19.583 15.8567 19.6876 15.5342 19.6876 15.1875C19.6876 14.2555 18.9321 13.5 18.0001 13.5C17.0682 13.5 16.3126 14.2555 16.3126 15.1875C16.3126 15.5342 16.4172 15.8567 16.5966 16.1247C16.266 16.3154 15.9779 16.5714 15.7499 16.875H14.6251V14.625C14.6251 14.3144 14.3732 14.0625 14.0626 14.0625C13.752 14.0625 13.5001 14.3144 13.5001 14.625V18H15.2439C15.207 18.1818 15.1876 18.3699 15.1876 18.5625V18.6858L13.0184 19.2282L12.386 22.3896C12.3251 22.6943 12.5227 22.9906 12.8272 23.0516C13.1319 23.1124 13.4282 22.9149 13.4892 22.6104L13.9818 20.1468L15.1919 19.8443ZM19.6876 19.6875V19.1378C19.6874 19.1296 19.6874 19.1213 19.6876 19.1131V18.5625C19.6876 17.6305 18.9321 16.875 18.0001 16.875C17.0682 16.875 16.3126 17.6305 16.3126 18.5625V19.113C16.3128 19.1213 16.3128 19.1296 16.3126 19.1378V19.6875C16.3126 20.6195 17.0682 21.375 18.0001 21.375C18.9321 21.375 19.6876 20.6195 19.6876 19.6875ZM18.0001 15.75C18.3107 15.75 18.5626 15.4981 18.5626 15.1875C18.5626 14.8769 18.3107 14.625 18.0001 14.625C17.6895 14.625 17.4376 14.8769 17.4376 15.1875C17.4376 15.4981 17.6895 15.75 18.0001 15.75Z" fill="#26DDFF"/>
<path fill-rule="evenodd" clip-rule="evenodd" d="M25.875 25.875H27C28.2427 25.875 29.25 26.8823 29.25 28.125V31.5C29.25 32.7427 28.2427 33.75 27 33.75H9C7.75736 33.75 6.75 32.7427 6.75 31.5V28.125C6.75 26.8823 7.75736 25.875 9 25.875H10.125V19.125H5.625V19.6875C5.625 19.9981 5.37316 20.25 5.0625 20.25H2.8125C2.50184 20.25 2.25 19.9981 2.25 19.6875V17.4375C2.25 17.1269 2.50184 16.875 2.8125 16.875H5.0625C5.37316 16.875 5.625 17.1269 5.625 17.4375V18H10.125V14.625C10.125 14.0282 10.2412 13.4586 10.4521 12.9375H6.75V5.625H6.1875C5.87684 5.625 5.625 5.37316 5.625 5.0625V2.8125C5.625 2.50184 5.87684 2.25 6.1875 2.25H8.4375C8.74816 2.25 9 2.50184 9 2.8125V5.0625C9 5.37316 8.74816 5.625 8.4375 5.625H7.875V11.8125H11.112C11.9367 10.7837 13.2039 10.125 14.625 10.125H17.4375V5.625H16.875C16.5644 5.625 16.3125 5.37316 16.3125 5.0625V2.8125C16.3125 2.50184 16.5644 2.25 16.875 2.25H19.125C19.4356 2.25 19.6875 2.50184 19.6875 2.8125V5.0625C19.6875 5.37316 19.4356 5.625 19.125 5.625H18.5625V10.125H21.375C22.7961 10.125 24.0633 10.7837 24.888 11.8125H28.125V5.625H27.5625C27.2519 5.625 27 5.37316 27 5.0625V2.8125C27 2.50184 27.2519 2.25 27.5625 2.25H29.8125C30.1231 2.25 30.375 2.50184 30.375 2.8125V5.0625C30.375 5.37316 30.1231 5.625 29.8125 5.625H29.25V12.9375H25.5478C25.7588 13.4586 25.875 14.0282 25.875 14.625V18H30.375V17.4375C30.375 17.1269 30.6269 16.875 30.9375 16.875H33.1875C33.4981 16.875 33.75 17.1269 33.75 17.4375V19.6875C33.75 19.9981 33.4981 20.25 33.1875 20.25H30.9375C30.6269 20.25 30.375 19.9981 30.375 19.6875V19.125H25.875V25.875ZM27 27C27.6213 27 28.125 27.5037 28.125 28.125V31.5C28.125 32.1213 27.6213 32.625 27 32.625H9C8.37868 32.625 7.875 32.1213 7.875 31.5V28.125C7.875 27.5037 8.37868 27 9 27H27ZM4.5 19.125V18H3.375V19.125H4.5ZM24.75 25.875H11.25V14.625C11.25 12.761 12.761 11.25 14.625 11.25H21.375C23.239 11.25 24.75 12.761 24.75 14.625V25.875ZM31.5 18V19.125H32.625V18H31.5ZM17.4375 3.375V4.5H18.5625V3.375H17.4375ZM28.125 4.5V3.375H29.25V4.5H28.125ZM6.75 3.375V4.5H7.875V3.375H6.75Z" fill="#26DDFF"/>
</svg>
