<svg width="20" height="21" viewBox="0 0 20 21" fill="none" xmlns="http://www.w3.org/2000/svg">
<path d="M14.5 10.329C14.5 11.5225 14.0259 12.6671 13.182 13.511C12.3381 14.3549 11.1935 14.829 10 14.829C8.80653 14.829 7.66194 14.3549 6.81802 13.511C5.97411 12.6671 5.5 11.5225 5.5 10.329C5.5 9.13556 5.97411 7.99097 6.81802 7.14706C7.66194 6.30314 8.80653 5.82904 10 5.82904C11.1935 5.82904 12.3381 6.30314 13.182 7.14706C14.0259 7.99097 14.5 9.13556 14.5 10.329ZM14.5 10.329C14.5 11.986 15.507 13.329 16.75 13.329C17.993 13.329 19 11.986 19 10.329C19 8.24684 18.278 6.22907 16.957 4.61952C15.6361 3.00997 13.7979 1.90823 11.7557 1.50203C9.71355 1.09583 7.5937 1.4103 5.75737 2.39186C3.92104 3.37341 2.48187 4.96132 1.68506 6.88503C0.888253 8.80873 0.783114 10.9492 1.38756 12.9417C1.992 14.9343 3.26863 16.6556 4.99992 17.8124C6.73121 18.9692 8.81004 19.4899 10.8822 19.2858C12.9544 19.0817 14.8917 18.1654 16.364 16.693M14.5 10.329V6.57904" stroke="url(#paint0_linear_2461_1447)" stroke-width="1.5" stroke-linecap="round" stroke-linejoin="round"/>
<defs>
<linearGradient id="paint0_linear_2461_1447" x1="20.61" y1="-2.00401" x2="-0.711117" y2="13.2337" gradientUnits="userSpaceOnUse">
<stop stop-color="#4869E4"/>
<stop offset="1" stop-color="#5C96FE"/>
</linearGradient>
</defs>
</svg>
