<svg width="129" height="145" viewBox="0 0 129 145" fill="none" xmlns="http://www.w3.org/2000/svg">
<g clip-path="url(#clip0_3488_90)">
<g opacity="0.2">
<path d="M56.4907 138.226L125.765 98.1788C128.469 96.6277 128.215 93.7934 124.99 91.9744L85.6424 69.2435C82.5441 67.4385 77.6433 67.1706 74.9393 68.8627L5.66528 108.91C2.96135 110.461 3.21484 113.295 6.43984 115.114L45.7876 137.845C48.8859 139.65 53.7867 139.918 56.4907 138.226Z" fill="black"/>
</g>
<path d="M56.4913 138.099L125.765 98.0515C126.92 97.4028 127.568 96.3735 127.568 95.471V91.988C127.568 90.8318 126.667 92.8905 124.991 91.988L85.643 69.2571C82.5448 67.4522 77.6439 67.1843 74.94 68.8764L5.6659 108.909C4.76459 109.431 4.11677 107.231 3.86328 107.88V111.49C3.86328 112.787 4.76459 114.07 6.44046 114.973L45.7882 137.704C48.8865 139.509 53.7874 139.777 56.4913 138.084V138.099Z" fill="url(#paint0_linear_3488_90)"/>
<path d="M56.4907 134.742L125.765 94.6954C128.469 93.1443 128.215 90.31 124.99 88.491L85.6424 65.7601C82.5441 63.9551 77.6433 63.6872 74.9393 65.3793L5.66528 105.426C2.96135 106.977 3.21484 109.812 6.43984 111.631L45.7876 134.362C48.8859 136.167 53.7867 136.435 56.4907 134.742Z" fill="url(#paint1_linear_3488_90)"/>
<path d="M51.8434 134.488C53.3925 134.488 54.8149 134.235 55.843 133.586L125.117 93.5388C125.497 93.285 126.272 92.7633 126.272 92.1146C126.272 91.466 125.497 90.5635 124.342 89.788L84.9947 67.0571C83.5723 66.1546 81.643 65.7598 79.6995 65.7598C77.7561 65.7598 76.728 66.0136 75.6999 66.6622L6.43996 106.709C6.05972 106.963 5.28516 107.485 5.28516 108.133C5.28516 108.782 6.05972 109.685 7.21452 110.46L46.5623 133.191C47.9847 134.093 49.914 134.488 51.8575 134.488H51.8434Z" fill="url(#paint2_linear_3488_90)"/>
<path d="M6.44049 110.983L45.7883 133.714C48.8865 135.519 53.7874 135.786 56.4913 134.094L125.765 94.0473C126.92 93.3987 127.441 92.4962 127.568 91.5938C127.695 92.75 127.047 93.7935 125.765 94.5691L56.4913 134.616C53.7874 136.167 49.0133 136.04 45.7883 134.235L6.44049 111.49C4.63787 110.461 3.73657 109.037 3.86331 107.739C3.99006 108.896 4.89137 109.939 6.44049 110.969V110.983Z" fill="white"/>
<path style="mix-blend-mode:color-dodge" d="M70.8125 74.5449C69.0099 79.8469 74.8121 86.686 83.8393 89.7882C92.8664 92.8904 101.64 91.0855 103.443 85.7835C105.245 80.4815 99.4432 73.6425 90.416 70.5402C81.3888 67.438 72.6152 69.243 70.8125 74.5449Z" fill="url(#paint3_radial_3488_90)"/>
<path style="mix-blend-mode:color-dodge" d="M44.1096 120.021L100.357 87.4753C101.512 86.8267 101.385 85.6704 100.103 84.8948L78.9508 72.6269C77.6552 71.8514 75.7258 71.8514 74.571 72.5L18.3237 105.045C17.1689 105.694 17.2956 106.85 18.5772 107.626L39.7298 119.894C41.0254 120.669 42.9548 120.669 44.1096 120.021Z" fill="url(#paint4_radial_3488_90)"/>
<path style="mix-blend-mode:screen" opacity="0.3" d="M77.7684 74.164C77.2473 73.9102 76.6136 73.9102 76.0925 74.164L72.4873 76.2369C71.9662 76.4907 71.9662 76.8855 72.4873 77.1393C73.0083 77.3931 73.6421 77.3931 74.1631 77.1393L77.7825 75.0665C78.3035 74.8127 78.3035 74.4178 77.7825 74.164H77.7684ZM71.586 77.7739C71.0649 77.5201 70.4311 77.5201 69.9101 77.7739L68.2342 78.8032C67.7131 79.0571 67.7131 79.4519 68.2342 79.7057C68.7553 79.9595 69.389 79.9595 69.9101 79.7057L71.586 78.6763C72.107 78.4225 72.107 78.0277 71.586 77.7739ZM67.3188 80.2275C66.7977 79.9736 66.1499 79.9736 65.6429 80.2275L63.9671 81.2568C63.446 81.5107 63.446 81.9055 63.9671 82.1593C64.4881 82.4131 65.1219 82.4131 65.6429 82.1593L67.3188 81.1299C67.8399 80.8761 67.8399 80.4813 67.3188 80.2275ZM63.0658 82.681C62.5447 82.4272 61.8969 82.4272 61.3899 82.681L59.714 83.7104C59.193 83.9642 59.193 84.3591 59.714 84.6129C60.2351 84.8667 60.8829 84.8667 61.3899 84.6129L63.0658 83.5835C63.5868 83.3297 63.5868 82.9349 63.0658 82.681ZM58.686 85.1487C58.1649 84.8949 57.5312 84.8949 57.0101 85.1487L55.3342 86.1781C54.8132 86.4319 54.8132 86.8267 55.3342 87.0806C55.8553 87.3344 56.489 87.3344 57.0101 87.0806L58.686 86.0512C59.207 85.7974 59.207 85.4025 58.686 85.1487ZM54.4188 87.6023C53.8978 87.3485 53.264 87.3485 52.743 87.6023L51.0671 88.6317C50.546 88.8855 50.546 89.2803 51.0671 89.5342C51.5882 89.788 52.2219 89.788 52.743 89.5342L54.4188 88.5048C54.9399 88.251 54.9399 87.8561 54.4188 87.6023ZM50.1658 90.0559C49.6447 89.8021 49.011 89.8021 48.4899 90.0559L46.814 91.0853C46.293 91.3391 46.293 91.7339 46.814 91.9877C47.3351 92.2416 47.9688 92.2416 48.4899 91.9877L50.1658 90.9584C50.6868 90.7045 50.6868 90.3097 50.1658 90.0559ZM45.9127 92.6364C45.3917 92.3826 44.7579 92.3826 44.2369 92.6364L42.561 93.6658C42.0399 93.9196 42.0399 94.3144 42.561 94.5682C43.0821 94.8221 43.7158 94.8221 44.2369 94.5682L45.9127 93.5389C46.4338 93.285 46.4338 92.8902 45.9127 92.6364ZM41.6597 95.09C41.1386 94.8361 40.5049 94.8361 39.9838 95.09L38.3079 96.1193C37.7869 96.3732 37.7869 96.768 38.3079 97.0218C38.829 97.2756 39.4627 97.2756 39.9838 97.0218L41.6597 95.9924C42.1807 95.7386 42.1807 95.3438 41.6597 95.09ZM37.3925 97.5435C36.8715 97.2897 36.2377 97.2897 35.7167 97.5435L34.0408 98.5729C33.5197 98.8267 33.5197 99.2216 34.0408 99.4754C34.5619 99.7292 35.1956 99.7292 35.7167 99.4754L37.3925 98.446C37.9136 98.1922 37.9136 97.7974 37.3925 97.5435ZM33.1395 99.9971C32.6184 99.7433 31.9847 99.7433 31.4636 99.9971L29.7877 101.027C29.2667 101.28 29.2667 101.675 29.7877 101.929C30.3088 102.183 30.9425 102.183 31.4636 101.929L33.1395 100.9C33.6606 100.646 33.6606 100.251 33.1395 99.9971ZM28.8864 102.451C28.3654 102.197 27.7316 102.197 27.2106 102.451L25.5347 103.48C25.0136 103.734 25.0136 104.129 25.5347 104.383C26.0558 104.636 26.6895 104.636 27.2106 104.383L28.8864 103.353C29.4075 103.099 29.4075 102.705 28.8864 102.451ZM24.4925 105.031C23.9715 104.777 23.3377 104.777 22.8167 105.031L21.1408 106.061C20.6197 106.314 20.6197 106.709 21.1408 106.963C21.6619 107.217 22.2956 107.217 22.8167 106.963L24.4925 105.934C25.0136 105.68 25.0136 105.285 24.4925 105.031ZM81.5144 76.3638L80.0921 75.4613C79.571 75.2075 78.6697 75.2075 78.1627 75.4613L76.7403 76.3638C76.2192 76.6176 76.2192 77.1393 76.7403 77.3931L78.1627 78.2956C78.6838 78.5494 79.5851 78.5494 80.0921 78.2956L81.5144 77.3931C82.0355 77.1393 82.0355 76.6176 81.5144 76.3638ZM75.839 80.8761L77.2614 79.9736C77.7825 79.7198 77.7825 79.1981 77.2614 78.9443L75.839 78.0418C75.3179 77.788 74.4166 77.788 73.9096 78.0418L72.4873 78.9443C71.9662 79.1981 71.9662 79.7198 72.4873 79.9736L73.9096 80.8761C74.4307 81.1299 75.332 81.1299 75.839 80.8761ZM72.9943 81.3978L71.5719 80.4954C71.0508 80.2416 70.1495 80.2416 69.6425 80.4954L68.2201 81.3978C67.6991 81.6517 67.6991 82.1734 68.2201 82.4272L69.6425 83.3297C70.1636 83.5835 71.0649 83.5835 71.5719 83.3297L72.9943 82.4272C73.5153 82.1734 73.5153 81.6517 72.9943 81.3978ZM68.7412 83.8514L67.3188 82.949C66.7977 82.6951 65.8964 82.6951 65.3895 82.949L63.9671 83.8514C63.446 84.1052 63.446 84.627 63.9671 84.8808L65.3895 85.7833C65.9105 86.0371 66.8118 86.0371 67.3188 85.7833L68.7412 84.8808C69.2623 84.627 69.2623 84.1052 68.7412 83.8514ZM59.5873 87.3344L61.0097 88.2369C61.5307 88.4907 62.432 88.4907 62.939 88.2369L64.3614 87.3344C64.8825 87.0806 64.8825 86.5588 64.3614 86.305L62.939 85.4025C62.418 85.1487 61.5166 85.1487 61.0097 85.4025L59.5873 86.305C59.0662 86.5588 59.0662 87.0806 59.5873 87.3344ZM55.3201 89.788L56.7425 90.6904C57.2636 90.9443 58.1649 90.9443 58.6719 90.6904L60.0943 89.788C60.6153 89.5342 60.6153 89.0124 60.0943 88.7586L58.6719 87.8561C58.1508 87.6023 57.2495 87.6023 56.7425 87.8561L55.3201 88.7586C54.7991 89.0124 54.7991 89.5342 55.3201 89.788ZM51.0671 92.3685L52.4895 93.2709C53.0105 93.5247 53.9118 93.5247 54.4188 93.2709L55.8412 92.3685C56.3623 92.1146 56.3623 91.5929 55.8412 91.3391L54.4188 90.4366C53.8978 90.1828 52.9964 90.1828 52.4895 90.4366L51.0671 91.3391C50.546 91.5929 50.546 92.1146 51.0671 92.3685ZM46.814 94.8361L48.2364 95.7386C48.7575 95.9924 49.6588 95.9924 50.1658 95.7386L51.5882 94.8361C52.1092 94.5823 52.1092 94.0606 51.5882 93.8068L50.1658 92.9043C49.6447 92.6505 48.7434 92.6505 48.2364 92.9043L46.814 93.8068C46.293 94.0606 46.293 94.5823 46.814 94.8361ZM42.561 97.2897L43.9834 98.1922C44.5044 98.446 45.4057 98.446 45.9127 98.1922L47.3351 97.2897C47.8562 97.0359 47.8562 96.5142 47.3351 96.2604L45.9127 95.3579C45.3917 95.1041 44.4903 95.1041 43.9834 95.3579L42.561 96.2604C42.0399 96.5142 42.0399 97.0359 42.561 97.2897ZM38.2938 99.7433L39.7162 100.646C40.2373 100.9 41.1386 100.9 41.6456 100.646L43.068 99.7433C43.589 99.4895 43.589 98.9678 43.068 98.7139L41.6456 97.8115C41.1245 97.5577 40.2232 97.5577 39.7162 97.8115L38.2938 98.7139C37.7728 98.9678 37.7728 99.4895 38.2938 99.7433ZM38.8149 101.153L37.3925 100.251C36.8715 99.9971 35.9702 99.9971 35.4632 100.251L34.0408 101.153C33.5197 101.407 33.5197 101.929 34.0408 102.183L35.4632 103.085C35.9842 103.339 36.8855 103.339 37.3925 103.085L38.8149 102.183C39.336 101.929 39.336 101.407 38.8149 101.153ZM29.7877 104.65L31.2101 105.553C31.7312 105.807 32.6325 105.807 33.1395 105.553L34.5619 104.65C35.0829 104.397 35.0829 103.875 34.5619 103.621L33.1395 102.719C32.6184 102.465 31.7171 102.465 31.2101 102.719L29.7877 103.621C29.2667 103.875 29.2667 104.397 29.7877 104.65ZM23.4645 108.26L24.8869 109.163C25.4079 109.417 26.3092 109.417 26.8162 109.163L30.168 107.231C30.689 106.977 30.689 106.455 30.168 106.202L28.7456 105.299C28.2245 105.045 27.3232 105.045 26.8162 105.299L23.4645 107.231C22.9434 107.485 22.9434 108.007 23.4645 108.26ZM85.514 78.6904L84.0916 77.788C83.5706 77.5342 82.6692 77.5342 82.1623 77.788L78.8105 79.7198C78.2894 79.9736 78.2894 80.4954 78.8105 80.7492L80.2329 81.6517C80.754 81.9055 81.6553 81.9055 82.1623 81.6517L85.514 79.7198C86.0351 79.466 86.0351 78.9443 85.514 78.6904ZM79.3175 82.3003L77.8951 81.3978C77.3741 81.144 76.4727 81.144 75.9658 81.3978L74.5434 82.3003C74.0223 82.5541 74.0223 83.0759 74.5434 83.3297L75.9658 84.2322C76.4868 84.486 77.3881 84.486 77.8951 84.2322L79.3175 83.3297C79.8386 83.0759 79.8386 82.5541 79.3175 82.3003ZM75.0644 85.7833C75.5855 85.5295 75.5855 85.0077 75.0644 84.7539L73.6421 83.8514C73.121 83.5976 72.2197 83.5976 71.7127 83.8514L70.2903 84.7539C69.7693 85.0077 69.7693 85.5295 70.2903 85.7833L71.7127 86.6857C72.2338 86.9396 73.1351 86.9396 73.6421 86.6857L75.0644 85.7833ZM70.8114 88.2369C71.3325 87.983 71.3325 87.4613 70.8114 87.2075L69.389 86.305C68.8679 86.0512 67.9666 86.0512 67.4596 86.305L66.0373 87.2075C65.5162 87.4613 65.5162 87.983 66.0373 88.2369L67.4596 89.1393C67.9807 89.3931 68.882 89.3931 69.389 89.1393L70.8114 88.2369ZM63.1925 88.8855L61.7701 89.788C61.2491 90.0418 61.2491 90.5635 61.7701 90.8173L63.1925 91.7198C63.7136 91.9736 64.6149 91.9736 65.1219 91.7198L66.5443 90.8173C67.0653 90.5635 67.0653 90.0418 66.5443 89.788L65.1219 88.8855C64.6008 88.6317 63.6995 88.6317 63.1925 88.8855ZM59.0662 91.2122L57.3903 92.1146C56.8693 92.3685 56.8693 92.8902 57.3903 93.144L59.0662 94.0465C59.5873 94.3003 60.3618 94.3003 60.7421 94.0465L62.4179 93.144C62.939 92.8902 62.939 92.3685 62.4179 92.1146L60.7421 91.2122C60.221 90.9584 59.4464 90.9584 59.0662 91.2122ZM54.6864 93.6658L53.0105 94.5682C52.4895 94.8221 52.4895 95.3438 53.0105 95.5976L54.6864 96.5001C55.2075 96.7539 55.982 96.7539 56.3623 96.5001L58.0382 95.5976C58.5592 95.3438 58.5592 94.8221 58.0382 94.5682L56.3623 93.6658C55.8412 93.4119 55.0666 93.4119 54.6864 93.6658ZM50.4193 96.2463L48.7434 97.1487C48.2223 97.4025 48.2223 97.9243 48.7434 98.1781L50.4193 99.0806C50.9403 99.3344 51.7149 99.3344 52.0951 99.0806L53.771 98.1781C54.2921 97.9243 54.2921 97.4025 53.771 97.1487L52.0951 96.2463C51.5741 95.9924 50.7995 95.9924 50.4193 96.2463ZM46.1662 98.6998L44.4903 99.6023C43.9693 99.8561 43.9693 100.378 44.4903 100.632L46.1662 101.534C46.6873 101.788 47.4618 101.788 47.8421 101.534L49.518 100.632C50.039 100.378 50.039 99.8561 49.518 99.6023L47.8421 98.6998C47.321 98.446 46.5465 98.446 46.1662 98.6998ZM41.9132 101.153L40.2373 102.056C39.7162 102.31 39.7162 102.831 40.2373 103.085L41.9132 103.988C42.4342 104.242 43.2088 104.242 43.589 103.988L45.2649 103.085C45.786 102.831 45.786 102.31 45.2649 102.056L43.589 101.153C43.068 100.9 42.2934 100.9 41.9132 101.153ZM39.336 106.455L41.0119 105.553C41.5329 105.299 41.5329 104.777 41.0119 104.524L39.336 103.621C38.8149 103.367 38.0404 103.367 37.6601 103.621L35.9842 104.524C35.4632 104.777 35.4632 105.299 35.9842 105.553L37.6601 106.455C38.1812 106.709 38.9557 106.709 39.336 106.455ZM35.0688 108.909L36.7447 108.007C37.2658 107.753 37.2658 107.231 36.7447 106.977L35.0688 106.075C34.5478 105.821 33.7732 105.821 33.393 106.075L31.7171 106.977C31.196 107.231 31.196 107.753 31.7171 108.007L33.393 108.909C33.914 109.163 34.6886 109.163 35.0688 108.909ZM27.3373 110.587L29.0132 111.49C29.5342 111.743 30.3088 111.743 30.689 111.49L32.3649 110.587C32.886 110.333 32.886 109.811 32.3649 109.558L30.689 108.655C30.168 108.401 29.3934 108.401 29.0132 108.655L27.3373 109.558C26.8162 109.811 26.8162 110.333 27.3373 110.587ZM89.6403 81.003L87.9644 80.1005C87.4434 79.8467 86.6688 79.8467 86.2886 80.1005L80.8666 83.2028C80.3456 83.4566 80.3456 83.9783 80.8666 84.2322L82.5425 85.1346C83.0636 85.3884 83.8381 85.3884 84.2184 85.1346L89.6403 82.0324C90.1614 81.7786 90.1614 81.2568 89.6403 81.003ZM81.6412 85.6564L79.9653 84.7539C79.4442 84.5001 78.6697 84.5001 78.2894 84.7539L76.6136 85.6564C76.0925 85.9102 76.0925 86.4319 76.6136 86.6857L78.2894 87.5882C78.8105 87.842 79.5851 87.842 79.9653 87.5882L81.6412 86.6857C82.1623 86.4319 82.1623 85.9102 81.6412 85.6564ZM77.3881 88.1099L75.7123 87.2075C75.1912 86.9537 74.4166 86.9537 74.0364 87.2075L72.3605 88.1099C71.8394 88.3638 71.8394 88.8855 72.3605 89.1393L74.0364 90.0418C74.5575 90.2956 75.332 90.2956 75.7123 90.0418L77.3881 89.1393C77.9092 88.8855 77.9092 88.3638 77.3881 88.1099ZM72.9943 90.5635L71.3184 89.6611C70.7973 89.4072 70.0227 89.4072 69.6425 89.6611L67.9666 90.5635C67.4456 90.8173 67.4456 91.3391 67.9666 91.5929L69.6425 92.4954C70.1636 92.7492 70.9381 92.7492 71.3184 92.4954L72.9943 91.5929C73.5153 91.3391 73.5153 90.8173 72.9943 90.5635ZM67.0653 94.9631L68.7412 94.0606C69.2623 93.8068 69.2623 93.285 68.7412 93.0312L67.0653 92.1287C66.5443 91.8749 65.7697 91.8749 65.3895 92.1287L63.7136 93.0312C63.1925 93.285 63.1925 93.8068 63.7136 94.0606L65.3895 94.9631C65.9105 95.2169 66.6851 95.2169 67.0653 94.9631ZM62.8123 97.4166L64.4881 96.5142C65.0092 96.2604 65.0092 95.7386 64.4881 95.4848L62.8123 94.5823C62.2912 94.3285 61.5166 94.3285 61.1364 94.5823L59.4605 95.4848C58.9395 95.7386 58.9395 96.2604 59.4605 96.5142L61.1364 97.4166C61.6575 97.6705 62.432 97.6705 62.8123 97.4166ZM58.5451 99.9971L60.221 99.0947C60.7421 98.8409 60.7421 98.3191 60.221 98.0653L58.5451 97.1628C58.0241 96.909 57.2495 96.909 56.8693 97.1628L55.1934 98.0653C54.6723 98.3191 54.6723 98.8409 55.1934 99.0947L56.8693 99.9971C57.3903 100.251 58.1649 100.251 58.5451 99.9971ZM54.2921 102.451L55.968 101.548C56.489 101.294 56.489 100.773 55.968 100.519L54.2921 99.6164C53.771 99.3626 52.9965 99.3626 52.6162 99.6164L50.9403 100.519C50.4193 100.773 50.4193 101.294 50.9403 101.548L52.6162 102.451C53.1373 102.705 53.9118 102.705 54.2921 102.451ZM50.039 104.904L51.7149 104.002C52.236 103.748 52.236 103.226 51.7149 102.972L50.039 102.07C49.518 101.816 48.7434 101.816 48.3632 102.07L46.6873 102.972C46.1662 103.226 46.1662 103.748 46.6873 104.002L48.3632 104.904C48.8842 105.158 49.6588 105.158 50.039 104.904ZM45.786 107.358L47.4618 106.455C47.9829 106.202 47.9829 105.68 47.4618 105.426L45.786 104.524C45.2649 104.27 44.4903 104.27 44.1101 104.524L42.4342 105.426C41.9132 105.68 41.9132 106.202 42.4342 106.455L44.1101 107.358C44.6312 107.612 45.4057 107.612 45.786 107.358ZM43.1947 107.88L41.5188 106.977C40.9978 106.723 40.2232 106.723 39.843 106.977L38.1671 107.88C37.646 108.133 37.646 108.655 38.1671 108.909L39.843 109.811C40.364 110.065 41.1386 110.065 41.5188 109.811L43.1947 108.909C43.7158 108.655 43.7158 108.133 43.1947 107.88ZM31.3369 112.787L33.0127 113.689C33.5338 113.943 34.3084 113.943 34.6886 113.689L38.9417 111.236C39.4627 110.982 39.4627 110.46 38.9417 110.206L37.2658 109.304C36.7447 109.05 35.9702 109.05 35.5899 109.304L31.3369 111.757C30.8158 112.011 30.8158 112.533 31.3369 112.787ZM93.5131 83.3297L92.0907 82.5541C91.5697 82.3003 90.6684 82.3003 90.1614 82.5541L82.5566 86.9396C82.0355 87.1934 82.0355 87.7151 82.5566 88.0958L83.979 88.8714C84.5 89.1252 85.4013 89.1252 85.9083 88.8714L93.5131 84.486C94.0342 84.2322 94.0342 83.7104 93.5131 83.3297ZM83.0636 89.4072L81.6412 88.6317C81.1201 88.3779 80.2188 88.3779 79.7118 88.6317L78.2894 89.4072C77.7684 89.6611 77.7684 90.1828 78.2894 90.5635L79.7118 91.3391C80.2329 91.5929 81.1342 91.5929 81.6412 91.3391L83.0636 90.5635C83.5846 90.3097 83.5846 89.788 83.0636 89.4072ZM78.8105 91.8608L77.3881 91.0853C76.8671 90.8315 75.9658 90.8315 75.4588 91.0853L74.0364 91.8608C73.5153 92.1146 73.5153 92.6364 74.0364 93.0171L75.4588 93.7927C75.9798 94.0465 76.8811 94.0465 77.3881 93.7927L78.8105 93.0171C79.3316 92.7633 79.3316 92.2416 78.8105 91.8608ZM74.5434 94.3144L73.121 93.5389C72.5999 93.285 71.6986 93.285 71.1916 93.5389L69.7693 94.3144C69.2482 94.5682 69.2482 95.09 69.7693 95.4707L71.1916 96.2463C71.7127 96.5001 72.614 96.5001 73.121 96.2463L74.5434 95.4707C75.0644 95.2169 75.0644 94.6951 74.5434 94.3144ZM70.2903 96.768L68.8679 95.9924C68.3469 95.7386 67.4456 95.7386 66.9386 95.9924L65.5162 96.768C64.9951 97.0218 64.9951 97.5436 65.5162 97.9243L66.9386 98.6998C67.4597 98.9537 68.361 98.9537 68.8679 98.6998L70.2903 97.9243C70.8114 97.6705 70.8114 97.1487 70.2903 96.768ZM66.0373 99.2216L64.6149 98.446C64.0938 98.1922 63.1925 98.1922 62.6855 98.446L61.2631 99.2216C60.7421 99.4754 60.7421 99.9971 61.2631 100.378L62.6855 101.153C63.2066 101.407 64.1079 101.407 64.6149 101.153L66.0373 100.378C66.5583 100.124 66.5583 99.6023 66.0373 99.2216ZM61.7842 101.675L60.3618 100.9C59.8408 100.646 58.9395 100.646 58.4325 100.9L57.0101 101.675C56.489 101.929 56.489 102.451 57.0101 102.831L58.4325 103.607C58.9535 103.861 59.8549 103.861 60.3618 103.607L61.7842 102.831C62.3053 102.578 62.3053 102.056 61.7842 101.675ZM57.3903 104.129L55.968 103.353C55.4469 103.099 54.5456 103.099 54.0386 103.353L52.6162 104.129C52.0951 104.383 52.0951 104.904 52.6162 105.285L54.0386 106.061C54.5597 106.314 55.461 106.314 55.968 106.061L57.3903 105.285C57.9114 105.031 57.9114 104.509 57.3903 104.129ZM53.1373 106.582L51.7149 105.807C51.1938 105.553 50.2925 105.553 49.7855 105.807L48.3632 106.582C47.8421 106.836 47.8421 107.358 48.3632 107.739L49.7855 108.514C50.3066 108.768 51.2079 108.768 51.7149 108.514L53.1373 107.739C53.6583 107.485 53.6583 106.963 53.1373 106.582ZM48.8701 109.163L47.4478 108.387C46.9267 108.133 46.0254 108.133 45.5184 108.387L44.096 109.163C43.575 109.417 43.575 109.938 44.096 110.319L45.5184 111.095C46.0395 111.348 46.9408 111.348 47.4478 111.095L48.8701 110.319C49.3912 110.065 49.3912 109.544 48.8701 109.163ZM44.6171 111.616L43.1947 110.841C42.6736 110.587 41.7723 110.587 41.2653 110.841L39.843 111.616C39.3219 111.87 39.3219 112.392 39.843 112.773L41.2653 113.548C41.7864 113.802 42.6877 113.802 43.1947 113.548L44.6171 112.773C45.1382 112.519 45.1382 111.997 44.6171 111.616ZM35.4632 115.24L36.8855 116.016C37.4066 116.27 38.3079 116.27 38.8149 116.016L40.2373 115.24C40.7584 114.987 40.7584 114.465 40.2373 114.084L38.8149 113.309C38.2938 113.055 37.3925 113.055 36.8855 113.309L35.4632 114.084C34.9421 114.338 34.9421 114.86 35.4632 115.24ZM90.8092 87.8561L92.2316 88.6317C92.7526 88.8855 93.654 88.8855 94.1609 88.6317L97.5127 86.6998C98.0337 86.446 98.0337 85.9243 97.5127 85.5436L96.0903 84.768C95.5692 84.5142 94.6679 84.5142 94.1609 84.768L90.8092 86.6998C90.2881 86.9537 90.2881 87.4754 90.8092 87.8561ZM86.5421 90.3097L87.9644 91.0853C88.4855 91.3391 89.3868 91.3391 89.8938 91.0853L91.3162 90.3097C91.8372 90.0559 91.8372 89.5342 91.3162 89.1534L89.8938 88.3779C89.3727 88.124 88.4714 88.124 87.9644 88.3779L86.5421 89.1534C86.021 89.4072 86.021 89.929 86.5421 90.3097ZM82.289 92.7633L83.7114 93.5389C84.2325 93.7927 85.1338 93.7927 85.6407 93.5389L87.0631 92.7633C87.5842 92.5095 87.5842 91.9877 87.0631 91.607L85.6407 90.8315C85.1197 90.5776 84.2184 90.5776 83.7114 90.8315L82.289 91.607C81.7679 91.8608 81.7679 92.3826 82.289 92.7633ZM52.3627 110.065L53.7851 110.841C54.3062 111.095 55.2075 111.095 55.7145 110.841L82.796 95.2169C83.3171 94.9631 83.3171 94.4413 82.796 94.0606L81.3736 93.285C80.8525 93.0312 79.9512 93.0312 79.4442 93.285L52.3486 108.909C51.8276 109.163 51.8276 109.685 52.3486 110.065H52.3627ZM48.1097 112.519L49.532 113.294C50.0531 113.548 50.9544 113.548 51.4614 113.294L52.8838 112.519C53.4049 112.265 53.4049 111.743 52.8838 111.363L51.4614 110.587C50.9403 110.333 50.039 110.333 49.532 110.587L48.1097 111.363C47.5886 111.616 47.5886 112.138 48.1097 112.519ZM43.7158 114.972L45.1382 115.748C45.6592 116.002 46.5605 116.002 47.0675 115.748L48.4899 114.972C49.011 114.719 49.011 114.197 48.4899 113.816L47.0675 113.041C46.5465 112.787 45.6451 112.787 45.1382 113.041L43.7158 113.816C43.1947 114.07 43.1947 114.592 43.7158 114.972ZM39.4627 117.567L40.8851 118.343C41.4062 118.596 42.3075 118.596 42.8145 118.343L44.2369 117.567C44.7579 117.313 44.7579 116.791 44.2369 116.411L42.8145 115.635C42.2934 115.381 41.3921 115.381 40.8851 115.635L39.4627 116.411C38.9417 116.665 38.9417 117.186 39.4627 117.567Z" fill="url(#paint5_linear_3488_90)"/>
<path d="M6.81925 104.905L73.5161 66.2818C76.0933 64.7307 78.1635 60.726 78.1635 57.3699V4.9281C78.1635 1.44514 76.0933 -0.105979 73.5161 1.44514L6.81925 40.0679C4.24207 41.619 2.17188 45.6238 2.17188 48.9798V101.422C2.17188 104.905 4.24207 106.456 6.81925 104.905Z" fill="url(#paint6_linear_3488_90)"/>
<path d="M6.1841 102.197L72.2332 63.9692C74.3034 62.6719 75.5849 59.9645 75.5849 57.2571V4.54731C75.5849 3.89866 74.9371 3.51793 74.2893 3.77175H74.1625L8.11346 41.9997C5.66303 43.4239 4.76172 46.0044 4.76172 48.7118V101.281C4.76172 101.929 5.53628 102.437 6.05735 102.056L6.1841 102.183V102.197Z" fill="url(#paint7_linear_3488_90)"/>
<path d="M4.76347 48.9798V101.549C4.76347 102.197 5.53803 102.705 6.0591 102.324L72.1082 64.0961C74.1643 62.7988 75.4599 60.0914 75.4599 57.384V4.67426C75.4599 4.02561 74.8121 3.64488 74.1643 3.8987H74.0375L7.98846 42.1267C5.53803 43.5509 4.63672 46.1314 4.63672 48.8388L4.76347 48.9657V48.9798ZM5.27045 48.9798C5.27045 46.9069 5.79152 44.1995 8.3687 42.7753L74.5445 4.42044H74.6713C74.798 4.42044 74.9248 4.42044 74.9248 4.67426V57.3699C74.9248 59.9504 73.7559 62.404 71.8265 63.5744L5.66477 101.802H5.53803C5.41128 101.802 5.15779 101.675 5.15779 101.422V48.8529L5.28453 48.9798H5.27045Z" fill="url(#paint8_linear_3488_90)"/>
<path d="M5.538 39.2923L72.2208 0.669478C73.2489 0.0208291 74.1502 0.0208292 74.9247 0.288749C74.9247 0.288749 76.3471 1.06431 76.4739 1.06431C75.6993 0.683579 74.6712 0.810488 73.5024 1.44504L6.81955 40.0678C4.24237 41.6189 2.17217 45.6236 2.17217 48.9797V101.422C2.17217 103.621 2.94674 105.031 4.24237 105.426C4.24237 105.426 3.98888 105.426 3.86213 105.299C3.86213 105.299 2.43975 104.524 2.313 104.397C1.41169 103.748 0.890625 102.465 0.890625 100.787V48.3452C0.890625 44.8622 2.96082 40.8575 5.538 39.4333V39.3064V39.2923Z" fill="url(#paint9_linear_3488_90)"/>
<path style="mix-blend-mode:screen" d="M6.56534 39.9407L73.2622 1.31792C74.2903 0.669267 75.3324 0.669267 76.0929 0.937187C75.4451 0.937187 74.6705 0.937187 73.896 1.45893L7.21316 40.0676C4.63598 41.6187 2.56578 45.6234 2.56578 48.9795V101.421C2.56578 103.494 3.34035 104.777 4.3684 105.299C2.94602 105.045 1.91797 103.621 1.91797 101.168V48.7257C1.91797 45.2427 3.98816 41.238 6.56534 39.8138V39.9407Z" fill="url(#paint10_radial_3488_90)"/>
<path d="M55.1934 73.5157C61.3899 70.0327 67.4455 63.9552 72.5999 56.3406C77.6275 58.0186 83.824 56.9893 90.0205 53.3653H90.274C90.274 53.2384 89.8797 64.8577 89.8797 64.8577C88.7249 82.8083 82.5284 90.6908 72.7266 107.485H72.4732C62.5447 102.324 56.4749 101.549 55.3201 84.8812L54.9258 73.6426H55.1793V73.5157H55.1934Z" fill="url(#paint11_linear_3488_90)"/>
<path d="M53.1402 71.7105C59.3367 68.2276 65.3924 62.15 70.5608 54.5354C75.5885 56.2135 81.785 55.1841 87.9815 51.5601H88.2349C88.2349 51.4332 90.2911 53.2381 90.2911 53.2381H90.1643C83.9678 56.989 77.9121 58.0184 72.7437 56.2135C67.7161 63.969 61.5196 69.9056 55.3231 73.3885H55.0696C55.0696 73.5154 55.4639 84.754 55.4639 84.754C56.2385 95.5977 59.0691 99.7434 63.7165 102.705C57.9143 99.2217 54.1683 95.0901 53.267 82.9491L52.8867 71.7105H53.1402Z" fill="url(#paint12_linear_3488_90)"/>
<path d="M52.8867 71.8381H53.1402C59.3367 68.2283 65.3924 62.1507 70.5608 54.5361L72.631 56.3411C67.6034 64.0966 61.4069 70.0332 55.2104 73.5162H54.9569C54.9569 73.6431 52.9008 71.8381 52.9008 71.8381H52.8867Z" fill="url(#paint13_linear_3488_90)"/>
<path d="M54.9391 73.6428L55.3335 84.8814C56.108 95.7251 58.9528 99.8708 63.5861 102.832C57.7839 99.349 54.0378 95.2174 53.1365 83.0764L52.7422 71.8379L54.8124 73.6428H54.9391Z" fill="url(#paint14_linear_3488_90)"/>
<path d="M55.8418 74.0378C61.9115 70.5549 67.8405 64.7311 72.8681 57.2435C77.8957 58.9215 83.8387 57.8921 89.8944 54.3951H90.1479C90.1479 54.2682 92.0772 56.0731 92.0772 56.0731H91.9505C85.8807 59.683 79.9518 60.7264 74.9242 59.0484C69.8966 66.5361 63.9536 72.4867 57.8979 75.8428H57.6444C57.6444 75.9697 58.0387 86.9544 58.0387 86.9544C58.8133 97.5443 61.644 101.549 66.1646 104.524C60.4892 101.168 56.8698 97.1636 55.9685 85.1495L55.5742 74.1647H55.8277V74.0378H55.8418Z" fill="url(#paint15_linear_3488_90)"/>
<path d="M55.5898 74.1644H55.8433C61.9131 70.5546 67.842 64.7308 72.8696 57.2432L74.9398 58.9212C69.9122 66.4089 63.9692 72.3595 57.9135 75.7156H57.66C57.66 75.8425 55.5898 74.0375 55.5898 74.0375V74.1644Z" fill="url(#paint16_linear_3488_90)"/>
<path d="M57.646 75.842L58.0403 86.8268C58.8148 97.4167 61.6455 101.421 66.1661 104.397C60.4907 101.041 56.8714 97.0359 55.9701 85.0218L55.5898 74.0371L57.66 75.842H57.646Z" fill="url(#paint17_linear_3488_90)"/>
<path style="mix-blend-mode:color-dodge" d="M54.9392 73.3886C61.1357 69.9056 67.1914 63.828 72.3599 56.2135C77.3875 57.8915 83.584 56.8621 89.7805 53.2381H90.034C90.034 53.1112 90.034 53.6189 90.034 53.6189C83.8375 57.2287 77.9085 58.1453 72.8809 56.4673C67.8533 64.2229 61.6568 70.1594 55.4603 73.6424H55.2068C55.2068 73.7693 55.5871 85.0078 55.5871 85.0078C56.2349 93.6659 58.1642 98.0513 61.2625 101.027C57.9107 98.0513 55.8406 93.7928 55.1927 84.754L54.8125 73.5155H55.066L54.9392 73.3886Z" fill="url(#paint18_linear_3488_90)"/>
<path style="mix-blend-mode:multiply" opacity="0.4" d="M70.5458 114.846C79.9532 114.846 87.5721 111.602 87.5721 107.612C87.5721 103.621 79.9532 100.378 70.5458 100.378C61.1384 100.378 53.5195 103.621 53.5195 107.612C53.5195 111.602 61.1384 114.846 70.5458 114.846Z" fill="url(#paint19_radial_3488_90)"/>
<path d="M59.0675 77.1397C65.264 73.6568 71.3197 67.5792 76.4882 59.9646C81.5158 61.6427 87.7123 60.6133 93.9088 56.9893H94.1623C94.1623 56.8624 93.782 68.4817 93.782 68.4817C92.6272 86.4323 86.4307 94.3148 76.629 111.109H76.3755C66.447 105.948 60.3772 105.173 59.2224 88.5052L58.8281 77.2666H59.0816V77.1397H59.0675Z" fill="url(#paint20_linear_3488_90)"/>
<path d="M57.0113 75.3209C63.2078 71.8379 69.2635 65.7603 74.4319 58.1458C79.4595 59.8238 85.656 58.7944 91.8525 55.1705H92.106C92.106 55.0435 94.1622 56.8485 94.1622 56.8485H94.0354C87.8389 60.5994 81.7832 61.6287 76.6148 59.8238C71.5872 67.5794 65.3907 73.5159 59.1942 76.9989H58.9407C58.9407 77.1258 59.335 88.3643 59.335 88.3643C60.1096 99.2081 62.9402 103.354 67.5876 106.315C61.7854 102.832 58.0394 98.7004 57.1381 86.5594L56.7578 75.3209H57.0113Z" fill="url(#paint21_linear_3488_90)"/>
<path d="M56.7422 75.4612H56.9957C63.1922 71.8513 69.2479 65.7738 74.4163 58.1592L76.4865 59.9641C71.4589 67.7197 65.2624 73.6562 59.0659 77.1392H58.8124C58.8124 77.2661 56.7563 75.4612 56.7563 75.4612H56.7422Z" fill="url(#paint22_linear_3488_90)"/>
<path d="M58.9407 77.2668L59.335 88.5054C60.1096 99.3491 62.9402 103.495 67.5876 106.456C61.7854 102.973 58.0394 98.8415 57.1381 86.7005L56.7578 75.4619L58.8139 77.2668H58.9407Z" fill="url(#paint23_linear_3488_90)"/>
<path d="M77.7703 103.48C85.3751 90.6908 89.248 84.3594 90.2901 70.4135L90.5436 63.0527C85.6427 65.2525 80.8686 66.0281 76.6155 65.1256C72.3625 70.9352 67.5884 75.5886 62.6875 79.0715L62.941 86.1785C63.8423 99.095 67.7151 101.027 75.4607 104.905C75.841 105.158 76.2353 105.285 76.7564 105.553C77.1366 104.905 77.5309 104.129 78.052 103.48H77.7703Z" fill="url(#paint24_linear_3488_90)"/>
<path d="M76.4866 65.126C72.2336 70.9356 67.4595 75.589 62.5586 79.0719L62.8121 86.1789C63.7134 99.0954 67.5862 101.027 75.3177 104.905C75.7121 105.159 76.0923 105.286 76.6134 105.554V65.126H76.4866Z" fill="url(#paint25_linear_3488_90)"/>
<path style="mix-blend-mode:color-dodge" d="M58.9392 76.9989C65.1357 73.5159 71.1914 67.4384 76.3599 59.8238C81.3875 61.5018 87.584 60.4725 93.7805 56.8485H94.034C94.034 56.7216 94.034 57.2292 94.034 57.2292C87.8375 60.8391 81.9085 61.7557 76.8809 60.0776C71.8533 67.8332 65.6568 73.7698 59.4603 77.2527H59.2068C59.2068 77.3796 59.6011 88.6182 59.6011 88.6182C60.249 97.2762 62.1783 101.662 65.2766 104.637C61.9248 101.662 59.8546 97.4031 59.2068 88.3644L58.8125 77.1258H59.066L58.9392 76.9989Z" fill="url(#paint26_radial_3488_90)"/>
<path style="mix-blend-mode:color-dodge" d="M76.4888 65.1256C80.7419 66.0281 85.516 65.2525 90.4168 63.0527V63.4335C85.6427 65.5063 80.9953 66.2819 76.869 65.3653C72.616 71.1749 67.8419 75.8283 62.941 79.3113L63.1945 86.4182C63.7156 93.652 65.1239 97.4029 67.7151 99.9834C65.0112 97.4029 63.4621 93.5251 62.941 86.0375L62.6875 78.9305C67.5884 75.4476 72.3625 70.6673 76.6155 64.9846L76.4888 65.1115V65.1256Z" fill="url(#paint27_radial_3488_90)"/>
<path d="M39.5208 74.4883L36.4648 76.2509V79.7621L39.5208 77.9994V74.4883Z" fill="#83CBFF"/>
<path opacity="0.3" d="M10.9896 78.7188L7.93359 80.4814V83.9925L10.9896 82.2299V78.7188Z" fill="#83CBFF"/>
<path opacity="0.3" d="M10.9896 84.9375L7.93359 86.7001V90.2113L10.9896 88.4487V84.9375Z" fill="#83CBFF"/>
<path opacity="0.3" d="M16.7357 81.623L13.6797 83.3857V86.8968L16.7357 85.1342V81.623Z" fill="#83CBFF"/>
<path opacity="0.3" d="M22.4662 78.3242L19.4102 80.0728V83.5839L22.4662 81.8213V78.3242Z" fill="#83CBFF"/>
<path opacity="0.3" d="M28.1849 75.0098L25.1289 76.7724V80.2836L28.1849 78.5209V75.0098Z" fill="#83CBFF"/>
<path opacity="0.3" d="M33.931 71.6963L30.875 73.4589V76.9701L33.931 75.2075V71.6963Z" fill="#83CBFF"/>
<path d="M10.9896 91.1279L7.93359 92.8906V96.4017L10.9896 94.6391V91.1279Z" fill="#83CBFF"/>
<path opacity="0.3" d="M16.7357 87.8135L13.6797 89.5761V93.0873L16.7357 91.3246V87.8135Z" fill="#83CBFF"/>
<path opacity="0.3" d="M22.4662 84.5L19.4102 86.2626V89.7738L22.4662 88.0112V84.5Z" fill="#83CBFF"/>
<path opacity="0.3" d="M28.1849 81.1865L25.1289 82.9492V86.4603L28.1849 84.6977V81.1865Z" fill="#83CBFF"/>
<path d="M33.931 77.8721L30.875 79.6347V83.1459L33.931 81.3832V77.8721Z" fill="#83CBFF"/>
<path opacity="0.3" d="M44.5912 65.3936L41.5352 67.1562V70.6673L44.5912 68.9047V65.3936Z" fill="#83CBFF"/>
<path opacity="0.3" d="M50.3216 62.0654L47.2656 63.8281V67.3392L50.3216 65.5766V62.0654Z" fill="#83CBFF"/>
<path opacity="0.3" d="M56.0677 58.7666L53.0117 60.5151V64.0263L56.0677 62.2637V58.7666Z" fill="#83CBFF"/>
<path opacity="0.3" d="M61.7865 55.4521L58.7305 57.2148V60.7259L61.7865 58.9633V55.4521Z" fill="#83CBFF"/>
<path opacity="0.3" d="M67.5169 52.1387L64.4609 53.9013V57.4125L67.5169 55.6498V52.1387Z" fill="#83CBFF"/>
<path d="M44.5912 71.5703L41.5352 73.3329V76.8441L44.5912 75.0815V71.5703Z" fill="#83CBFF"/>
<path opacity="0.3" d="M50.3216 68.2559L47.2656 70.0185V73.5297L50.3216 71.767V68.2559Z" fill="#83CBFF"/>
<path opacity="0.3" d="M56.0677 64.9424L53.0117 66.705V70.2162L56.0677 68.4535V64.9424Z" fill="#83CBFF"/>
<path d="M49.224 23.1748L46.168 24.9374V28.4486L49.224 26.686V23.1748Z" fill="#83CBFF"/>
<path d="M54.9544 19.8613L51.8984 21.624V25.1351L54.9544 23.3725V19.8613Z" fill="#83CBFF"/>
<path opacity="0.3" d="M66.4193 13.2334L63.3633 14.996V18.5072L66.4193 16.7446V13.2334Z" fill="#83CBFF"/>
<path d="M72.1497 9.91992L69.0938 11.6826V15.1937L72.1497 13.4311V9.91992Z" fill="#83CBFF"/>
<path opacity="0.3" d="M49.224 29.5342L46.168 31.2968V34.808L49.224 33.0453V29.5342Z" fill="#83CBFF"/>
<path opacity="0.3" d="M54.9544 26.207L51.8984 27.9697V31.4808L54.9544 29.7182V26.207Z" fill="#83CBFF"/>
<path opacity="0.3" d="M60.6864 22.8926L57.6445 24.6552V28.1664L60.6864 26.4037V22.8926Z" fill="#83CBFF"/>
<path opacity="0.3" d="M66.4193 19.5791L63.3633 21.3417V24.8529L66.4193 23.0903V19.5791Z" fill="#83CBFF"/>
<path opacity="0.3" d="M72.1497 16.2656L69.0938 18.0283V21.5394L72.1497 19.7768V16.2656Z" fill="#83CBFF"/>
<path opacity="0.3" d="M66.4193 25.8262L63.3633 27.5888V31.1L66.4193 29.3373V25.8262Z" fill="#83CBFF"/>
<path d="M72.1497 22.498L69.0938 24.2607V27.7718L72.1497 26.0092V22.498Z" fill="#83CBFF"/>
<path d="M43.6185 26.5449L40.5625 28.3076V31.8187L43.6185 30.0561V26.5449Z" fill="#83CBFF"/>
<path d="M16.1576 42.4658L13.1016 44.2285V47.7396L16.1576 45.977V42.4658Z" fill="#83CBFF"/>
<path d="M21.888 39.1514L18.832 40.914V44.4252L21.888 42.6625V39.1514Z" fill="#83CBFF"/>
<path opacity="0.3" d="M33.3529 32.5098L30.2969 34.2724V37.7836L33.3529 36.0209V32.5098Z" fill="#83CBFF"/>
<path d="M39.0833 29.1963L36.0273 30.9589V34.4701L39.0833 32.7075V29.1963Z" fill="#83CBFF"/>
<path opacity="0.3" d="M16.1576 48.8105L13.1016 50.5732V54.0843L16.1576 52.3217V48.8105Z" fill="#83CBFF"/>
<path opacity="0.3" d="M21.888 45.4971L18.832 47.2597V50.7709L21.888 49.0082V45.4971Z" fill="#83CBFF"/>
<path opacity="0.3" d="M27.62 42.1836L24.5781 43.9462V47.4574L27.62 45.6948V42.1836Z" fill="#83CBFF"/>
<path opacity="0.3" d="M33.3529 38.8691L30.2969 40.6318V44.1429L33.3529 42.3803V38.8691Z" fill="#83CBFF"/>
<path opacity="0.3" d="M39.0833 35.5557L36.0273 37.3183V40.8295L39.0833 39.0668V35.5557Z" fill="#83CBFF"/>
<path opacity="0.3" d="M33.3529 45.1025L30.2969 46.8652V50.3763L33.3529 48.6137V45.1025Z" fill="#83CBFF"/>
<path d="M39.0833 41.7881L36.0273 43.5507V47.0619L39.0833 45.2993V41.7881Z" fill="#83CBFF"/>
<path d="M10.5521 45.8359L7.49609 47.5986V51.1097L10.5521 49.3471V45.8359Z" fill="#83CBFF"/>
<path d="M124.934 94.2861L128.891 96.5705L124.934 98.8549L120.977 96.5705L124.934 94.2861Z" fill="url(#paint28_linear_3488_90)"/>
<path d="M128.891 117.44L124.934 119.724V98.8547L128.891 96.5703V117.44Z" fill="url(#paint29_linear_3488_90)"/>
<path d="M124.934 119.739L120.977 117.455V96.585L124.934 98.8693V119.739Z" fill="url(#paint30_linear_3488_90)"/>
<path style="mix-blend-mode:color-dodge" d="M120.977 96.585L124.92 98.7001L128.905 96.585L125.061 98.9539L124.934 119.739L124.737 98.9257L120.977 96.585Z" fill="url(#paint31_radial_3488_90)"/>
<path d="M117.793 87.5459L121.751 89.8303L117.793 92.1146L113.836 89.8303L117.793 87.5459Z" fill="url(#paint32_linear_3488_90)"/>
<path d="M121.764 121.557L117.793 123.842V92.1144L121.764 89.8301V121.557Z" fill="url(#paint33_linear_3488_90)"/>
<path d="M117.793 123.856L113.836 121.572V89.8447L117.793 92.1291V123.856Z" fill="url(#paint34_linear_3488_90)"/>
<path style="mix-blend-mode:color-dodge" d="M113.836 89.8447L117.779 91.9599L121.765 89.8447L117.92 92.2137L117.793 123.856L117.61 92.1996L113.836 89.8447Z" fill="url(#paint35_radial_3488_90)"/>
<path d="M110.754 75.8984L114.712 78.1828L110.754 80.4672L106.797 78.1828L110.754 75.8984Z" fill="url(#paint36_linear_3488_90)"/>
<path d="M114.711 125.689L110.754 127.974V80.4953L114.711 78.2109V125.703V125.689Z" fill="url(#paint37_linear_3488_90)"/>
<path style="mix-blend-mode:multiply" d="M114.711 125.689L110.754 127.974V80.4953L114.711 78.2109V125.703V125.689Z" fill="url(#paint38_linear_3488_90)"/>
<path d="M110.753 127.974L106.781 125.69V78.1973L110.753 80.4816V127.96V127.974Z" fill="url(#paint39_linear_3488_90)"/>
<path style="mix-blend-mode:color-dodge" d="M106.78 78.1973L110.723 80.3265L114.694 78.1973L110.864 80.5803L110.737 127.974L110.54 80.5521L106.766 78.1973H106.78Z" fill="url(#paint40_radial_3488_90)"/>
<g opacity="0.95">
<path d="M103.797 86.5312L107.769 88.8156L103.797 91.1L99.8398 88.8156L103.797 86.5312Z" fill="url(#paint41_linear_3488_90)"/>
<path d="M107.754 129.582L103.797 131.867V91.1144L107.754 88.8301V129.582Z" fill="url(#paint42_linear_3488_90)"/>
<path d="M103.796 131.867L99.8242 129.582V88.8301L103.796 91.1144V131.867Z" fill="url(#paint43_linear_3488_90)"/>
</g>
<path style="mix-blend-mode:color-dodge" d="M99.8359 88.8295L103.779 90.9447L107.765 88.8295L103.92 91.1985L103.807 131.866L103.61 91.1562L99.8359 88.8154V88.8295Z" fill="url(#paint44_radial_3488_90)"/>
<path d="M96.6683 102.832L100.626 105.116L96.6683 107.401L92.7109 105.116L96.6683 102.832Z" fill="url(#paint45_linear_3488_90)"/>
<path d="M100.625 133.685L96.668 135.97V107.415L100.625 105.131V133.685Z" fill="url(#paint46_linear_3488_90)"/>
<path d="M96.6683 135.97L92.7109 133.685V105.131L96.6683 107.415V135.97Z" fill="url(#paint47_linear_3488_90)"/>
<path style="mix-blend-mode:color-dodge" d="M92.7109 105.13L96.6542 107.259L100.64 105.13L96.795 107.513L96.6683 135.983L96.4711 107.485L92.7109 105.13Z" fill="url(#paint48_radial_3488_90)"/>
<path d="M89.5003 112.491L93.4717 114.79L89.5003 117.074L85.543 114.79L89.5003 112.505V112.491Z" fill="url(#paint49_linear_3488_90)"/>
<path d="M93.4729 137.718L89.5156 140.003V117.074L93.4729 114.79V137.732V137.718Z" fill="url(#paint50_linear_3488_90)"/>
<path d="M89.5144 140.002L85.543 137.718V114.775L89.5144 117.06V139.988V140.002Z" fill="url(#paint51_linear_3488_90)"/>
<path style="mix-blend-mode:color-dodge" d="M85.5414 114.775L89.4847 116.905L93.4561 114.775L89.6114 117.158L89.4987 140.002L89.3016 117.13L85.5273 114.775H85.5414Z" fill="url(#paint52_radial_3488_90)"/>
<path d="M82.305 127.382L86.2623 129.666L82.305 131.951L78.3477 129.666L82.305 127.382Z" fill="url(#paint53_linear_3488_90)"/>
<path d="M86.2761 141.821L82.3047 144.105V131.95L86.2761 129.666V141.821Z" fill="url(#paint54_linear_3488_90)"/>
<path d="M82.305 144.12L78.3477 141.836V129.681L82.305 131.965V144.12Z" fill="url(#paint55_linear_3488_90)"/>
<path style="mix-blend-mode:color-dodge" d="M78.3477 129.666L82.2909 131.796L86.2764 129.666L82.4317 132.035L82.305 144.106L82.1219 132.007L78.3477 129.652V129.666Z" fill="url(#paint56_radial_3488_90)"/>
<path d="M61.7556 37.5582V39.208L63.8681 37.9812V46.5265L65.4735 45.6099V37.0647L67.5578 35.852V34.2021L61.7556 37.5582ZM60.6008 38.2068L59.0095 39.1234V46.1457L55.4183 41.2104L53.8269 42.1269V52.3502L55.4324 51.4336V44.4395L59.0235 49.3608L60.6149 48.4442V38.221L60.6008 38.2068ZM52.4045 44.6087V42.9448L47.8135 45.5958V55.8191L52.4327 53.1681V51.5041L49.419 53.2386V50.5312L52.0806 48.9942V47.3725L49.419 48.9095V46.3573L52.4186 44.6228L52.4045 44.6087ZM44.4477 47.5558L41.9409 56.5946L39.406 50.4607L37.6034 51.5041V61.7133L39.2088 60.7967V54.1551L41.3353 59.5559L42.5324 58.8649L44.6448 50.9965V57.6381L46.2503 56.7215V46.5265L44.4336 47.5558H44.4477ZM34.9276 53.0553L33.2517 58.6957L31.5477 55.0153L29.7591 56.0447L32.4631 61.1493V64.7027L34.0544 63.7862V60.2327L36.702 52.04L34.9417 53.0553H34.9276ZM24.4217 65.7603L25.5624 60.8249L26.7172 64.4348L24.4217 65.7603ZM27.6749 67.4665L29.3507 66.4936L26.4778 57.9201L24.633 58.9918L21.8023 70.8508L23.4641 69.8919L23.9851 67.6499L27.1397 65.8308L27.6608 67.4806L27.6749 67.4665ZM18.2393 67.3396L16.9859 68.0729V65.1117L18.2393 64.3784C19.0983 63.8849 19.5349 64.1246 19.5349 65.1258C19.5349 65.5911 19.4363 66.0141 19.2251 66.3949C19.0139 66.7756 18.6899 67.0999 18.2534 67.3396H18.2393ZM21.1685 64.181C21.1685 63.5747 21.0559 63.0952 20.8446 62.7427C20.6334 62.3902 20.3095 62.2068 19.8729 62.1786C19.4363 62.1504 18.9153 62.3197 18.3097 62.6722L15.3945 64.3643V74.5735L17 73.6569V69.7368L18.3238 68.9754C18.9716 68.5946 19.5068 68.1434 19.9433 67.6076C20.3658 67.0717 20.6756 66.5077 20.8869 65.9013C21.084 65.3091 21.1826 64.745 21.1826 64.1951L21.1685 64.181Z" fill="white"/>
</g>
<defs>
<linearGradient id="paint0_linear_3488_90" x1="124.864" y1="103.48" x2="-3.7556" y2="103.48" gradientUnits="userSpaceOnUse">
<stop stop-color="#7F86B8"/>
<stop offset="0.3" stop-color="#8188B9"/>
<stop offset="0.4" stop-color="#959AC8"/>
<stop offset="0.5" stop-color="#E7E9F4"/>
<stop offset="0.6" stop-color="#B9BDE3"/>
<stop offset="0.7" stop-color="#849ECB"/>
<stop offset="0.8" stop-color="#7295C3"/>
<stop offset="1" stop-color="#8D94CC"/>
</linearGradient>
<linearGradient id="paint1_linear_3488_90" x1="127.624" y1="100.054" x2="3.80633" y2="100.054" gradientUnits="userSpaceOnUse">
<stop stop-color="#8191C8"/>
<stop offset="0.1" stop-color="#8795CA"/>
<stop offset="0.3" stop-color="#98A2D3"/>
<stop offset="0.6" stop-color="#B9BDE3"/>
<stop offset="0.8" stop-color="#C7CAE8"/>
<stop offset="1" stop-color="#E0E2F3"/>
</linearGradient>
<linearGradient id="paint2_linear_3488_90" x1="82.333" y1="128.693" x2="64.0746" y2="97.2678" gradientUnits="userSpaceOnUse">
<stop stop-color="#6850D5"/>
<stop offset="1" stop-color="#366DBD"/>
</linearGradient>
<radialGradient id="paint3_radial_3488_90" cx="0" cy="0" r="1" gradientUnits="userSpaceOnUse" gradientTransform="translate(92.9342 46.5447) rotate(-160.977) scale(17.2821 10.377)">
<stop stop-color="#8A266A"/>
<stop offset="0.2" stop-color="#601A49"/>
<stop offset="0.4" stop-color="#3D112F"/>
<stop offset="0.5" stop-color="#22091A"/>
<stop offset="0.7" stop-color="#0F040B"/>
<stop offset="0.8" stop-color="#030102"/>
<stop offset="1"/>
</radialGradient>
<radialGradient id="paint4_radial_3488_90" cx="0" cy="0" r="1" gradientUnits="userSpaceOnUse" gradientTransform="translate(59.3333 96.2603) scale(34.1653 34.2092)">
<stop stop-color="#4B61B8"/>
<stop offset="0.1" stop-color="#4154A0"/>
<stop offset="0.3" stop-color="#2A3667"/>
<stop offset="0.5" stop-color="#171F3A"/>
<stop offset="0.7" stop-color="#0A0E1A"/>
<stop offset="0.9" stop-color="#020307"/>
<stop offset="1"/>
</radialGradient>
<linearGradient id="paint5_linear_3488_90" x1="75.0785" y1="71.5835" x2="43.4045" y2="121.281" gradientUnits="userSpaceOnUse">
<stop stop-color="#7F86B8"/>
<stop offset="0.3" stop-color="#888EC0"/>
<stop offset="0.4" stop-color="#959BCB"/>
<stop offset="0.5" stop-color="#BFC5F0"/>
<stop offset="0.6" stop-color="#BCC4F0"/>
<stop offset="0.7" stop-color="#9BADDC"/>
<stop offset="0.8" stop-color="#84A0CE"/>
<stop offset="0.9" stop-color="#7295C3"/>
</linearGradient>
<linearGradient id="paint6_linear_3488_90" x1="121.102" y1="-17.2952" x2="-7.64535" y2="94.5317" gradientUnits="userSpaceOnUse">
<stop stop-color="#8191C8"/>
<stop offset="0.1" stop-color="#8493C9"/>
<stop offset="0.3" stop-color="#8E9BCE"/>
<stop offset="0.4" stop-color="#A0A9D7"/>
<stop offset="0.5" stop-color="#B9BDE3"/>
<stop offset="0.6" stop-color="#C7CAE8"/>
<stop offset="0.9" stop-color="#EDEFF8"/>
<stop offset="1" stop-color="white"/>
</linearGradient>
<linearGradient id="paint7_linear_3488_90" x1="2.21271" y1="103.283" x2="86.3269" y2="-8.08207" gradientUnits="userSpaceOnUse">
<stop stop-color="#2E46C9"/>
<stop offset="0.2" stop-color="#4F92D1"/>
<stop offset="0.6" stop-color="#2A87E8"/>
<stop offset="1" stop-color="#83CBFF"/>
</linearGradient>
<linearGradient id="paint8_linear_3488_90" x1="87.2333" y1="-2.757" x2="-2.03114" y2="102.521" gradientUnits="userSpaceOnUse">
<stop stop-color="#2B41BC"/>
<stop offset="0.2" stop-color="#20318B"/>
<stop offset="0.3" stop-color="#152160"/>
<stop offset="0.4" stop-color="#0D153D"/>
<stop offset="0.6" stop-color="#070B22"/>
<stop offset="0.7" stop-color="#09020F"/>
<stop offset="0.9" stop-color="#020003"/>
<stop offset="1"/>
</linearGradient>
<linearGradient id="paint9_linear_3488_90" x1="-14.319" y1="107.753" x2="49.143" y2="6.6935" gradientUnits="userSpaceOnUse">
<stop stop-color="#7F86B8"/>
<stop offset="0.3" stop-color="#8188B9"/>
<stop offset="0.4" stop-color="#959AC8"/>
<stop offset="0.5" stop-color="#E7E9F4"/>
<stop offset="0.6" stop-color="#B9BDE3"/>
<stop offset="0.7" stop-color="#849ECB"/>
<stop offset="0.8" stop-color="#7295C3"/>
<stop offset="1" stop-color="#8D94CC"/>
</linearGradient>
<radialGradient id="paint10_radial_3488_90" cx="0" cy="0" r="1" gradientUnits="userSpaceOnUse" gradientTransform="translate(-0.309955 43.0373) rotate(180) scale(10.703 10.7168)">
<stop stop-color="white"/>
<stop offset="1"/>
</radialGradient>
<linearGradient id="paint11_linear_3488_90" x1="93.2314" y1="86.9822" x2="28.8349" y2="52.1795" gradientUnits="userSpaceOnUse">
<stop stop-color="#002836"/>
<stop offset="0.1" stop-color="#003244"/>
<stop offset="0.3" stop-color="#003244"/>
<stop offset="0.4" stop-color="#003244"/>
<stop offset="0.5" stop-color="#003244"/>
<stop offset="0.6" stop-color="#DAC3E8"/>
<stop offset="0.9" stop-color="#F3ECF8"/>
<stop offset="1" stop-color="white"/>
</linearGradient>
<linearGradient id="paint12_linear_3488_90" x1="105.501" y1="71.922" x2="68.4738" y2="78.3642" gradientUnits="userSpaceOnUse">
<stop stop-color="#00506D"/>
<stop offset="0.1" stop-color="#00506D"/>
<stop offset="0.3" stop-color="#00506D"/>
<stop offset="0.4" stop-color="#00506D"/>
<stop offset="0.5" stop-color="#00506D"/>
<stop offset="0.6" stop-color="#00506D"/>
<stop offset="0.9" stop-color="#F3ECF8"/>
<stop offset="1" stop-color="white"/>
</linearGradient>
<linearGradient id="paint13_linear_3488_90" x1="79.5176" y1="47.8804" x2="44.377" y2="83.6097" gradientUnits="userSpaceOnUse">
<stop stop-color="#00506D"/>
<stop offset="0.1" stop-color="#00506D"/>
<stop offset="0.3" stop-color="#00506D"/>
<stop offset="0.4" stop-color="#00506D"/>
<stop offset="0.5" stop-color="#00506D"/>
<stop offset="0.6" stop-color="#00506D"/>
<stop offset="0.9" stop-color="#F3ECF8"/>
<stop offset="1" stop-color="white"/>
</linearGradient>
<linearGradient id="paint14_linear_3488_90" x1="60.3188" y1="86.1223" x2="29.4721" y2="103.517" gradientUnits="userSpaceOnUse">
<stop stop-color="#00506D"/>
<stop offset="0.1" stop-color="#00506D"/>
<stop offset="0.3" stop-color="#00506D"/>
<stop offset="0.4" stop-color="#00506D"/>
<stop offset="0.5" stop-color="#00506D"/>
<stop offset="0.6" stop-color="#DAC3E8"/>
<stop offset="0.9" stop-color="#F3ECF8"/>
<stop offset="1" stop-color="white"/>
</linearGradient>
<linearGradient id="paint15_linear_3488_90" x1="107.076" y1="74.2917" x2="70.9641" y2="80.6073" gradientUnits="userSpaceOnUse">
<stop stop-color="#00506D"/>
<stop offset="1" stop-color="#00506D"/>
</linearGradient>
<linearGradient id="paint16_linear_3488_90" x1="81.6574" y1="50.6721" x2="47.2925" y2="85.4999" gradientUnits="userSpaceOnUse">
<stop stop-color="#003244"/>
<stop offset="1" stop-color="#00506D"/>
</linearGradient>
<linearGradient id="paint17_linear_3488_90" x1="62.8144" y1="88.11" x2="32.8693" y2="105.125" gradientUnits="userSpaceOnUse">
<stop stop-color="#00506D"/>
<stop offset="1" stop-color="#00506D"/>
</linearGradient>
<linearGradient id="paint18_linear_3488_90" x1="139.636" y1="83.5371" x2="96.5417" y2="83.5371" gradientUnits="userSpaceOnUse">
<stop stop-color="#05688C"/>
<stop offset="1"/>
</linearGradient>
<radialGradient id="paint19_radial_3488_90" cx="0" cy="0" r="1" gradientUnits="userSpaceOnUse" gradientTransform="translate(118.011 142.322) rotate(180) scale(17.4206 6.98002)">
<stop stop-color="#343132"/>
<stop offset="0.3" stop-color="#7B797A"/>
<stop offset="0.6" stop-color="#B4B2B3"/>
<stop offset="0.8" stop-color="#DCDCDC"/>
<stop offset="0.9" stop-color="#F5F5F5"/>
<stop offset="1" stop-color="white"/>
</radialGradient>
<linearGradient id="paint20_linear_3488_90" x1="97.2042" y1="90.6485" x2="32.7936" y2="55.8459" gradientUnits="userSpaceOnUse">
<stop stop-color="#00506D"/>
<stop offset="0.1" stop-color="#00506D"/>
<stop offset="0.3" stop-color="#00506D"/>
<stop offset="0.4" stop-color="#00506D"/>
<stop offset="0.5" stop-color="#00506D"/>
<stop offset="0.6" stop-color="#00506D"/>
<stop offset="0.9" stop-color="#F3ECF8"/>
<stop offset="1" stop-color="white"/>
</linearGradient>
<linearGradient id="paint21_linear_3488_90" x1="109.498" y1="75.5183" x2="72.4716" y2="81.9605" gradientUnits="userSpaceOnUse">
<stop stop-color="#00506D"/>
<stop offset="0.1" stop-color="#00506D"/>
<stop offset="0.3" stop-color="#00506D"/>
<stop offset="0.4" stop-color="#00506D"/>
<stop offset="0.5" stop-color="#00506D"/>
<stop offset="0.6" stop-color="#00506D"/>
<stop offset="0.9" stop-color="#F3ECF8"/>
<stop offset="1" stop-color="white"/>
</linearGradient>
<linearGradient id="paint22_linear_3488_90" x1="83.4435" y1="51.433" x2="48.3169" y2="87.1622" gradientUnits="userSpaceOnUse">
<stop stop-color="#00506D"/>
<stop offset="0.1" stop-color="#00506D"/>
<stop offset="0.3" stop-color="#00506D"/>
<stop offset="0.4" stop-color="#00506D"/>
<stop offset="0.5" stop-color="#00506D"/>
<stop offset="0.6" stop-color="#00506D"/>
<stop offset="0.9" stop-color="#F3ECF8"/>
<stop offset="1" stop-color="white"/>
</linearGradient>
<linearGradient id="paint23_linear_3488_90" x1="64.2218" y1="89.7886" x2="33.5017" y2="107.198" gradientUnits="userSpaceOnUse">
<stop stop-color="#00506D"/>
<stop offset="0.1" stop-color="#00506D"/>
<stop offset="0.3" stop-color="#00506D"/>
<stop offset="0.4" stop-color="#00506D"/>
<stop offset="0.5" stop-color="#00506D"/>
<stop offset="0.6" stop-color="#00506D"/>
<stop offset="0.9" stop-color="#F3ECF8"/>
<stop offset="1" stop-color="white"/>
</linearGradient>
<linearGradient id="paint24_linear_3488_90" x1="66.9969" y1="56.5098" x2="91.1296" y2="108.152" gradientUnits="userSpaceOnUse">
<stop stop-color="#003244"/>
<stop offset="0.2" stop-color="#003244"/>
<stop offset="0.6" stop-color="#4C9BE8"/>
<stop offset="1" stop-color="#2AF6FF"/>
</linearGradient>
<linearGradient id="paint25_linear_3488_90" x1="41.0821" y1="124.562" x2="93.8282" y2="65.0381" gradientUnits="userSpaceOnUse">
<stop stop-color="#7C1DC9"/>
<stop offset="0.2" stop-color="#6E41D1"/>
<stop offset="0.6" stop-color="#4C9BE8"/>
<stop offset="1" stop-color="#2AF6FF"/>
</linearGradient>
<radialGradient id="paint26_radial_3488_90" cx="0" cy="0" r="1" gradientUnits="userSpaceOnUse" gradientTransform="translate(122.089 87.2884) rotate(180) scale(21.5469 21.5746)">
<stop stop-color="white"/>
<stop offset="1"/>
</radialGradient>
<radialGradient id="paint27_radial_3488_90" cx="0" cy="0" r="1" gradientUnits="userSpaceOnUse" gradientTransform="translate(121.341 87.3778) rotate(180) scale(16.7728 16.7944)">
<stop stop-color="white"/>
<stop offset="1"/>
</radialGradient>
<linearGradient id="paint28_linear_3488_90" x1="127.117" y1="92.7914" x2="123.801" y2="98.5269" gradientUnits="userSpaceOnUse">
<stop stop-color="#6775AB"/>
<stop offset="1" stop-color="#F4F9FF"/>
</linearGradient>
<linearGradient id="paint29_linear_3488_90" x1="125.3" y1="108.274" x2="150.72" y2="106.319" gradientUnits="userSpaceOnUse">
<stop stop-color="#6775AB"/>
<stop offset="1" stop-color="#F4F9FF"/>
</linearGradient>
<linearGradient id="paint30_linear_3488_90" x1="115.512" y1="106.921" x2="129.808" y2="109.298" gradientUnits="userSpaceOnUse">
<stop stop-color="#6775AB"/>
<stop offset="1" stop-color="#F4F9FF"/>
</linearGradient>
<radialGradient id="paint31_radial_3488_90" cx="0" cy="0" r="1" gradientUnits="userSpaceOnUse" gradientTransform="translate(121.712 102.347) scale(8.71736 8.72855)">
<stop stop-color="white"/>
<stop offset="1"/>
</radialGradient>
<linearGradient id="paint32_linear_3488_90" x1="119.976" y1="86.0512" x2="116.66" y2="91.7866" gradientUnits="userSpaceOnUse">
<stop stop-color="#6775AB"/>
<stop offset="1" stop-color="#F4F9FF"/>
</linearGradient>
<linearGradient id="paint33_linear_3488_90" x1="117.948" y1="106.977" x2="147.044" y2="104.755" gradientUnits="userSpaceOnUse">
<stop stop-color="#6775AB"/>
<stop offset="1" stop-color="#F4F9FF"/>
</linearGradient>
<linearGradient id="paint34_linear_3488_90" x1="106.668" y1="105.314" x2="124.259" y2="108.253" gradientUnits="userSpaceOnUse">
<stop stop-color="#6775AB"/>
<stop offset="1" stop-color="#F4F9FF"/>
</linearGradient>
<radialGradient id="paint35_radial_3488_90" cx="0" cy="0" r="1" gradientUnits="userSpaceOnUse" gradientTransform="translate(115.309 98.6934) scale(12.2803 12.2961)">
<stop stop-color="white"/>
<stop offset="1"/>
</radialGradient>
<linearGradient id="paint36_linear_3488_90" x1="110.867" y1="143.865" x2="110.74" y2="70.4272" gradientUnits="userSpaceOnUse">
<stop stop-color="#7C1DC9"/>
<stop offset="0.2" stop-color="#6E41D1"/>
<stop offset="0.6" stop-color="#4C9BE8"/>
<stop offset="1" stop-color="#2AF6FF"/>
</linearGradient>
<linearGradient id="paint37_linear_3488_90" x1="112.796" y1="143.865" x2="112.683" y2="70.4131" gradientUnits="userSpaceOnUse">
<stop stop-color="#7C1DC9"/>
<stop offset="0.2" stop-color="#6E41D1"/>
<stop offset="0.6" stop-color="#4C9BE8"/>
<stop offset="1" stop-color="#2AF6FF"/>
</linearGradient>
<linearGradient id="paint38_linear_3488_90" x1="112.796" y1="143.865" x2="112.683" y2="70.4131" gradientUnits="userSpaceOnUse">
<stop stop-color="#7C1DC9"/>
<stop offset="0.2" stop-color="#6E41D1"/>
<stop offset="0.6" stop-color="#4C9BE8"/>
<stop offset="1" stop-color="#2AF6FF"/>
</linearGradient>
<linearGradient id="paint39_linear_3488_90" x1="108.837" y1="143.866" x2="108.71" y2="70.4276" gradientUnits="userSpaceOnUse">
<stop stop-color="#7C1DC9"/>
<stop offset="0.2" stop-color="#6E41D1"/>
<stop offset="0.6" stop-color="#4C9BE8"/>
<stop offset="1" stop-color="#2AF6FF"/>
</linearGradient>
<radialGradient id="paint40_radial_3488_90" cx="0" cy="0" r="1" gradientUnits="userSpaceOnUse" gradientTransform="translate(110.371 92.2349) scale(17.6037 17.6263)">
<stop stop-color="white"/>
<stop offset="1"/>
</radialGradient>
<linearGradient id="paint41_linear_3488_90" x1="105.98" y1="85.0365" x2="102.664" y2="90.772" gradientUnits="userSpaceOnUse">
<stop stop-color="#6775AB"/>
<stop offset="1" stop-color="#F4F9FF"/>
</linearGradient>
<linearGradient id="paint42_linear_3488_90" x1="103.755" y1="110.503" x2="135.921" y2="108.042" gradientUnits="userSpaceOnUse">
<stop stop-color="#6775AB"/>
<stop offset="1" stop-color="#F4F9FF"/>
</linearGradient>
<linearGradient id="paint43_linear_3488_90" x1="91.2195" y1="108.572" x2="111.585" y2="111.975" gradientUnits="userSpaceOnUse">
<stop stop-color="#6775AB"/>
<stop offset="1" stop-color="#F4F9FF"/>
</linearGradient>
<radialGradient id="paint44_radial_3488_90" cx="0" cy="0" r="1" gradientUnits="userSpaceOnUse" gradientTransform="translate(97.5742 97.3567) scale(15.3223 15.3419)">
<stop stop-color="white"/>
<stop offset="1"/>
</radialGradient>
<linearGradient id="paint45_linear_3488_90" x1="98.8511" y1="101.337" x2="95.5352" y2="107.087" gradientUnits="userSpaceOnUse">
<stop stop-color="#6775AB"/>
<stop offset="1" stop-color="#F4F9FF"/>
</linearGradient>
<linearGradient id="paint46_linear_3488_90" x1="96.8792" y1="120.684" x2="124.905" y2="118.546" gradientUnits="userSpaceOnUse">
<stop stop-color="#6775AB"/>
<stop offset="1" stop-color="#F4F9FF"/>
</linearGradient>
<linearGradient id="paint47_linear_3488_90" x1="86.0356" y1="119.091" x2="102.655" y2="121.876" gradientUnits="userSpaceOnUse">
<stop stop-color="#6775AB"/>
<stop offset="1" stop-color="#F4F9FF"/>
</linearGradient>
<radialGradient id="paint48_radial_3488_90" cx="0" cy="0" r="1" gradientUnits="userSpaceOnUse" gradientTransform="translate(96.8165 114.947) scale(11.2241 11.2385)">
<stop stop-color="white"/>
<stop offset="1"/>
</radialGradient>
<linearGradient id="paint49_linear_3488_90" x1="91.6972" y1="110.996" x2="88.3813" y2="116.732" gradientUnits="userSpaceOnUse">
<stop stop-color="#6775AB"/>
<stop offset="1" stop-color="#F4F9FF"/>
</linearGradient>
<linearGradient id="paint50_linear_3488_90" x1="89.8536" y1="127.523" x2="115.964" y2="125.512" gradientUnits="userSpaceOnUse">
<stop stop-color="#6775AB"/>
<stop offset="1" stop-color="#F4F9FF"/>
</linearGradient>
<linearGradient id="paint51_linear_3488_90" x1="79.769" y1="126.084" x2="94.6839" y2="128.588" gradientUnits="userSpaceOnUse">
<stop stop-color="#6775AB"/>
<stop offset="1" stop-color="#F4F9FF"/>
</linearGradient>
<radialGradient id="paint52_radial_3488_90" cx="0" cy="0" r="1" gradientUnits="userSpaceOnUse" gradientTransform="translate(83.3307 119.024) scale(9.37926 9.3913)">
<stop stop-color="white"/>
<stop offset="1"/>
</radialGradient>
<linearGradient id="paint53_linear_3488_90" x1="84.4878" y1="125.887" x2="81.172" y2="131.623" gradientUnits="userSpaceOnUse">
<stop stop-color="#6775AB"/>
<stop offset="1" stop-color="#F4F9FF"/>
</linearGradient>
<linearGradient id="paint54_linear_3488_90" x1="82.868" y1="136.999" x2="105.331" y2="135.283" gradientUnits="userSpaceOnUse">
<stop stop-color="#6775AB"/>
<stop offset="1" stop-color="#F4F9FF"/>
</linearGradient>
<linearGradient id="paint55_linear_3488_90" x1="74.2777" y1="135.885" x2="85.911" y2="137.826" gradientUnits="userSpaceOnUse">
<stop stop-color="#6775AB"/>
<stop offset="1" stop-color="#F4F9FF"/>
</linearGradient>
<radialGradient id="paint56_radial_3488_90" cx="0" cy="0" r="1" gradientUnits="userSpaceOnUse" gradientTransform="translate(83.9025 136.486) scale(6.02751 6.03525)">
<stop stop-color="white"/>
<stop offset="1"/>
</radialGradient>
<clipPath id="clip0_3488_90">
<rect width="128" height="144" fill="white" transform="translate(0.890625 0.120117)"/>
</clipPath>
</defs>
</svg>
