<svg width="16" height="16" viewBox="0 0 16 16" fill="none" xmlns="http://www.w3.org/2000/svg">
<path d="M8.00063 3.89965C7.18972 3.89965 6.39703 4.14011 5.72279 4.59062C5.04855 5.04114 4.52304 5.68147 4.21272 6.43065C3.9024 7.17982 3.82121 8.0042 3.97941 8.79952C4.1376 9.59484 4.52809 10.3254 5.10149 10.8988C5.67488 11.4722 6.40543 11.8627 7.20075 12.0209C7.99608 12.1791 8.82045 12.0979 9.56963 11.7876C10.3188 11.4772 10.9591 10.9517 11.4096 10.2775C11.8602 9.60324 12.1006 8.81055 12.1006 7.99965C12.1019 7.46086 11.9968 6.92712 11.7912 6.42909C11.5856 5.93106 11.2837 5.47855 10.9027 5.09757C10.5217 4.71659 10.0692 4.41463 9.57119 4.20906C9.07316 4.00348 8.53942 3.89833 8.00063 3.89965ZM8.00063 10.6696C7.47255 10.6696 6.95633 10.5131 6.51725 10.2197C6.07817 9.92629 5.73595 9.50929 5.53387 9.02141C5.33178 8.53353 5.27891 7.99669 5.38193 7.47876C5.48495 6.96083 5.73924 6.48508 6.11265 6.11167C6.48606 5.73827 6.9618 5.48397 7.47973 5.38095C7.99766 5.27793 8.53451 5.3308 9.02239 5.53289C9.51027 5.73498 9.92727 6.0772 10.2206 6.51628C10.514 6.95536 10.6706 7.47157 10.6706 7.99965C10.6706 8.70778 10.3893 9.3869 9.8886 9.88762C9.38788 10.3883 8.70875 10.6696 8.00063 10.6696ZM13.2306 3.72965C13.2306 3.92743 13.172 4.12077 13.0621 4.28522C12.9522 4.44967 12.796 4.57784 12.6133 4.65353C12.4306 4.72922 12.2295 4.74902 12.0355 4.71043C11.8416 4.67185 11.6634 4.57661 11.5235 4.43676C11.3837 4.2969 11.2884 4.11872 11.2498 3.92474C11.2113 3.73076 11.2311 3.52969 11.3067 3.34697C11.3824 3.16424 11.5106 3.00806 11.6751 2.89818C11.8395 2.7883 12.0328 2.72965 12.2306 2.72965C12.4958 2.72965 12.7502 2.83501 12.9377 3.02254C13.1253 3.21008 13.2306 3.46443 13.2306 3.72965ZM15.9406 4.72965C15.9708 3.48628 15.5069 2.28165 14.6506 1.37965C14.2064 0.950236 13.6819 0.612623 13.107 0.386124C12.5322 0.159624 11.9184 0.0486836 11.3006 0.0596484C10.0006 -0.000351563 6.00062 -0.000351563 4.70062 0.0596484C3.45783 0.0327376 2.2544 0.496149 1.35062 1.34965C0.494318 2.25165 0.0304433 3.45628 0.060625 4.69965C0.000624999 5.99965 0.000624999 9.99965 0.060625 11.2996C0.0304433 12.543 0.494318 13.7476 1.35062 14.6496C2.2544 15.5031 3.45783 15.9666 4.70062 15.9396C6.02063 16.0196 9.98063 16.0196 11.3006 15.9396C12.544 15.9698 13.7486 15.506 14.6506 14.6496C15.5069 13.7476 15.9708 12.543 15.9406 11.2996C16.0006 9.99965 16.0006 5.99965 15.9406 4.69965V4.72965ZM14.2406 12.7296C14.1049 13.0736 13.8999 13.386 13.6384 13.6474C13.3769 13.9089 13.0646 14.1139 12.7206 14.2496C11.1682 14.5635 9.58119 14.6711 8.00063 14.5696C6.42339 14.6702 4.83977 14.5626 3.29063 14.2496C2.94669 14.1139 2.6343 13.9089 2.37284 13.6474C2.11137 13.386 1.9064 13.0736 1.77062 12.7296C1.35063 11.6696 1.44063 9.16965 1.44063 8.00965C1.44063 6.84965 1.35063 4.33965 1.77062 3.28965C1.90257 2.94232 2.10608 2.62661 2.36794 2.36302C2.6298 2.09944 2.94416 1.89387 3.29063 1.75965C4.83977 1.44667 6.42339 1.33908 8.00063 1.43965C9.58119 1.3382 11.1682 1.44579 12.7206 1.75965C13.0646 1.89542 13.3769 2.10039 13.6384 2.36186C13.8999 2.62333 14.1049 2.93571 14.2406 3.27965C14.6606 4.33965 14.5606 6.83965 14.5606 7.99965C14.5606 9.15965 14.6606 11.6696 14.2406 12.7196V12.7296Z" fill="url(#paint0_linear_2598_1234)"/>
<defs>
<linearGradient id="paint0_linear_2598_1234" x1="17.4141" y1="-2.94533" x2="-1.5145" y2="10.5698" gradientUnits="userSpaceOnUse">
<stop stop-color="#4869E4"/>
<stop offset="1" stop-color="#5C96FE"/>
</linearGradient>
</defs>
</svg>
