<svg width="15" height="15" viewBox="0 0 15 15" fill="none" xmlns="http://www.w3.org/2000/svg">
<path d="M14.5945 14.3827V14.3821H14.598V9.33234C14.598 6.86196 14.0661 4.95898 11.1781 4.95898C9.78974 4.95898 8.85804 5.72087 8.47767 6.44316H8.43752V5.18961H5.69922V14.3821H8.55053V9.83032C8.55053 8.63185 8.77772 7.47296 10.2619 7.47296C11.7243 7.47296 11.7461 8.84068 11.7461 9.90719V14.3827H14.5945Z" fill="url(#paint0_linear_2461_1418)"/>
<path d="M14.5945 14.3827V14.3821H14.598V9.33234C14.598 6.86196 14.0661 4.95898 11.1781 4.95898C9.78974 4.95898 8.85804 5.72087 8.47767 6.44316H8.43752V5.18961H5.69922V14.3821H8.55053V9.83032C8.55053 8.63185 8.77772 7.47296 10.2619 7.47296C11.7243 7.47296 11.7461 8.84068 11.7461 9.90719V14.3827H14.5945Z" fill="url(#paint1_linear_2461_1418)"/>
<path d="M1.05469 5.18945H3.90945V14.3819H1.05469V5.18945Z" fill="url(#paint2_linear_2461_1418)"/>
<path d="M1.05469 5.18945H3.90945V14.3819H1.05469V5.18945Z" fill="url(#paint3_linear_2461_1418)"/>
<path d="M2.48154 0.613281C1.56878 0.613281 0.828125 1.35393 0.828125 2.2667C0.828125 3.17947 1.56878 3.93561 2.48154 3.93561C3.39431 3.93561 4.13496 3.17947 4.13496 2.2667C4.13439 1.35393 3.39374 0.613281 2.48154 0.613281V0.613281Z" fill="url(#paint4_linear_2461_1418)"/>
<path d="M2.48154 0.613281C1.56878 0.613281 0.828125 1.35393 0.828125 2.2667C0.828125 3.17947 1.56878 3.93561 2.48154 3.93561C3.39431 3.93561 4.13496 3.17947 4.13496 2.2667C4.13439 1.35393 3.39374 0.613281 2.48154 0.613281V0.613281Z" fill="url(#paint5_linear_2461_1418)"/>
<defs>
<linearGradient id="paint0_linear_2461_1418" x1="8.79332" y1="13.7812" x2="13.1105" y2="11.9528" gradientUnits="userSpaceOnUse">
<stop offset="1" stop-color="#3DB2E8"/>
</linearGradient>
<linearGradient id="paint1_linear_2461_1418" x1="15.3939" y1="3.21398" x2="4.45267" y2="10.5979" gradientUnits="userSpaceOnUse">
<stop stop-color="#4869E4"/>
<stop offset="1" stop-color="#5C96FE"/>
</linearGradient>
<linearGradient id="paint2_linear_2461_1418" x1="2.04729" y1="13.7952" x2="3.6496" y2="13.572" gradientUnits="userSpaceOnUse">
<stop offset="1" stop-color="#3DB2E8"/>
</linearGradient>
<linearGradient id="paint3_linear_2461_1418" x1="4.16479" y1="3.48726" x2="-0.703992" y2="4.56787" gradientUnits="userSpaceOnUse">
<stop stop-color="#4869E4"/>
<stop offset="1" stop-color="#5C96FE"/>
</linearGradient>
<linearGradient id="paint4_linear_2461_1418" x1="1.97792" y1="3.72355" x2="3.55558" y2="3.01927" gradientUnits="userSpaceOnUse">
<stop offset="1" stop-color="#3DB2E8"/>
</linearGradient>
<linearGradient id="paint5_linear_2461_1418" x1="4.43074" y1="-0.00192209" x2="0.501416" y2="2.79319" gradientUnits="userSpaceOnUse">
<stop stop-color="#4869E4"/>
<stop offset="1" stop-color="#5C96FE"/>
</linearGradient>
</defs>
</svg>
