<svg width="150" height="46" viewBox="0 0 150 46" fill="none" xmlns="http://www.w3.org/2000/svg">
<path d="M43.3078 28.5914V33.9121C43.3078 33.9996 43.227 34.2853 43.0873 34.3679C42.6545 34.7139 40.9689 34.7452 40.394 34.7059C39.8191 34.6666 39.1891 34.5644 39.0316 33.8806L38.9922 18.2958C39.0158 17.8164 39.9136 17.4785 40.331 17.2898C43.7173 15.773 49.8758 15.4822 52.2147 18.9167C53.8213 21.2745 53.6244 25.542 51.7737 27.7269C49.8364 30.0139 45.6783 30.4383 43.3078 28.5992V28.5914ZM44.7332 19.2625C44.4812 19.2861 43.5132 19.4281 43.3236 19.6633C43.3078 21.2853 43.3078 22.9995 43.3078 24.6303C43.5126 27.0195 46.9934 27.3889 48.2377 25.6285C49.0961 24.4181 49.1591 21.7932 48.3874 20.5435C47.6156 19.2939 46.009 19.1525 44.7332 19.2625Z" fill="#5C96FE"/>
<path d="M68.6988 17.8164L68.7146 28.6307C68.6673 29.1416 68.502 29.2909 67.9901 29.3459C67.4782 29.4009 66.0134 29.4167 65.5881 29.3302C64.9108 29.1966 65.0683 28.4578 64.8557 28.0334C64.6976 28.1425 64.651 28.167 64.5565 28.2535C62.5089 30.0925 58.5713 30.289 56.4292 28.5128C54.0745 26.5638 54.0272 22.3669 55.4684 19.8677C57.9806 15.5058 64.7927 15.3251 68.6988 17.8164ZM62.0442 19.2625C59.4297 19.5769 58.4689 22.4691 58.9965 24.7483C59.5242 27.0275 64.3753 27.1532 64.6273 24.4025C64.7691 22.8935 64.5565 21.1488 64.5958 19.6084C63.8398 19.2311 62.8869 19.1525 62.0442 19.2547V19.2625Z" fill="#5C96FE"/>
<path d="M77.4834 24.2932L80.3185 17.2042C80.5311 16.8033 80.665 16.654 81.1454 16.599C81.6258 16.544 83.5709 16.5204 84.2482 16.599C84.9255 16.6776 84.8152 17.0234 84.6813 17.4871C82.87 21.1023 81.3265 24.859 79.5152 28.4743C77.7039 32.0895 77.7275 32.1288 76.1997 32.9383C74.7034 33.7321 72.2936 33.5749 70.8524 32.6868C70.4901 32.4589 69.994 32.1524 70.0885 31.673C70.183 31.1936 71.1438 29.7318 71.254 29.661C71.5848 29.441 72.1361 29.9518 72.4668 30.0933C74.0104 30.7692 74.9475 30.1404 75.4122 28.6315L70.1358 17.4085C69.9704 16.9684 70.0728 16.654 70.5689 16.599C71.2777 16.5204 72.9472 16.5283 73.6717 16.599C74.3963 16.6697 74.3963 16.9527 74.6483 17.5107C75.6248 19.6405 76.5383 22.1398 77.4834 24.2932Z" fill="#5C96FE"/>
<path d="M100.366 17.9742L100.381 27.6489C100.058 33.7004 94.1205 34.8793 89.2299 33.1975C87.4556 32.5873 87.7179 32.7416 87.9699 32.0107C88.2219 31.2798 88.8125 30.5253 88.9543 30.3524C89.2299 30.0001 89.1558 30.117 90.0647 30.4074C91.4665 30.8554 93.9236 31.2012 95.1915 30.321C95.8924 29.8337 96.1208 28.7177 96.0735 27.9239C94.1047 29.6215 90.1198 29.3543 88.1431 27.806C85.1899 25.4876 85.5128 19.7661 88.5684 17.6048C91.6634 15.4199 97.2784 16.0015 100.366 17.982V17.9742ZM93.3408 19.2631C91.4665 19.4281 90.5924 20.4498 90.4821 22.2967C90.3876 23.8686 90.7814 25.464 92.506 25.857C94.0811 26.2185 95.916 25.7233 96.0735 23.8843C96.0735 22.5716 96.0735 21.143 96.0735 19.7346C96.0263 19.4831 95.223 19.3652 94.971 19.3259C94.4434 19.2473 93.8685 19.2159 93.3408 19.2631Z" fill="#5C96FE"/>
<path d="M103.485 16.714C103.628 16.6534 103.932 16.6141 104.05 16.6062C104.491 16.5591 106.208 16.5433 106.57 16.6534C107.161 16.8341 106.862 17.5179 107.074 17.958C109.965 15.2544 116.343 15.3802 116.714 20.2608C116.796 25.1425 116.714 25.8568 116.666 28.6544C116.588 28.9609 116.454 29.0945 116.162 29.2124C115.65 29.4246 113.398 29.4325 112.886 29.2124C112.374 28.9924 112.374 28.843 112.335 28.4815C112.216 26.1425 112.335 23.4283 112.335 21.0074C112.335 19.2469 111.819 19.2469 110.697 19.2469C109.639 19.2469 107.838 19.8442 107.72 21.3846C107.539 23.6324 107.933 26.1787 107.72 28.4029C107.689 28.7566 107.578 29.0474 107.24 29.2045C106.901 29.3617 104.948 29.3932 104.428 29.3382C103.68 29.2596 103.389 28.9059 103.326 28.175C103.554 24.6855 103.034 20.8345 103.326 17.3843C103.378 16.7616 103.39 16.7544 103.485 16.714Z" fill="#5C96FE"/>
<path d="M123.144 23.994C123.286 27.0277 126.971 27.3027 129.263 26.674C129.664 26.564 130.893 25.9274 131.114 25.9588C131.334 25.9902 131.72 26.7212 131.846 26.9648C132.271 27.7821 132.626 28.0336 131.712 28.5916C128.704 30.3914 122.923 30.1871 120.498 27.4363C118.214 24.8428 118.56 19.6321 121.411 17.5573C124.38 15.4039 130.476 15.679 132.381 19.1999C132.862 20.0958 133.384 23.1279 133.043 23.5775C132.831 23.857 132.688 23.9998 132.255 24.0019H123.144V23.994ZM129.263 21.652C129.223 20.3002 128.593 19.2628 127.223 18.972C125.176 18.5318 123.207 19.3728 123.136 21.652H129.263Z" fill="#5C96FE"/>
<path d="M141.571 16.2445C147.076 15.8436 151.1 19.1681 149.746 24.9289C148.233 31.342 137.011 31.4363 135.334 25.0625C134.097 20.3706 136.743 16.5981 141.571 16.2445ZM142.177 19.4117C139.799 19.5925 139.287 21.683 139.476 23.7264C139.791 27.2788 144.548 27.5382 145.406 24.5202C146.123 21.9974 145.241 19.1838 142.177 19.4117Z" fill="#5C96FE"/>
<path d="M7.01562 0.809407V10.7042C7.01562 10.8771 7.15738 11.0185 7.33064 11.0185C8.4568 11.0185 12.4259 11.05 15.4737 11.1128C18.23 11.1757 21.0808 12.944 21.9707 16.685C22.0287 16.9287 22.0408 16.9287 22.2779 16.9287H32.2164C32.6324 16.9287 32.5884 16.9287 32.5236 16.5593C32.2243 14.8538 31.2375 7.60763 25.5595 3.30078C24.7562 2.68776 19.868 -1.39903 7.29126 0.495039C7.13375 0.518616 7.0235 0.652223 7.0235 0.809407H7.01562Z" fill="url(#paint0_linear_2461_1394)"/>
<path d="M32.319 19.303H22.1836C21.8764 19.303 21.9243 19.303 21.8764 19.5624C21.6717 20.6705 20.5455 25.0245 15.2612 25.5354C10.8904 25.7083 8.18923 25.7161 7.3072 25.7161C7.01232 25.7161 6.99219 25.7161 6.99219 26.0384L7.09457 33.8347C7.09457 33.8347 6.95281 40.6879 9.94541 43.2265C10.0163 42.0554 9.76428 38.4716 17.6868 35.8938C19.8446 35.2887 22.8923 34.5263 25.3337 32.4986C27.2237 30.8639 28.9641 29.41 30.7046 26.2191C31.2007 25.4018 32.4894 22.5722 32.634 19.6567C32.6542 19.2503 32.634 19.303 32.319 19.303Z" fill="url(#paint1_linear_2461_1394)"/>
<path d="M17.6874 35.8926C17.6874 35.8926 9.63894 37.8259 9.94607 43.2252C10.899 44.1055 13.1119 46.2982 17.5614 45.976C17.7268 45.9602 17.8607 45.8266 17.8528 45.6537C17.782 40.6867 17.6796 35.8926 17.6796 35.8926H17.6874Z" fill="url(#paint2_linear_2461_1394)"/>
<path d="M5.11104 5.50098H0.31501C0.141035 5.50098 0 5.64172 0 5.81535V10.6016C0 10.7752 0.141035 10.916 0.31501 10.916H5.11104C5.28502 10.916 5.42605 10.7752 5.42605 10.6016V5.81535C5.42605 5.64172 5.28502 5.50098 5.11104 5.50098Z" fill="url(#paint3_linear_2461_1394)"/>
<path d="M11.0404 13.4395H7.26814C7.09416 13.4395 6.95312 13.5802 6.95312 13.7538V17.4634C6.95312 17.637 7.09416 17.7777 7.26814 17.7777H11.0404C11.2144 17.7777 11.3554 17.637 11.3554 17.4634V13.7538C11.3554 13.5802 11.2144 13.4395 11.0404 13.4395Z" fill="url(#paint4_linear_2461_1394)"/>
<defs>
<linearGradient id="paint0_linear_2461_1394" x1="22.8995" y1="1.14277" x2="13.4794" y2="15.1606" gradientUnits="userSpaceOnUse">
<stop offset="0.35045" stop-color="#4869E4"/>
<stop offset="1" stop-color="#5C96FE"/>
</linearGradient>
<linearGradient id="paint1_linear_2461_1394" x1="34.9336" y1="14.8704" x2="6.01199" y2="37.0274" gradientUnits="userSpaceOnUse">
<stop stop-color="#4869E4"/>
<stop offset="1" stop-color="#5C96FE"/>
</linearGradient>
<linearGradient id="paint2_linear_2461_1394" x1="13.0962" y1="37.6609" x2="15.8192" y2="44.8008" gradientUnits="userSpaceOnUse">
<stop stop-color="#3F53D8"/>
<stop offset="1" stop-color="#5381F2"/>
</linearGradient>
<linearGradient id="paint3_linear_2461_1394" x1="5.14254" y1="5.2259" x2="0.193294" y2="11.3188" gradientUnits="userSpaceOnUse">
<stop offset="0.6" stop-color="#3F53D8"/>
<stop offset="1" stop-color="#5381F2"/>
</linearGradient>
<linearGradient id="paint4_linear_2461_1394" x1="9.43383" y1="15.3571" x2="6.06167" y2="18.4683" gradientUnits="userSpaceOnUse">
<stop offset="0.3" stop-color="#3F53D8"/>
<stop offset="1" stop-color="#5381F2"/>
</linearGradient>
</defs>
</svg>
