<svg width="194" height="175" viewBox="0 0 194 175" fill="none" xmlns="http://www.w3.org/2000/svg">
<path opacity="0.39" d="M171.734 100.746C171.734 133.478 145.2 160.012 112.469 160.012C79.7373 160.012 53.2031 133.478 53.2031 100.746C53.2031 68.0149 79.7373 41.4808 112.469 41.4808C145.2 41.4808 171.734 68.0149 171.734 100.746Z" fill="black" stroke="#D04B52"/>
<path d="M110.109 107.866L110.211 107.868C110.259 107.869 110.307 107.869 110.355 107.87L110.356 107.87L110.109 107.866ZM110.109 107.866V107.968M110.109 107.866V107.968M110.109 107.968V109.355V109.455M110.109 107.968V109.455M110.109 109.455H110.209M110.109 109.455H110.209M110.209 109.455H111.852H111.952M110.209 109.455H111.952M111.952 109.455V109.355M111.952 109.455V109.355M111.952 109.355V107.972V107.87M111.952 109.355V107.87M111.952 107.87L111.849 107.872M111.952 107.87L111.849 107.872M111.849 107.872C111.675 107.876 111.493 107.878 111.292 107.878C111.116 107.878 110.94 107.876 110.764 107.875M111.849 107.872L110.764 107.875M110.764 107.875C110.676 107.874 110.589 107.873 110.501 107.872L110.764 107.875ZM108.797 102.063L108.797 102.063L108.795 102.065L107.597 103.337L107.597 103.337L107.597 103.337L107.57 103.366V103.366V103.405V105.206V105.225V107.717V107.817H107.67H109.154H109.254V107.717V106.175V106.075V101.679L109.06 101.644C108.998 101.807 108.909 101.951 108.797 102.063ZM102.698 118.866L102.651 118.821L102.59 118.847C102.512 118.88 102.433 118.916 102.354 118.95C102.291 118.979 102.228 119.006 102.168 119.032L102.207 119.224C102.415 119.226 102.622 119.226 102.829 119.226H103.082L102.898 119.053L102.698 118.866ZM98.2424 117.649L98.2359 117.649C98.1452 117.651 98.0557 117.653 97.9665 117.653C97.8386 117.653 97.6439 117.649 97.4465 117.623L97.4465 117.623C96.9176 117.554 96.5102 117.37 96.2361 117.101C95.9634 116.834 95.8151 116.475 95.8151 116.039V115.96L95.7383 115.942C95.2696 115.83 94.8192 115.672 94.3911 115.471L94.267 115.413L94.2495 115.549C94.1809 116.081 94.278 116.639 94.5353 117.208L94.5354 117.208C94.5856 117.319 94.6382 117.426 94.6953 117.53L94.7148 117.565L94.7533 117.577C95.5737 117.831 96.4459 117.967 97.3471 117.967C97.8445 117.967 98.3336 117.925 98.8062 117.846L98.7897 117.647H98.5893V117.645H98.4893C98.4057 117.645 98.3243 117.647 98.2424 117.649Z" fill="url(#paint0_linear_2461_2019)" stroke="url(#paint1_linear_2461_2019)" stroke-width="0.2"/>
<path d="M113.181 83.6399C113.196 85.7371 114.89 87.4435 116.959 87.4435H117.019V87.4435L117.02 87.4434C119.034 87.4096 120.722 85.6379 120.716 83.5791L120.716 83.5791C120.707 81.502 119.024 79.7982 116.958 79.7834V79.7834H116.957H116.93C115.938 79.7834 115.003 80.1749 114.297 80.8872C113.568 81.6205 113.173 82.599 113.181 83.6399ZM113.181 83.6399C113.181 83.6399 113.181 83.6399 113.181 83.6398L113.281 83.6391L113.181 83.64C113.181 83.6399 113.181 83.6399 113.181 83.6399ZM114.742 83.5088C114.783 82.2945 115.725 81.3807 116.932 81.3807H116.958C117.575 81.3868 118.135 81.6217 118.54 82.0397L118.54 82.0398C118.948 82.4595 119.165 83.036 119.152 83.6657C119.124 84.9005 118.149 85.866 116.936 85.8667L116.864 85.8647C116.863 85.8647 116.863 85.8647 116.863 85.8647C116.274 85.8449 115.735 85.6045 115.344 85.1882C114.934 84.7503 114.72 84.1533 114.742 83.5088ZM114.742 83.5088L114.642 83.5054L114.742 83.5088Z" fill="url(#paint2_linear_2461_2019)" stroke="url(#paint3_linear_2461_2019)" stroke-width="0.2"/>
<path d="M98.4893 117.745C98.407 117.745 98.3266 117.747 98.2444 117.749L98.2382 117.749C98.1476 117.751 98.0571 117.753 97.9665 117.753C97.8369 117.753 97.6373 117.749 97.4335 117.722C96.3449 117.58 95.7151 116.959 95.7151 116.039C95.2397 115.926 94.7829 115.765 94.3487 115.561C94.2828 116.072 94.3754 116.611 94.6265 117.167C94.6759 117.276 94.7273 117.381 94.7829 117.481C95.5937 117.732 96.456 117.866 97.3471 117.866C97.8389 117.866 98.3225 117.825 98.7897 117.747H98.4893V117.745Z" fill="url(#paint4_linear_2461_2019)"/>
<path d="M98.4893 117.745C98.407 117.745 98.3266 117.747 98.2444 117.749L98.2382 117.749C98.1476 117.751 98.0571 117.753 97.9665 117.753C97.8369 117.753 97.6373 117.749 97.4335 117.722C96.3449 117.58 95.7151 116.959 95.7151 116.039C95.2397 115.926 94.7829 115.765 94.3487 115.561C94.2828 116.072 94.3754 116.611 94.6265 117.167C94.6759 117.276 94.7273 117.381 94.7829 117.481C95.5937 117.732 96.456 117.866 97.3471 117.866C97.8389 117.866 98.3225 117.825 98.7897 117.747H98.4893V117.745Z" stroke="url(#paint5_linear_2461_2019)"/>
<path d="M106.057 109.157C106.057 109.225 106.057 109.289 106.053 109.357C106.026 110.606 105.734 111.791 105.232 112.857C105.001 113.343 104.73 113.806 104.417 114.238C103.102 116.062 101.102 117.358 98.7925 117.745H98.4921C98.4098 117.745 98.3294 117.747 98.2472 117.749L98.241 117.749C98.1504 117.751 98.0599 117.753 97.9693 117.753C97.8397 117.753 97.6401 117.749 97.4363 117.722C96.3477 117.58 95.7179 116.959 95.7179 116.039C96.2427 116.165 96.7881 116.23 97.3499 116.23C99.2555 116.23 100.988 115.471 102.26 114.24C102.686 113.831 103.061 113.366 103.374 112.857C104.005 111.835 104.382 110.639 104.419 109.359C104.419 109.326 104.419 109.294 104.42 109.262C104.42 109.229 104.421 109.196 104.421 109.161C104.421 108.731 104.382 108.309 104.306 107.9C104.302 107.881 104.298 107.863 104.294 107.844C104.291 107.826 104.287 107.807 104.283 107.789C104.055 106.663 103.548 105.634 102.838 104.776C101.54 103.204 99.5622 102.199 97.3499 102.199C93.4521 102.199 90.2788 105.323 90.2788 109.161C90.2788 111.989 91.9457 114.434 94.3515 115.564C94.2856 116.074 94.3782 116.613 94.6293 117.169C94.6787 117.278 94.7301 117.383 94.7857 117.484C91.2316 116.387 88.6406 113.071 88.6406 109.161C88.6406 104.42 92.5487 100.565 97.3499 100.565C99.4305 100.565 101.34 101.288 102.838 102.492C103.378 102.926 103.861 103.42 104.283 103.965C105.152 105.093 105.746 106.437 105.967 107.902C106.024 108.309 106.057 108.729 106.057 109.157Z" fill="url(#paint6_linear_2461_2019)"/>
<path d="M106.057 109.157C106.057 109.225 106.057 109.289 106.053 109.357C106.026 110.606 105.734 111.791 105.232 112.857C105.001 113.343 104.73 113.806 104.417 114.238C103.102 116.062 101.102 117.358 98.7925 117.745H98.4921C98.4098 117.745 98.3294 117.747 98.2472 117.749L98.241 117.749C98.1504 117.751 98.0599 117.753 97.9693 117.753C97.8397 117.753 97.6401 117.749 97.4363 117.722C96.3477 117.58 95.7179 116.959 95.7179 116.039C96.2427 116.165 96.7881 116.23 97.3499 116.23C99.2555 116.23 100.988 115.471 102.26 114.24C102.686 113.831 103.061 113.366 103.374 112.857C104.005 111.835 104.382 110.639 104.419 109.359C104.419 109.326 104.419 109.294 104.42 109.262C104.42 109.229 104.421 109.196 104.421 109.161C104.421 108.731 104.382 108.309 104.306 107.9C104.302 107.881 104.298 107.863 104.294 107.844C104.291 107.826 104.287 107.807 104.283 107.789C104.055 106.663 103.548 105.634 102.838 104.776C101.54 103.204 99.5622 102.199 97.3499 102.199C93.4521 102.199 90.2788 105.323 90.2788 109.161C90.2788 111.989 91.9457 114.434 94.3515 115.564C94.2856 116.074 94.3782 116.613 94.6293 117.169C94.6787 117.278 94.7301 117.383 94.7857 117.484C91.2316 116.387 88.6406 113.071 88.6406 109.161C88.6406 104.42 92.5487 100.565 97.3499 100.565C99.4305 100.565 101.34 101.288 102.838 102.492C103.378 102.926 103.861 103.42 104.283 103.965C105.152 105.093 105.746 106.437 105.967 107.902C106.024 108.309 106.057 108.729 106.057 109.157Z" stroke="url(#paint7_linear_2461_2019)"/>
<path d="M110.467 106.074H109.156V107.716H110.21V109.355H111.852V107.348C111.852 106.745 111.259 106.074 110.467 106.074ZM109.156 100.637V101.678C109.22 101.51 109.253 101.322 109.253 101.129C109.253 100.944 109.222 100.783 109.156 100.637Z" fill="url(#paint8_linear_2461_2019)"/>
<path d="M110.467 106.074H109.156V107.716H110.21V109.355H111.852V107.348C111.852 106.745 111.259 106.074 110.467 106.074ZM109.156 100.637V101.678C109.22 101.51 109.253 101.322 109.253 101.129C109.253 100.944 109.222 100.783 109.156 100.637Z" stroke="url(#paint9_linear_2461_2019)"/>
<path fill-rule="evenodd" clip-rule="evenodd" d="M139.038 114.316C138.577 113.584 137.816 113.08 136.89 112.896C136.783 112.876 136.676 112.857 136.544 112.839L135.772 112.711L135.826 112.207C135.982 110.719 135.896 109.602 134.966 108.984C134.305 108.546 133.5 108.26 132.65 107.961C132.243 107.817 131.823 107.669 131.397 107.496L131.06 107.361V92.4589L131.51 92.3827C131.691 92.3539 131.87 92.3292 132.045 92.3066C132.379 92.2634 132.696 92.2222 132.971 92.1317C134.136 91.7551 134.968 90.864 135.194 89.7424C135.424 88.6126 134.996 87.4478 134.05 86.6308C131.953 84.8198 129.784 83.017 127.684 81.276C126.763 80.5104 125.843 79.7469 124.925 78.9793L123.643 77.9071C122.715 77.1313 121.788 76.3575 120.862 75.5796C119.088 74.0917 118.411 73.6595 117.341 73.6595C117.214 73.6595 117.084 73.6657 116.94 73.678C115.715 73.7871 114.54 74.2933 113.546 75.1433C112.931 75.6701 112.176 76.3184 111.441 76.9563C108.982 79.0966 106.422 81.1957 103.946 83.2269C102.617 84.3176 101.24 85.4474 99.898 86.567C98.8608 87.4313 98.4698 88.5117 98.7373 89.7815C98.9884 90.9792 99.7293 91.7715 100.935 92.1399C101.219 92.2243 101.536 92.2654 101.87 92.3087C102.04 92.3292 102.213 92.3498 102.388 92.3786L102.841 92.4507V99.2831L102.643 99.4806C101.944 99.0917 101.332 98.8735 100.548 98.6451V96.0397C100.548 95.2886 99.9124 94.6527 99.1613 94.6527H95.5434C94.7922 94.6527 94.1563 95.2886 94.1563 96.0397V98.6451C93.3743 98.8715 92.761 99.0917 92.0634 99.4786L90.3285 97.6346C90.0877 97.3918 89.7214 97.2539 89.3222 97.2539C88.962 97.2539 88.6966 97.3692 88.429 97.6346L85.8278 100.236C85.5849 100.477 85.4471 100.824 85.4471 101.185C85.4471 101.545 85.5849 101.89 85.8278 102.133L87.6676 103.973C87.2786 104.578 86.9555 105.301 86.7251 106.072H84.2308C83.4385 106.072 82.8438 106.743 82.8438 107.346V110.966C82.8438 111.717 83.4797 112.353 84.2308 112.353H86.7251C86.9555 113.127 87.2786 113.849 87.6676 114.452L85.8278 116.292C85.5849 116.533 85.4471 116.881 85.4471 117.241C85.4471 117.601 85.5849 117.947 85.8298 118.192L88.4187 120.669C88.6595 121.027 88.9229 121.171 89.3201 121.171C89.7585 121.171 90.1104 120.997 90.3347 120.667L92.0654 118.939C92.2198 119.004 92.37 119.07 92.5182 119.136C93.0635 119.377 93.5801 119.605 94.1543 119.78V122.386C94.1543 123.213 94.8684 123.66 95.5413 123.66H99.1592C99.8301 123.66 100.546 123.213 100.546 122.386V119.78C101.122 119.605 101.637 119.377 102.182 119.136C102.193 119.132 102.203 119.128 102.213 119.122C101.112 119.122 100.007 119.122 98.904 119.118V122.017H95.7965V119.109C95.7965 118.706 95.5557 118.41 95.2203 118.401C94.253 118.183 93.257 117.749 92.4853 117.202L92.4379 117.169L92.3844 117.152C92.2363 117.105 92.0942 117.082 91.9625 117.082C91.7238 117.082 91.5242 117.16 91.3719 117.313L89.3243 119.36L87.1511 117.187L89.1987 115.14C89.246 115.09 89.3654 114.961 89.4313 114.786C89.5177 114.555 89.4786 114.321 89.3243 114.158C88.8077 113.327 88.4558 112.45 88.2232 111.4L88.2171 111.38L88.2109 111.361C88.0092 110.773 87.577 110.711 87.4021 110.711H84.4901V107.717H87.4021C87.6203 107.717 88.0174 107.632 88.2109 107.066L88.2171 107.048L88.2232 107.027C88.4599 105.971 88.8139 105.086 89.3304 104.259C89.5671 103.905 89.5156 103.49 89.1987 103.175L87.1531 101.129L89.3222 99.0649L91.3719 101.115C91.5242 101.267 91.7238 101.343 91.9625 101.343C92.0942 101.343 92.2363 101.32 92.3844 101.273L92.44 101.257L92.4873 101.222C93.2591 100.676 94.2572 100.24 95.2244 100.024L95.245 100.018L95.2655 100.01C95.745 99.8449 95.8006 99.4683 95.8006 99.2007V96.2908H98.9081V99.2007C98.9081 99.5321 99.0892 99.8181 99.4061 99.991L99.4494 100.014L99.5008 100.026C100.437 100.236 101.427 100.658 102.359 101.238L102.378 101.248L102.396 101.257C102.51 101.31 102.637 101.339 102.769 101.339C102.794 101.339 102.82 101.337 102.845 101.335C103.036 101.318 103.207 101.24 103.339 101.111L105.389 99.0608L107.558 101.125L105.512 103.171C105.197 103.485 105.148 103.903 105.378 104.253C105.901 105.089 106.253 105.967 106.49 107.025L106.494 107.046L106.502 107.064C106.695 107.63 107.093 107.714 107.311 107.714H107.685V105.204C107.533 104.809 107.352 104.397 107.144 103.979L107.685 103.403L108.883 102.131C109.007 102.008 109.103 101.851 109.167 101.676V92.2428H109.706C109.98 92.2428 110.252 92.2407 110.519 92.2366C110.787 92.2325 111.05 92.2305 111.311 92.2305C111.884 92.2305 112.322 92.2449 112.738 92.2757C113.273 92.3148 113.804 93.0063 113.808 93.4899C113.843 97.8898 113.843 102.341 113.808 106.718C113.804 107.202 113.271 107.887 112.729 107.929C112.46 107.949 112.182 107.961 111.861 107.968V109.351H122.922C125.923 109.351 128.923 109.351 131.922 109.355C132.006 109.355 132.097 109.351 132.185 109.346C132.29 109.34 132.399 109.338 132.504 109.338C132.757 109.338 133.089 109.361 133.383 109.53C133.784 109.764 134.393 110.342 134.435 110.983C134.474 111.571 134 112.265 133.541 112.567C133.144 112.831 132.652 112.851 132.181 112.851H131.961C126.832 112.855 121.704 112.857 116.574 112.857C113.653 112.857 110.733 112.857 107.813 112.853C107.656 113.296 107.465 113.757 107.237 114.234H135.494C136.645 114.234 137.349 114.432 137.779 114.876C138.069 115.177 138.209 115.574 138.192 116.051C138.135 117.739 136.141 117.739 135.488 117.739H109.157C109.091 117.912 108.994 118.064 108.875 118.185L107.943 119.118H110.863C111.139 119.118 111.408 119.134 111.696 119.151C111.826 119.159 111.96 119.165 112.102 119.173L114.579 119.118H126.808C129.889 119.118 132.967 119.118 136.048 119.113C137.738 119.109 139.016 118.241 139.38 116.846C139.616 115.946 139.495 115.047 139.038 114.316ZM107.677 98.9826L106.387 97.6346C106.146 97.3918 105.78 97.2539 105.38 97.2539C105.02 97.2539 104.755 97.3692 104.487 97.6346L104.284 97.8384V92.3334H107.675V98.9826H107.677ZM110.005 90.8619C107.424 90.8619 104.845 90.864 102.265 90.866H102.088C101.534 90.866 100.503 90.866 100.12 89.7177C99.7128 88.4973 100.606 87.7585 100.989 87.4395C103.38 85.4516 105.771 83.4595 108.159 81.4674C110.398 79.6008 112.637 77.7301 114.88 75.8656C115.582 75.2832 116.261 74.9972 116.952 74.9972C117.65 74.9972 118.331 75.2832 119.041 75.8739C121.544 77.9565 124.042 80.0412 126.538 82.1259C128.666 83.9019 130.796 85.68 132.924 87.4519C133.296 87.7626 134.426 88.7031 133.669 89.8309C133.299 90.3804 132.445 90.8208 131.722 90.8269C128.767 90.8619 125.801 90.866 123.548 90.866C122.447 90.866 118.039 90.8619 116.936 90.8619H110.005ZM118.662 107.875H115.275V92.3313H118.662V107.875ZM124.682 107.875H120.196V92.2963H124.682V107.875ZM129.57 107.898H126.178V92.3354H129.57V107.898Z" fill="url(#paint10_linear_2461_2019)"/>
<path d="M111.855 109.355V110.966C111.855 111.717 111.219 112.353 110.468 112.353H107.974C107.924 112.518 107.871 112.687 107.811 112.858C107.655 113.3 107.463 113.761 107.235 114.238C107.202 114.308 107.169 114.376 107.134 114.446L108.877 116.298C109.132 116.554 109.254 116.941 109.254 117.187C109.254 117.385 109.219 117.576 109.155 117.747C109.089 117.92 108.992 118.072 108.873 118.194L107.941 119.126L106.395 120.67C106.171 121.001 105.819 121.174 105.381 121.174C104.983 121.174 104.72 121.028 104.479 120.672L102.835 119.126L102.637 118.939C102.558 118.973 102.481 119.007 102.404 119.041C102.341 119.069 102.278 119.097 102.215 119.124C101.114 119.124 100.009 119.124 98.9062 119.12V119.11C98.9062 118.836 99.1614 118.416 99.4825 118.402C100.09 118.266 100.715 118.044 101.335 117.747C101.68 117.583 102.02 117.395 102.355 117.185L102.374 117.173L102.392 117.165C102.506 117.111 102.633 117.08 102.765 117.08C102.985 117.08 103.187 117.163 103.335 117.311L103.769 117.745L105.148 119.124L105.383 119.359L105.617 119.124L106.996 117.745L107.556 117.185L105.508 115.138C105.22 114.85 105.15 114.496 105.319 114.238C105.337 114.21 105.358 114.183 105.383 114.156C105.642 113.74 105.858 113.312 106.039 112.858C106.22 112.405 106.368 111.923 106.484 111.398L106.488 111.378L106.496 111.359C106.698 110.771 107.13 110.709 107.305 110.709H110.217V109.353H111.855V109.355Z" fill="url(#paint11_linear_2461_2019)"/>
<path d="M111.855 109.355V110.966C111.855 111.717 111.219 112.353 110.468 112.353H107.974C107.924 112.518 107.871 112.687 107.811 112.858C107.655 113.3 107.463 113.761 107.235 114.238C107.202 114.308 107.169 114.376 107.134 114.446L108.877 116.298C109.132 116.554 109.254 116.941 109.254 117.187C109.254 117.385 109.219 117.576 109.155 117.747C109.089 117.92 108.992 118.072 108.873 118.194L107.941 119.126L106.395 120.67C106.171 121.001 105.819 121.174 105.381 121.174C104.983 121.174 104.72 121.028 104.479 120.672L102.835 119.126L102.637 118.939C102.558 118.973 102.481 119.007 102.404 119.041C102.341 119.069 102.278 119.097 102.215 119.124C101.114 119.124 100.009 119.124 98.9062 119.12V119.11C98.9062 118.836 99.1614 118.416 99.4825 118.402C100.09 118.266 100.715 118.044 101.335 117.747C101.68 117.583 102.02 117.395 102.355 117.185L102.374 117.173L102.392 117.165C102.506 117.111 102.633 117.08 102.765 117.08C102.985 117.08 103.187 117.163 103.335 117.311L103.769 117.745L105.148 119.124L105.383 119.359L105.617 119.124L106.996 117.745L107.556 117.185L105.508 115.138C105.22 114.85 105.15 114.496 105.319 114.238C105.337 114.21 105.358 114.183 105.383 114.156C105.642 113.74 105.858 113.312 106.039 112.858C106.22 112.405 106.368 111.923 106.484 111.398L106.488 111.378L106.496 111.359C106.698 110.771 107.13 110.709 107.305 110.709H110.217V109.353H111.855V109.355Z" stroke="url(#paint12_linear_2461_2019)"/>
<path d="M109.156 107.717H107.672" stroke="url(#paint13_linear_2461_2019)" stroke-width="0.2"/>
<path d="M97.682 111.152L97.682 111.152L97.683 111.151C97.7747 111.057 97.8286 110.929 97.8286 110.795V109.728H99.1547H99.1559C99.3967 109.733 99.6359 109.691 99.8606 109.602C100.085 109.513 100.289 109.38 100.461 109.212C100.634 109.044 100.771 108.842 100.864 108.62C100.958 108.398 101.006 108.158 101.006 107.918C101.006 107.679 100.958 107.439 100.864 107.217C100.771 106.995 100.634 106.792 100.461 106.624C100.289 106.457 100.085 106.324 99.8606 106.235C99.6359 106.145 99.3966 106.104 99.1539 106.108H97.3273C97.1948 106.108 97.0664 106.159 96.971 106.254C96.8756 106.347 96.8219 106.476 96.8219 106.609V110.795C96.8219 110.928 96.873 111.057 96.9685 111.152L96.9694 111.153C97.0637 111.245 97.1914 111.299 97.3252 111.299C97.4579 111.299 97.5865 111.248 97.682 111.152ZM99.7063 107.358L99.7067 107.358C99.8529 107.508 99.9335 107.709 99.9335 107.918C99.9335 108.127 99.8513 108.328 99.7065 108.478C99.5684 108.62 99.385 108.706 99.19 108.722H99.1547H97.8286V107.113H99.1547H99.155C99.3634 107.121 99.5624 107.209 99.7063 107.358L99.7063 107.358Z" fill="url(#paint14_linear_2461_2019)" stroke="url(#paint15_linear_2461_2019)" stroke-width="0.2"/>
<path d="M94.6602 106.434L94.6603 106.435L96.2285 110.623C96.2518 110.685 96.262 110.752 96.2594 110.816M94.6602 106.434L96.2594 110.816M94.6602 106.434C94.6242 106.339 94.5599 106.257 94.4757 106.198C94.3907 106.139 94.2904 106.108 94.188 106.108H93.6714C93.569 106.108 93.4688 106.139 93.3838 106.198C93.2995 106.257 93.2353 106.339 93.1993 106.434L93.1992 106.435L91.6269 110.621L91.6269 110.621L91.6266 110.621C91.5806 110.746 91.5857 110.884 91.6393 111.005C91.6934 111.128 91.794 111.224 91.9206 111.27C92.0459 111.316 92.1839 111.311 92.3043 111.258C92.4274 111.204 92.523 111.103 92.5696 110.976C92.5696 110.976 92.5696 110.976 92.5696 110.976L92.8383 110.256H95.0137L95.2839 110.975L95.284 110.975C95.32 111.07 95.3842 111.152 95.4685 111.211C95.5535 111.27 95.6537 111.301 95.7561 111.301C95.8173 111.301 95.8783 111.288 95.9323 111.268L95.9323 111.268L95.9333 111.268C95.9937 111.245 96.0508 111.212 96.1007 111.165C96.149 111.119 96.187 111.065 96.2147 111.008L96.2148 111.008L96.2162 111.004C96.2415 110.946 96.2569 110.883 96.2594 110.816M94.6602 106.434L96.2594 110.816M93.9246 107.35L94.6371 109.251L93.2161 109.247L93.9246 107.35Z" fill="url(#paint16_linear_2461_2019)" stroke="url(#paint17_linear_2461_2019)" stroke-width="0.2"/>
<path d="M102.319 111.065L102.387 111.138C102.387 111.138 102.387 111.138 102.387 111.138C102.293 111.227 102.17 111.278 102.039 111.278C101.907 111.278 101.784 111.227 101.69 111.138L101.689 111.137C101.598 111.048 101.541 110.927 101.535 110.797L101.535 110.793H101.535V106.712H101.447V106.612C101.447 106.456 101.509 106.305 101.621 106.195C101.732 106.084 101.88 106.022 102.037 106.022C102.192 106.022 102.344 106.084 102.454 106.196L102.394 106.255C102.489 106.35 102.54 106.476 102.542 106.608L102.542 106.61H102.542V106.612V106.712H102.526H102.442V110.793C102.438 110.896 102.393 110.995 102.319 111.065ZM102.319 111.065C102.242 111.137 102.144 111.178 102.039 111.178C101.934 111.178 101.835 111.137 101.759 111.065C101.685 110.993 101.639 110.896 101.635 110.793V106.712L102.319 111.065Z" fill="url(#paint18_linear_2461_2019)" stroke="url(#paint19_linear_2461_2019)" stroke-width="0.2"/>
<path d="M102.319 111.065L102.387 111.138C102.387 111.138 102.387 111.138 102.387 111.138C102.293 111.227 102.17 111.278 102.039 111.278C101.907 111.278 101.784 111.227 101.69 111.138L101.689 111.137C101.598 111.048 101.541 110.927 101.535 110.797L101.535 110.793H101.535V106.712H101.447V106.612C101.447 106.456 101.509 106.305 101.621 106.195C101.732 106.084 101.88 106.022 102.037 106.022C102.192 106.022 102.344 106.084 102.454 106.196L102.394 106.255C102.489 106.35 102.54 106.476 102.542 106.608L102.542 106.61H102.542V106.612V106.712H102.526H102.442V110.793C102.438 110.896 102.393 110.995 102.319 111.065ZM102.319 111.065C102.242 111.137 102.144 111.178 102.039 111.178C101.934 111.178 101.835 111.137 101.759 111.065M102.319 111.065H101.759M101.759 111.065C101.685 110.993 101.639 110.896 101.635 110.793L101.759 111.065Z" fill="url(#paint20_linear_2461_2019)" stroke="url(#paint21_linear_2461_2019)" stroke-width="0.2"/>
<path d="M111.969 18.3922C156.672 18.3922 192.911 55.1266 192.911 100.441C192.911 128.485 179.031 153.244 157.853 168.042" stroke="url(#paint22_linear_2461_2019)" stroke-width="2" stroke-miterlimit="10"/>
<path d="M161.845 168.327C161.845 165.432 159.568 163.157 156.669 163.157C153.77 163.157 151.492 165.432 151.492 168.327C151.492 171.223 153.77 173.498 156.669 173.498C159.568 173.704 161.845 171.223 161.845 168.327Z" fill="#06294A" stroke="url(#paint23_linear_2461_2019)" stroke-width="2" stroke-miterlimit="10"/>
<path d="M71.0469 170.612C31.8092 147.958 18.2948 97.907 40.8616 58.8202C54.828 34.6296 79.3415 20.3079 105.299 18.2754" stroke="url(#paint24_linear_2461_2019)" stroke-width="2" stroke-miterlimit="10"/>
<path d="M100.541 17.2332C99.0933 19.7407 99.9284 22.8498 102.439 24.2993C104.949 25.7487 108.059 24.9173 109.507 22.4097C110.955 19.9022 110.12 16.7931 107.609 15.3436C105.202 13.7151 101.989 14.7256 100.541 17.2332Z" fill="#07203E" stroke="url(#paint25_linear_2461_2019)" stroke-width="2" stroke-miterlimit="10"/>
<defs>
<linearGradient id="paint0_linear_2461_2019" x1="103.09" y1="101.679" x2="102.884" y2="122.653" gradientUnits="userSpaceOnUse">
<stop stop-color="#D25152"/>
<stop offset="1" stop-color="#FF006B" stop-opacity="0.64"/>
</linearGradient>
<linearGradient id="paint1_linear_2461_2019" x1="103.09" y1="101.679" x2="103.09" y2="119.126" gradientUnits="userSpaceOnUse">
<stop stop-color="#D25152"/>
<stop offset="1" stop-color="#FF006B" stop-opacity="0.64"/>
</linearGradient>
<linearGradient id="paint2_linear_2461_2019" x1="116.949" y1="79.8834" x2="116.859" y2="88.8512" gradientUnits="userSpaceOnUse">
<stop stop-color="#D25152"/>
<stop offset="1" stop-color="#FF006B" stop-opacity="0.64"/>
</linearGradient>
<linearGradient id="paint3_linear_2461_2019" x1="116.949" y1="79.8834" x2="116.949" y2="87.3435" gradientUnits="userSpaceOnUse">
<stop stop-color="#D25152"/>
<stop offset="1" stop-color="#FF006B" stop-opacity="0.64"/>
</linearGradient>
<linearGradient id="paint4_linear_2461_2019" x1="96.5589" y1="115.561" x2="96.5448" y2="118.332" gradientUnits="userSpaceOnUse">
<stop stop-color="#D25152"/>
<stop offset="1" stop-color="#FF006B" stop-opacity="0.64"/>
</linearGradient>
<linearGradient id="paint5_linear_2461_2019" x1="96.5589" y1="115.561" x2="96.5589" y2="117.866" gradientUnits="userSpaceOnUse">
<stop stop-color="#D25152"/>
<stop offset="1" stop-color="#FF006B" stop-opacity="0.64"/>
</linearGradient>
<linearGradient id="paint6_linear_2461_2019" x1="97.3489" y1="100.565" x2="97.1475" y2="121.227" gradientUnits="userSpaceOnUse">
<stop stop-color="#D25152"/>
<stop offset="1" stop-color="#FF006B" stop-opacity="0.64"/>
</linearGradient>
<linearGradient id="paint7_linear_2461_2019" x1="97.3489" y1="100.565" x2="97.3489" y2="117.753" gradientUnits="userSpaceOnUse">
<stop stop-color="#D25152"/>
<stop offset="1" stop-color="#FF006B" stop-opacity="0.64"/>
</linearGradient>
<linearGradient id="paint8_linear_2461_2019" x1="110.504" y1="100.637" x2="110.17" y2="111.107" gradientUnits="userSpaceOnUse">
<stop stop-color="#D25152"/>
<stop offset="1" stop-color="#FF006B" stop-opacity="0.64"/>
</linearGradient>
<linearGradient id="paint9_linear_2461_2019" x1="110.504" y1="100.637" x2="110.504" y2="109.355" gradientUnits="userSpaceOnUse">
<stop stop-color="#D25152"/>
<stop offset="1" stop-color="#FF006B" stop-opacity="0.64"/>
</linearGradient>
<linearGradient id="paint10_linear_2461_2019" x1="111.171" y1="73.6595" x2="110.647" y2="133.767" gradientUnits="userSpaceOnUse">
<stop stop-color="#D25152"/>
<stop offset="1" stop-color="#FF006B" stop-opacity="0.64"/>
</linearGradient>
<linearGradient id="paint11_linear_2461_2019" x1="105.381" y1="109.353" x2="105.252" y2="123.563" gradientUnits="userSpaceOnUse">
<stop stop-color="#D25152"/>
<stop offset="1" stop-color="#FF006B" stop-opacity="0.64"/>
</linearGradient>
<linearGradient id="paint12_linear_2461_2019" x1="105.381" y1="109.353" x2="105.381" y2="121.174" gradientUnits="userSpaceOnUse">
<stop stop-color="#D25152"/>
<stop offset="1" stop-color="#FF006B" stop-opacity="0.64"/>
</linearGradient>
<linearGradient id="paint13_linear_2461_2019" x1="108.414" y1="107.717" x2="108.414" y2="108.717" gradientUnits="userSpaceOnUse">
<stop stop-color="#D25152"/>
<stop offset="1" stop-color="#FF006B" stop-opacity="0.64"/>
</linearGradient>
<linearGradient id="paint14_linear_2461_2019" x1="98.914" y1="106.208" x2="98.8398" y2="112.207" gradientUnits="userSpaceOnUse">
<stop stop-color="#D25152"/>
<stop offset="1" stop-color="#FF006B" stop-opacity="0.64"/>
</linearGradient>
<linearGradient id="paint15_linear_2461_2019" x1="98.914" y1="106.208" x2="98.914" y2="111.199" gradientUnits="userSpaceOnUse">
<stop stop-color="#D25152"/>
<stop offset="1" stop-color="#FF006B" stop-opacity="0.64"/>
</linearGradient>
<linearGradient id="paint16_linear_2461_2019" x1="93.9276" y1="106.208" x2="93.8613" y2="112.211" gradientUnits="userSpaceOnUse">
<stop stop-color="#D25152"/>
<stop offset="1" stop-color="#FF006B" stop-opacity="0.64"/>
</linearGradient>
<linearGradient id="paint17_linear_2461_2019" x1="93.9276" y1="106.208" x2="93.9276" y2="111.202" gradientUnits="userSpaceOnUse">
<stop stop-color="#D25152"/>
<stop offset="1" stop-color="#FF006B" stop-opacity="0.64"/>
</linearGradient>
<linearGradient id="paint18_linear_2461_2019" x1="102.037" y1="106.122" x2="101.728" y2="112.185" gradientUnits="userSpaceOnUse">
<stop stop-color="#D25152"/>
<stop offset="1" stop-color="#FF006B" stop-opacity="0.64"/>
</linearGradient>
<linearGradient id="paint19_linear_2461_2019" x1="102.037" y1="106.122" x2="102.037" y2="111.178" gradientUnits="userSpaceOnUse">
<stop stop-color="#D25152"/>
<stop offset="1" stop-color="#FF006B" stop-opacity="0.64"/>
</linearGradient>
<linearGradient id="paint20_linear_2461_2019" x1="102.037" y1="106.122" x2="101.728" y2="112.185" gradientUnits="userSpaceOnUse">
<stop stop-color="#D25152"/>
<stop offset="1" stop-color="#FF006B" stop-opacity="0.64"/>
</linearGradient>
<linearGradient id="paint21_linear_2461_2019" x1="102.037" y1="106.122" x2="102.037" y2="111.178" gradientUnits="userSpaceOnUse">
<stop stop-color="#D25152"/>
<stop offset="1" stop-color="#FF006B" stop-opacity="0.64"/>
</linearGradient>
<linearGradient id="paint22_linear_2461_2019" x1="159.026" y1="-91.002" x2="303.568" y2="27.2556" gradientUnits="userSpaceOnUse">
<stop offset="0.220288" stop-color="#D35151" stop-opacity="0"/>
<stop offset="0.39058" stop-color="#D35151" stop-opacity="0.56"/>
<stop offset="0.499089" stop-color="#D35151"/>
<stop offset="0.649516" stop-color="#D35151"/>
<stop offset="0.842254" stop-color="#935A65" stop-opacity="0.48"/>
</linearGradient>
<linearGradient id="paint23_linear_2461_2019" x1="156.994" y1="139.01" x2="184.71" y2="176.599" gradientUnits="userSpaceOnUse">
<stop offset="0.220288" stop-color="#D35151" stop-opacity="0"/>
<stop offset="0.39058" stop-color="#D35151" stop-opacity="0.56"/>
<stop offset="0.499089" stop-color="#D35151"/>
<stop offset="0.649516" stop-color="#D35151"/>
<stop offset="0.842254" stop-color="#935A65" stop-opacity="0.48"/>
</linearGradient>
<linearGradient id="paint24_linear_2461_2019" x1="-24.7356" y1="241.126" x2="-89.7004" y2="64.7616" gradientUnits="userSpaceOnUse">
<stop offset="0.220288" stop-color="#D35151" stop-opacity="0"/>
<stop offset="0.39058" stop-color="#D35151" stop-opacity="0.56"/>
<stop offset="0.499089" stop-color="#D35151"/>
<stop offset="0.649516" stop-color="#D35151"/>
<stop offset="0.842254" stop-color="#935A65" stop-opacity="0.48"/>
</linearGradient>
<linearGradient id="paint25_linear_2461_2019" x1="90.0836" y1="45.0484" x2="84.8755" y2="-1.36295" gradientUnits="userSpaceOnUse">
<stop offset="0.220288" stop-color="#D35151" stop-opacity="0"/>
<stop offset="0.39058" stop-color="#D35151" stop-opacity="0.56"/>
<stop offset="0.499089" stop-color="#D35151"/>
<stop offset="0.649516" stop-color="#D35151"/>
<stop offset="0.842254" stop-color="#935A65" stop-opacity="0.48"/>
</linearGradient>
</defs>
</svg>
