<svg width="169" height="145" viewBox="0 0 169 145" fill="none" xmlns="http://www.w3.org/2000/svg">
<path opacity="0.4" d="M18 62L20.913 66.5109L65.0503 136.436C65.0503 136.798 65.344 137.089 65.8334 137.306L82.9636 144.635C84.1382 145.143 86.2917 145.07 87.76 144.49L104.205 137.451C104.89 137.161 105.282 136.726 105.38 136.363L143.259 62H18Z" fill="url(#paint0_linear_3438_12004)"/>
<path style="mix-blend-mode:color-dodge" d="M67.0481 90.8741C67.8892 88.5954 66.7238 86.0664 64.4452 85.2253C62.1665 84.3842 59.6375 85.5496 58.7964 87.8282C57.9553 90.1069 59.1206 92.6359 61.3993 93.477C63.678 94.3181 66.207 93.1527 67.0481 90.8741Z" fill="url(#paint1_radial_3438_12004)"/>
<path style="mix-blend-mode:color-dodge" d="M44.9974 79.4525C46.3366 77.4262 45.7795 74.6979 43.7531 73.3586C41.7267 72.0194 38.9984 72.5765 37.6592 74.6029C36.32 76.6293 36.8771 79.3576 38.9035 80.6968C40.9298 82.036 43.6582 81.4789 44.9974 79.4525Z" fill="url(#paint2_radial_3438_12004)"/>
<path style="mix-blend-mode:color-dodge" d="M164.671 52.8686C166.67 52.8686 168.291 51.248 168.291 49.2488C168.291 47.2496 166.67 45.6289 164.671 45.6289C162.671 45.6289 161.051 47.2496 161.051 49.2488C161.051 51.248 162.671 52.8686 164.671 52.8686Z" fill="url(#paint3_radial_3438_12004)"/>
<path style="mix-blend-mode:color-dodge" d="M163.893 71.1965C166.71 71.1965 168.993 68.9131 168.993 66.0965C168.993 63.2799 166.71 60.9966 163.893 60.9966C161.076 60.9966 158.793 63.2799 158.793 66.0965C158.793 68.9131 161.076 71.1965 163.893 71.1965Z" fill="url(#paint4_radial_3438_12004)"/>
<path style="mix-blend-mode:color-dodge" d="M164.882 41.4677C166.881 41.4677 168.501 39.8471 168.501 37.8479C168.501 35.8487 166.881 34.228 164.882 34.228C162.882 34.228 161.262 35.8487 161.262 37.8479C161.262 39.8471 162.882 41.4677 164.882 41.4677Z" fill="url(#paint5_radial_3438_12004)"/>
<path style="mix-blend-mode:color-dodge" d="M154.655 62.8408C156.654 62.8408 158.275 61.2201 158.275 59.2209C158.275 57.2217 156.654 55.6011 154.655 55.6011C152.656 55.6011 151.035 57.2217 151.035 59.2209C151.035 61.2201 152.656 62.8408 154.655 62.8408Z" fill="url(#paint6_radial_3438_12004)"/>
<path style="mix-blend-mode:color-dodge" d="M153.87 81.1677C156.686 81.1677 158.969 78.8843 158.969 76.0677C158.969 73.2511 156.686 70.9678 153.87 70.9678C151.053 70.9678 148.77 73.2511 148.77 76.0677C148.77 78.8843 151.053 81.1677 153.87 81.1677Z" fill="url(#paint7_radial_3438_12004)"/>
<path style="mix-blend-mode:color-dodge" d="M5.09992 42.0768C7.91654 42.0768 10.1999 39.7935 10.1999 36.9769C10.1999 34.1603 7.91654 31.877 5.09992 31.877C2.2833 31.877 0 34.1603 0 36.9769C0 39.7935 2.2833 42.0768 5.09992 42.0768Z" fill="url(#paint8_radial_3438_12004)"/>
<path style="mix-blend-mode:color-dodge" d="M12.3386 49.5537C14.3378 49.5537 15.9585 47.933 15.9585 45.9338C15.9585 43.9346 14.3378 42.314 12.3386 42.314C10.3394 42.314 8.71875 43.9346 8.71875 45.9338C8.71875 47.933 10.3394 49.5537 12.3386 49.5537Z" fill="url(#paint9_radial_3438_12004)"/>
<path style="mix-blend-mode:color-dodge" d="M17.2875 34.9045C20.1041 34.9045 22.3874 32.6212 22.3874 29.8045C22.3874 26.9879 20.1041 24.7046 17.2875 24.7046C14.4708 24.7046 12.1875 26.9879 12.1875 29.8045C12.1875 32.6212 14.4708 34.9045 17.2875 34.9045Z" fill="url(#paint10_radial_3438_12004)"/>
<path d="M105.01 58.3152L114.854 52.5894L111.15 55.8032L101.297 61.5291L105.01 58.3152Z" fill="#808080"/>
<path d="M84.8047 18.9284L94.6493 13.2026L100.527 15.5961L90.6742 21.3135L84.8047 18.9284Z" fill="#002845"/>
<path d="M124.613 63.4997L134.466 57.7739L136.632 65.3858L126.778 71.1116L124.613 63.4997Z" fill="#002845"/>
<path d="M129.823 56.1843L139.676 50.4585C138.729 53.8669 136.911 56.3619 134.466 57.7743L124.613 63.5001C127.058 62.0877 128.876 59.5927 129.823 56.1843Z" fill="#010C2F"/>
<path d="M93.7188 6.39396L103.572 0.668153L111.311 0L101.457 5.72581L93.7188 6.39396Z" fill="#010C2F"/>
<path d="M101.457 5.72581L111.31 0L114.989 7.47654L105.136 13.2023L101.457 5.72581Z" fill="#002845"/>
<path d="M105.137 13.2024L114.99 7.47656C116.648 7.93327 118.381 8.66063 120.174 9.69246C121.967 10.7243 123.701 12.0014 125.35 13.4561L115.497 19.1819C113.84 17.7272 112.106 16.4501 110.321 15.4183C108.528 14.3864 106.794 13.6506 105.137 13.2024Z" fill="#002845"/>
<path d="M124.707 30.6418L134.56 24.916C136.987 29.1448 138.789 33.7204 139.711 38.2114L129.858 43.9372C128.936 39.4462 127.134 34.8706 124.707 30.6418Z" fill="#002845"/>
<path d="M129.855 43.9372L139.709 38.2114L145.578 42.6009L135.725 48.3267L129.855 43.9372Z" fill="#002845"/>
<path d="M135.728 48.3274L145.582 42.6016L145.548 52.8522L135.703 58.578L135.728 48.3274Z" fill="#010C2F"/>
<path d="M119.199 15.9763L129.052 10.2505L136.757 19.8245L126.904 25.5503L119.199 15.9763Z" fill="#002845"/>
<path d="M119.2 15.9766L126.905 25.559L124.706 30.6505C127.133 34.8793 128.935 39.4549 129.856 43.9459L135.726 48.3354L135.701 58.5776L129.823 56.1841C128.875 59.5925 127.057 62.0875 124.613 63.4999L126.778 71.1118L119.039 71.7715L115.369 64.3034C113.711 63.8467 111.977 63.1193 110.184 62.079C108.391 61.0472 106.657 59.7701 105.008 58.3154L101.304 61.5293L93.5986 51.9468L95.7976 46.8553C93.3703 42.6265 91.5688 38.0509 90.6469 33.56L84.7773 29.1704L84.8027 18.9283L90.6807 21.3218C91.628 17.9134 93.4464 15.4183 95.8907 14.0059L93.7255 6.39407L101.464 5.73438L105.143 13.2109C106.801 13.6676 108.535 14.395 110.328 15.4268C112.121 16.4586 113.855 17.7357 115.504 19.1905L119.208 15.9766H119.2Z" fill="#73B0FF"/>
<path d="M115.496 19.1826C113.839 17.7279 112.105 16.4508 110.32 15.419C108.527 14.3872 106.794 13.6514 105.136 13.2031L101.457 5.72656L94.6484 6.31013L129.697 56.5991C129.739 56.4638 129.781 56.32 129.824 56.1763L135.702 58.5698L135.727 48.3276L129.858 43.9381C129.029 39.8953 127.481 35.7849 125.409 31.9113L116.148 18.6244L115.496 19.1826Z" fill="#73B0FF"/>
<path d="M91.0197 20.2317C90.8929 20.5869 90.7829 20.9506 90.6729 21.3227L84.7949 18.9292L84.7695 29.1714L90.6391 33.5609C91.561 38.0519 93.3625 42.6274 95.7898 46.8563L93.5908 51.9477L101.296 61.5302L105 58.3163C106.649 59.771 108.383 61.0481 110.176 62.08C111.969 63.1118 113.703 63.8476 115.361 64.3043L119.031 71.7724L126.491 71.1296L91.0113 20.2232L91.0197 20.2317Z" fill="#73B0FF"/>
<path d="M126.906 25.5505L136.759 19.8247L134.56 24.9162L124.707 30.642L126.906 25.5505Z" fill="#010C2F"/>
<path d="M109.837 21.609C101.591 16.8473 94.8926 20.6702 94.8673 30.1427C94.8419 39.6068 101.498 51.143 109.736 55.9046C117.973 60.6578 124.68 56.8434 124.706 47.3709C124.731 37.9068 118.075 26.3706 109.837 21.609Z" fill="#002845"/>
<path d="M110.7 53.9767C102.454 49.2151 95.7976 37.6873 95.823 28.2148C95.823 26.2188 96.1359 24.4765 96.6857 23.0049C95.5354 24.7725 94.8757 27.1745 94.8673 30.1347C94.8419 39.5987 101.498 51.1349 109.736 55.8966C116.24 59.6518 121.779 58.0617 123.843 52.5727C121.306 56.4632 116.367 57.2498 110.7 53.9767Z" fill="#010C2F"/>
<path d="M72.3903 60.5827C71.4769 60.0583 70.6143 59.7876 69.8362 59.7284C69.8362 59.6777 69.8362 59.627 69.8362 59.5678C69.8362 51.829 64.3726 42.4072 57.6318 38.5083C52.2105 35.3789 47.618 36.7829 46.0279 41.4769C45.6135 41.164 45.1906 40.8679 44.7508 40.6142C40.3021 38.0516 36.6992 40.0983 36.6992 45.2067C36.6992 50.3151 40.3021 56.523 44.7508 59.0941C46.9752 60.3797 69.76 73.5313 72.3903 75.0537C75.8749 77.0666 78.6997 75.4512 78.6997 71.4592C78.6997 67.4672 75.8749 62.5956 72.3903 60.5827Z" fill="url(#paint11_linear_3438_12004)"/>
<path d="M91.0049 64.3209C91.0049 60.3289 88.1801 55.4573 84.6955 53.4444C83.7821 52.92 82.9194 52.6494 82.1413 52.5902C82.1413 52.5394 82.1413 52.4887 82.1413 52.4295C82.1413 44.6908 76.6777 35.269 69.937 31.37C66.148 29.1879 62.858 29.4755 60.5321 31.0232L56.6416 33.2476C54.4426 32.1058 52.472 32.1143 51.0849 33.07L39.4219 39.853C40.8428 39.2356 42.7034 39.4386 44.7502 40.6142C45.1815 40.8679 45.6044 41.1639 46.0273 41.4769C47.6173 36.7829 52.2098 35.3789 57.6312 38.5082C64.3719 42.3987 69.8355 51.829 69.8355 59.5677C69.8355 59.6269 69.8355 59.6692 69.8355 59.7284C70.6136 59.7791 71.4847 60.0498 72.3897 60.5826C75.8742 62.5955 78.6991 67.4587 78.6991 71.4591C78.6991 73.1507 78.1916 74.4108 77.3459 75.1551L88.9666 68.4905C90.2268 67.8815 91.0134 66.4353 91.0134 64.3209H91.0049Z" fill="url(#paint12_linear_3438_12004)"/>
<path style="mix-blend-mode:color-dodge" d="M71.4758 32.3761C72.4061 34.6428 69.1076 38.1442 64.1092 40.1994C59.1107 42.2546 54.2983 42.0855 53.368 39.8188C52.4376 37.5522 55.7361 34.0507 60.7346 31.9955C65.733 29.9403 70.5454 30.1095 71.4758 32.3761Z" fill="url(#paint13_radial_3438_12004)"/>
<path style="mix-blend-mode:color-dodge" d="M84.5025 58.5017C85.2129 59.7872 82.6418 62.5698 78.7598 64.7265C74.8777 66.8832 76.011 65.5723 75.3006 64.2952C74.5901 63.0096 72.2982 62.2399 76.1802 60.0833C80.0623 57.9266 83.792 57.2246 84.5025 58.5017Z" fill="url(#paint14_radial_3438_12004)"/>
<path style="mix-blend-mode:screen" d="M44.5472 40.9526C44.9785 41.2063 45.4014 41.5023 45.8243 41.8153C45.9173 41.5446 46.0188 41.2824 46.1372 41.0287C45.8158 40.7919 45.4944 40.572 45.1646 40.3775C42.3566 38.7536 39.887 38.982 38.4492 40.6481C39.9293 39.5233 42.1114 39.5317 44.5556 40.9441L44.5472 40.9526Z" fill="url(#paint15_radial_3438_12004)"/>
<path d="M52.6232 47.7093C52.5633 47.7454 52.5064 47.7673 52.4525 47.7749C52.4041 47.7809 52.3534 47.7698 52.3004 47.7417C52.2403 47.7098 52.1856 47.6423 52.1362 47.5391C52.0868 47.4359 52.0191 47.3161 51.9329 47.1798C51.8522 47.0419 51.7412 46.8969 51.6 46.7449C51.4623 46.5948 51.2715 46.4551 51.0277 46.3257C50.7981 46.2038 50.5781 46.1277 50.3677 46.0975C50.1627 46.0657 49.972 46.0709 49.7956 46.1131C49.6227 46.1572 49.4678 46.2357 49.3308 46.3487C49.1958 46.4582 49.0841 46.5959 48.996 46.7619C48.8835 46.9739 48.8409 47.1778 48.8683 47.3735C48.9012 47.5675 48.9761 47.759 49.0932 47.948C49.2138 48.1388 49.3622 48.3285 49.5383 48.5171C49.7198 48.7041 49.903 48.8964 50.0879 49.0942C50.2763 49.2938 50.452 49.5003 50.615 49.7137C50.7834 49.9253 50.913 50.1504 51.0038 50.3888C51.0981 50.6291 51.1393 50.8842 51.1274 51.1541C51.119 51.4259 51.0313 51.719 50.8644 52.0334C50.6881 52.3655 50.4656 52.6482 50.1968 52.8814C49.93 53.1111 49.6298 53.2756 49.2964 53.3748C48.9664 53.4759 48.6097 53.5039 48.2261 53.4587C47.846 53.4155 47.4545 53.2869 47.0518 53.0731C46.5572 52.8105 46.1554 52.484 45.8464 52.0936C45.5393 51.6996 45.3233 51.2747 45.1984 50.8189L45.754 50.4889C45.8029 50.465 45.8533 50.4511 45.9053 50.447C45.9627 50.4412 46.0161 50.4515 46.0656 50.4777C46.1115 50.5021 46.1525 50.5487 46.1883 50.6176C46.2297 50.6848 46.2724 50.7664 46.3166 50.8623C46.3608 50.9582 46.4127 51.065 46.4725 51.1828C46.5323 51.3006 46.6072 51.4196 46.6973 51.5399C46.7909 51.6621 46.9052 51.7839 47.04 51.9053C47.1767 52.0231 47.3422 52.1336 47.5365 52.2368C47.7803 52.3662 48.0154 52.448 48.2418 52.4821C48.4682 52.5163 48.6787 52.508 48.8732 52.4573C49.0731 52.4049 49.2534 52.3126 49.4141 52.1806C49.5748 52.0485 49.7104 51.8782 49.8211 51.6698C49.943 51.4401 49.9894 51.2248 49.9603 51.0236C49.9366 50.8209 49.8663 50.625 49.7492 50.436C49.6321 50.2471 49.4819 50.0609 49.2985 49.8775C49.1169 49.6905 48.9319 49.5017 48.7433 49.311C48.5565 49.1168 48.379 48.9138 48.2105 48.7022C48.0421 48.4905 47.9135 48.2637 47.8245 48.0217C47.7356 47.7798 47.6981 47.5176 47.7122 47.2352C47.7316 46.9512 47.8305 46.6414 48.0086 46.3057C48.1512 46.0372 48.3403 45.8047 48.5759 45.6083C48.815 45.4137 49.0851 45.2718 49.3861 45.1825C49.6907 45.0951 50.0187 45.07 50.3703 45.1072C50.7255 45.1463 51.0921 45.2661 51.4701 45.4668C51.8941 45.6919 52.2435 45.9635 52.5185 46.2815C52.797 46.6015 53.0012 46.9589 53.1311 47.354L52.6232 47.7093Z" fill="white"/>
<path d="M54.9896 54.0807C54.5475 53.8641 54.1578 53.7025 53.8204 53.5959C53.4885 53.4876 53.2019 53.426 52.9607 53.4112C52.723 53.3982 52.5281 53.4284 52.376 53.5016C52.2275 53.5767 52.1138 53.6885 52.035 53.8369C51.96 53.9782 51.9183 54.1123 51.9098 54.2391C51.9013 54.3659 51.9181 54.4836 51.9602 54.5919C52.0077 54.6987 52.076 54.7961 52.1652 54.8841C52.2597 54.9706 52.3688 55.0466 52.4924 55.1122C52.6585 55.2004 52.8188 55.2651 52.9735 55.3065C53.13 55.3443 53.2853 55.3633 53.4391 55.3635C53.5966 55.3655 53.7535 55.3514 53.9099 55.3213C54.0698 55.2929 54.2328 55.2504 54.3988 55.1936L54.9896 54.0807ZM53.1071 50.269C53.5558 50.1404 53.989 50.0964 54.4067 50.137C54.8245 50.1776 55.2418 50.3086 55.6587 50.5299C55.959 50.6893 56.1995 50.8804 56.3801 51.1031C56.5608 51.3258 56.6837 51.5677 56.7489 51.8287C56.8141 52.0898 56.8208 52.3673 56.7689 52.6613C56.717 52.9553 56.6113 53.2524 56.4519 53.5527L54.6289 56.9868L54.2102 56.7646C54.1183 56.7158 54.0552 56.6642 54.0207 56.6096C53.9881 56.5516 53.9812 56.4709 53.9998 56.3676L54.1639 55.8025C53.9531 55.8582 53.7535 55.9017 53.5648 55.9329C53.3781 55.9605 53.1917 55.9703 53.0058 55.9622C52.8218 55.9505 52.6356 55.9174 52.4473 55.8627C52.2606 55.8134 52.0648 55.7343 51.8599 55.6256C51.6514 55.5149 51.4703 55.3825 51.3166 55.2285C51.1648 55.0709 51.0509 54.8972 50.975 54.7075C50.9027 54.5196 50.8728 54.3158 50.8853 54.096C50.9032 53.8746 50.9769 53.642 51.1063 53.3982C51.2188 53.1862 51.385 53.014 51.6047 52.8816C51.8263 52.7456 52.1082 52.6711 52.4503 52.6579C52.7924 52.6448 53.199 52.7022 53.67 52.83C54.143 52.9542 54.6888 53.1715 55.3075 53.4819L55.5298 53.0632C55.7511 52.6463 55.8279 52.284 55.7603 51.9764C55.6945 51.6652 55.4885 51.4177 55.1423 51.2339C54.9091 51.1102 54.697 51.0361 54.5062 51.0117C54.3207 50.9858 54.15 50.9789 53.994 50.9912C53.8434 51.0018 53.7098 51.0147 53.5931 51.0297C53.4819 51.0431 53.3856 51.0283 53.3044 50.9851C53.2408 50.9514 53.1944 50.9064 53.1654 50.8502C53.1382 50.7905 53.1219 50.7275 53.1163 50.6611L53.1071 50.269Z" fill="white"/>
<path d="M60.2581 56.8776C59.816 56.661 59.4263 56.4994 59.0889 56.3927C58.757 56.2844 58.4704 56.2229 58.2292 56.208C57.9915 56.1951 57.7966 56.2252 57.6445 56.2985C57.496 56.3736 57.3823 56.4853 57.3035 56.6337C57.2285 56.775 57.1867 56.9091 57.1783 57.036C57.1698 57.1628 57.1866 57.2804 57.2287 57.3888C57.2762 57.4955 57.3445 57.5929 57.4336 57.681C57.5282 57.7674 57.6373 57.8434 57.7609 57.9091C57.927 57.9972 58.0873 58.062 58.242 58.1033C58.3985 58.1411 58.5537 58.1601 58.7076 58.1603C58.865 58.1624 59.022 58.1483 59.1784 58.1181C59.3383 58.0898 59.5013 58.0473 59.6673 57.9905L60.2581 56.8776ZM58.3756 53.0659C58.8243 52.9373 59.2575 52.8932 59.6752 52.9338C60.0929 52.9745 60.5103 53.1054 60.9272 53.3267C61.2275 53.4862 61.4679 53.6772 61.6486 53.8999C61.8293 54.1226 61.9522 54.3645 62.0174 54.6256C62.0826 54.8866 62.0893 55.1641 62.0374 55.4581C61.9855 55.7521 61.8798 56.0493 61.7204 56.3496L59.8973 59.7837L59.4787 59.5614C59.3868 59.5127 59.3237 59.461 59.2892 59.4065C59.2566 59.3484 59.2496 59.2677 59.2683 59.1644L59.4324 58.5994C59.2216 58.6551 59.022 58.6985 58.8333 58.7297C58.6465 58.7574 58.4602 58.7671 58.2743 58.759C58.0903 58.7474 57.9041 58.7142 57.7158 58.6595C57.5291 58.6102 57.3333 58.5312 57.1284 58.4224C56.9199 58.3117 56.7388 58.1794 56.5851 58.0253C56.4333 57.8677 56.3194 57.6941 56.2435 57.5043C56.1712 57.3165 56.1413 57.1127 56.1538 56.8929C56.1717 56.6714 56.2454 56.4388 56.3748 56.195C56.4873 55.983 56.6535 55.8108 56.8732 55.6784C57.0948 55.5425 57.3767 55.4679 57.7188 55.4548C58.0609 55.4417 58.4674 55.499 58.9385 55.6268C59.4115 55.7511 59.9573 55.9684 60.576 56.2787L60.7983 55.86C61.0196 55.4431 61.0964 55.0809 61.0288 54.7732C60.963 54.4621 60.757 54.2146 60.4107 54.0308C60.1776 53.907 59.9655 53.8329 59.7747 53.8086C59.5892 53.7826 59.4185 53.7758 59.2625 53.7881C59.1119 53.7987 58.9783 53.8115 58.8616 53.8266C58.7504 53.84 58.6541 53.8251 58.5728 53.782C58.5093 53.7482 58.4629 53.7032 58.4339 53.6471C58.4067 53.5873 58.3904 53.5243 58.3848 53.458L58.3756 53.0659Z" fill="white"/>
<path d="M66.8411 57.7229C66.7574 57.7782 66.6714 57.7823 66.5831 57.7354C66.5301 57.7073 66.4804 57.656 66.4339 57.5815C66.3874 57.507 66.3268 57.4205 66.2523 57.3221C66.1832 57.222 66.0918 57.1168 65.9782 57.0067C65.8664 56.893 65.7187 56.7874 65.535 56.6899C65.376 56.6055 65.2216 56.5508 65.0719 56.5256C64.9241 56.497 64.7855 56.4936 64.6562 56.5155C64.5303 56.5393 64.4174 56.5857 64.3173 56.6548C64.2226 56.7223 64.1461 56.8108 64.088 56.9203C64.0148 57.0581 63.9928 57.1936 64.0217 57.3267C64.0542 57.4617 64.118 57.5975 64.2131 57.734C64.3082 57.8705 64.4247 58.0093 64.5626 58.1505C64.7024 58.2881 64.8429 58.4329 64.9841 58.5849C65.1308 58.7352 65.2684 58.8897 65.3969 59.0485C65.5255 59.2074 65.627 59.3744 65.7014 59.5498C65.7759 59.7252 65.8107 59.9113 65.8059 60.108C65.8065 60.303 65.7496 60.5083 65.6352 60.7238C65.5039 60.9712 65.3378 61.1774 65.137 61.3425C64.938 61.504 64.7107 61.6166 64.455 61.6801C64.2013 61.7401 63.9255 61.7477 63.6278 61.7029C63.3301 61.658 63.0169 61.5484 62.6883 61.374C62.3138 61.1752 62.0065 60.9351 61.7665 60.6536C61.5283 60.3687 61.3538 60.0746 61.2431 59.7712L61.657 59.529C61.7097 59.4981 61.762 59.4806 61.814 59.4765C61.866 59.4724 61.922 59.4863 61.9821 59.5182C62.0456 59.5519 62.0996 59.6123 62.144 59.6993C62.1884 59.7862 62.2442 59.886 62.3112 59.9986C62.3818 60.113 62.4764 60.2335 62.595 60.3598C62.7136 60.4862 62.8806 60.6066 63.0961 60.721C63.2798 60.8185 63.4528 60.8809 63.615 60.9081C63.779 60.9318 63.9285 60.9274 64.0635 60.8949C64.1985 60.8624 64.3154 60.8044 64.414 60.7209C64.5162 60.6393 64.5992 60.5384 64.663 60.4183C64.7417 60.2699 64.7658 60.1265 64.7352 59.9879C64.71 59.8477 64.6498 59.7094 64.5547 59.5729C64.4615 59.4328 64.3433 59.293 64.1999 59.1535C64.062 59.0124 63.9197 58.8667 63.7731 58.7164C63.63 58.5679 63.4924 58.4134 63.3603 58.2527C63.2337 58.0903 63.134 57.9197 63.0615 57.7408C62.9889 57.5619 62.9542 57.3714 62.9573 57.1692C62.9658 56.9654 63.0311 56.7487 63.153 56.5191C63.2618 56.3142 63.4083 56.1406 63.5925 55.9984C63.7785 55.8526 63.9903 55.7522 64.2279 55.6971C64.4673 55.6386 64.7279 55.6297 65.0096 55.6706C65.2913 55.7114 65.5841 55.8125 65.8879 55.9738C66.2412 56.1614 66.5274 56.3858 66.7465 56.647C66.971 56.9066 67.1342 57.1879 67.2359 57.491L66.8411 57.7229Z" fill="white"/>
<path style="mix-blend-mode:screen" d="M72.7984 60.3371C71.885 59.8127 71.0223 59.5421 70.2442 59.4829C70.2442 59.4321 70.2442 59.3814 70.2442 59.3222C70.2442 51.5835 64.7806 42.1617 58.0399 38.2627C53.8956 35.8692 50.2504 36.1398 48.043 38.4826C50.2842 36.6811 53.6504 36.6473 57.4309 38.8294C64.1716 42.7199 69.6353 52.1501 69.6353 59.8888C69.6353 59.948 69.6353 59.9903 69.6353 60.0495C70.4134 60.1003 71.2845 60.3709 72.1895 60.9037C75.674 62.9167 78.4989 67.7798 78.4989 71.7802C78.4989 73.2096 78.1352 74.3344 77.5093 75.0956C78.4989 74.3937 79.1078 73.0574 79.1078 71.2136C79.1078 67.2216 76.283 62.35 72.7984 60.3371Z" fill="url(#paint16_radial_3438_12004)"/>
<defs>
<linearGradient id="paint0_linear_3438_12004" x1="85.2895" y1="166.812" x2="88.8903" y2="61.9989" gradientUnits="userSpaceOnUse">
<stop stop-color="#D4FFFF"/>
<stop offset="0.852811" stop-color="#13113D" stop-opacity="0"/>
</linearGradient>
<radialGradient id="paint1_radial_3438_12004" cx="0" cy="0" r="1" gradientUnits="userSpaceOnUse" gradientTransform="translate(62.9222 89.3512) rotate(20.26) scale(4.39797 4.39797)">
<stop offset="0.09" stop-color="#FD62CD"/>
<stop offset="0.11" stop-color="#C449AB"/>
<stop offset="0.13" stop-color="#93348E"/>
<stop offset="0.15" stop-color="#6C2377"/>
<stop offset="0.17" stop-color="#4C1664"/>
<stop offset="0.19" stop-color="#360C57"/>
<stop offset="0.21" stop-color="#29064F"/>
<stop offset="0.23" stop-color="#25054D"/>
<stop offset="0.27" stop-color="#1C033C"/>
<stop offset="0.34" stop-color="#120226"/>
<stop offset="0.42" stop-color="#0A0114"/>
<stop offset="0.51" stop-color="#040008"/>
<stop offset="0.65" stop-color="#000001"/>
<stop offset="1"/>
</radialGradient>
<radialGradient id="paint2_radial_3438_12004" cx="0" cy="0" r="1" gradientUnits="userSpaceOnUse" gradientTransform="translate(41.3473 77.0024) rotate(20.25) scale(4.39796 4.39795)">
<stop offset="0.09" stop-color="#FD62CD"/>
<stop offset="0.11" stop-color="#C449AB"/>
<stop offset="0.13" stop-color="#93348E"/>
<stop offset="0.15" stop-color="#6C2377"/>
<stop offset="0.17" stop-color="#4C1664"/>
<stop offset="0.19" stop-color="#360C57"/>
<stop offset="0.21" stop-color="#29064F"/>
<stop offset="0.23" stop-color="#25054D"/>
<stop offset="0.27" stop-color="#1C033C"/>
<stop offset="0.34" stop-color="#120226"/>
<stop offset="0.42" stop-color="#0A0114"/>
<stop offset="0.51" stop-color="#040008"/>
<stop offset="0.65" stop-color="#000001"/>
<stop offset="1"/>
</radialGradient>
<radialGradient id="paint3_radial_3438_12004" cx="0" cy="0" r="1" gradientUnits="userSpaceOnUse" gradientTransform="translate(164.677 49.2622) rotate(165.6) scale(0.422881)">
<stop offset="0.07" stop-color="#FEE2A6"/>
<stop offset="0.14" stop-color="#797782"/>
<stop offset="0.19" stop-color="#1B2B69"/>
<stop offset="0.26" stop-color="#17255B"/>
<stop offset="0.49" stop-color="#0D1533"/>
<stop offset="0.69" stop-color="#060917"/>
<stop offset="0.87" stop-color="#010206"/>
<stop offset="1"/>
</radialGradient>
<radialGradient id="paint4_radial_3438_12004" cx="0" cy="0" r="1" gradientUnits="userSpaceOnUse" gradientTransform="translate(163.894 66.1066) rotate(165.6) scale(5.09994 5.09995)">
<stop offset="0.07" stop-color="#FEE2A6"/>
<stop offset="0.14" stop-color="#797782"/>
<stop offset="0.19" stop-color="#1B2B69"/>
<stop offset="0.26" stop-color="#17255B"/>
<stop offset="0.49" stop-color="#0D1533"/>
<stop offset="0.69" stop-color="#060917"/>
<stop offset="0.87" stop-color="#010206"/>
<stop offset="1"/>
</radialGradient>
<radialGradient id="paint5_radial_3438_12004" cx="0" cy="0" r="1" gradientUnits="userSpaceOnUse" gradientTransform="translate(164.877 37.8679) rotate(165.6) scale(3.61986)">
<stop offset="0.07" stop-color="#FEE2A6"/>
<stop offset="0.14" stop-color="#797782"/>
<stop offset="0.19" stop-color="#1B2B69"/>
<stop offset="0.26" stop-color="#17255B"/>
<stop offset="0.49" stop-color="#0D1533"/>
<stop offset="0.69" stop-color="#060917"/>
<stop offset="0.87" stop-color="#010206"/>
<stop offset="1"/>
</radialGradient>
<radialGradient id="paint6_radial_3438_12004" cx="0" cy="0" r="1" gradientUnits="userSpaceOnUse" gradientTransform="translate(154.654 59.2405) rotate(165.6) scale(0.422881)">
<stop offset="0.07" stop-color="#FEE2A6"/>
<stop offset="0.14" stop-color="#797782"/>
<stop offset="0.19" stop-color="#1B2B69"/>
<stop offset="0.26" stop-color="#17255B"/>
<stop offset="0.49" stop-color="#0D1533"/>
<stop offset="0.69" stop-color="#060917"/>
<stop offset="0.87" stop-color="#010206"/>
<stop offset="1"/>
</radialGradient>
<radialGradient id="paint7_radial_3438_12004" cx="0" cy="0" r="1" gradientUnits="userSpaceOnUse" gradientTransform="translate(153.872 76.0839) rotate(165.6) scale(5.09994)">
<stop offset="0.07" stop-color="#FEE2A6"/>
<stop offset="0.14" stop-color="#797782"/>
<stop offset="0.19" stop-color="#1B2B69"/>
<stop offset="0.26" stop-color="#17255B"/>
<stop offset="0.49" stop-color="#0D1533"/>
<stop offset="0.69" stop-color="#060917"/>
<stop offset="0.87" stop-color="#010206"/>
<stop offset="1"/>
</radialGradient>
<radialGradient id="paint8_radial_3438_12004" cx="0" cy="0" r="1" gradientUnits="userSpaceOnUse" gradientTransform="translate(5.09994 36.9769) scale(5.09994)">
<stop offset="0.07" stop-color="#FEE2A6"/>
<stop offset="0.14" stop-color="#797782"/>
<stop offset="0.19" stop-color="#1B2B69"/>
<stop offset="0.26" stop-color="#17255B"/>
<stop offset="0.49" stop-color="#0D1533"/>
<stop offset="0.69" stop-color="#060917"/>
<stop offset="0.87" stop-color="#010206"/>
<stop offset="1"/>
</radialGradient>
<radialGradient id="paint9_radial_3438_12004" cx="0" cy="0" r="1" gradientUnits="userSpaceOnUse" gradientTransform="translate(12.3386 45.9338) scale(3.61986)">
<stop offset="0.07" stop-color="#FEE2A6"/>
<stop offset="0.14" stop-color="#797782"/>
<stop offset="0.19" stop-color="#1B2B69"/>
<stop offset="0.26" stop-color="#17255B"/>
<stop offset="0.49" stop-color="#0D1533"/>
<stop offset="0.69" stop-color="#060917"/>
<stop offset="0.87" stop-color="#010206"/>
<stop offset="1"/>
</radialGradient>
<radialGradient id="paint10_radial_3438_12004" cx="0" cy="0" r="1" gradientUnits="userSpaceOnUse" gradientTransform="translate(17.2874 29.8045) scale(5.09994)">
<stop offset="0.07" stop-color="#FEE2A6"/>
<stop offset="0.14" stop-color="#797782"/>
<stop offset="0.19" stop-color="#1B2B69"/>
<stop offset="0.26" stop-color="#17255B"/>
<stop offset="0.49" stop-color="#0D1533"/>
<stop offset="0.69" stop-color="#060917"/>
<stop offset="0.87" stop-color="#010206"/>
<stop offset="1"/>
</radialGradient>
<linearGradient id="paint11_linear_3438_12004" x1="77.0167" y1="46.6868" x2="26.1864" y2="76.2631" gradientUnits="userSpaceOnUse">
<stop stop-color="#01C3FD"/>
<stop offset="0.26" stop-color="#01C3FD"/>
<stop offset="0.59" stop-color="#01C3FD"/>
<stop offset="0.67" stop-color="#01C3FD"/>
<stop offset="0.94" stop-color="#01C3FD"/>
<stop offset="0.96" stop-color="#01C3FD"/>
<stop offset="0.98" stop-color="#01C3FD"/>
</linearGradient>
<linearGradient id="paint12_linear_3438_12004" x1="53.7322" y1="31.4123" x2="79.215" y2="73.6666" gradientUnits="userSpaceOnUse">
<stop stop-color="#01C3FD"/>
<stop offset="0.01" stop-color="#01C3FD"/>
<stop offset="0.02" stop-color="#01C3FD"/>
<stop offset="0.03" stop-color="#01C3FD"/>
<stop offset="0.05" stop-color="#01C3FD"/>
<stop offset="0.06" stop-color="#0080A7"/>
<stop offset="0.07" stop-color="#03A2D2"/>
<stop offset="0.09" stop-color="#049DCB"/>
<stop offset="0.12" stop-color="#01C3FD"/>
<stop offset="0.16" stop-color="#01C3FD"/>
<stop offset="0.17" stop-color="#15BFFD"/>
<stop offset="0.2" stop-color="#15BFFD"/>
<stop offset="0.25" stop-color="#15BFFD"/>
<stop offset="0.3" stop-color="#01C3FD"/>
<stop offset="0.39" stop-color="#01C3FD"/>
<stop offset="0.48" stop-color="#01C3FD"/>
<stop offset="0.56" stop-color="#01C3FD"/>
<stop offset="0.63" stop-color="#01C3FD"/>
<stop offset="0.65" stop-color="#01C3FD"/>
<stop offset="0.66" stop-color="#01C3FD"/>
<stop offset="0.67" stop-color="#01C3FD"/>
<stop offset="0.78" stop-color="#D3EFF9"/>
<stop offset="0.8" stop-color="#01C3FD"/>
<stop offset="0.86" stop-color="#01C3FD"/>
<stop offset="0.91" stop-color="#01C3FD"/>
<stop offset="0.94" stop-color="#01C3FD"/>
<stop offset="0.96" stop-color="#0680A5"/>
<stop offset="0.98" stop-color="#019DCC"/>
</linearGradient>
<radialGradient id="paint13_radial_3438_12004" cx="0" cy="0" r="1" gradientUnits="userSpaceOnUse" gradientTransform="translate(66.5269 45.9283) rotate(-22.34) scale(9.78548 4.40346)">
<stop stop-color="#972A74"/>
<stop offset="0.04" stop-color="#8A266A"/>
<stop offset="0.19" stop-color="#601A49"/>
<stop offset="0.35" stop-color="#3D112F"/>
<stop offset="0.51" stop-color="#22091A"/>
<stop offset="0.67" stop-color="#0F040B"/>
<stop offset="0.83" stop-color="#030102"/>
<stop offset="1"/>
</radialGradient>
<radialGradient id="paint14_radial_3438_12004" cx="0" cy="0" r="1" gradientUnits="userSpaceOnUse" gradientTransform="translate(79.2804 61.4675) rotate(-29.03) scale(6.91833 2.28305)">
<stop stop-color="#4B61B8"/>
<stop offset="0.13" stop-color="#38488A"/>
<stop offset="0.27" stop-color="#273260"/>
<stop offset="0.41" stop-color="#19203D"/>
<stop offset="0.55" stop-color="#0E1222"/>
<stop offset="0.7" stop-color="#06080F"/>
<stop offset="0.84" stop-color="#010103"/>
<stop offset="1"/>
</radialGradient>
<radialGradient id="paint15_radial_3438_12004" cx="0" cy="0" r="1" gradientUnits="userSpaceOnUse" gradientTransform="translate(42.7795 41.274) scale(2.86714 2.86713)">
<stop stop-color="white"/>
<stop offset="1"/>
</radialGradient>
<radialGradient id="paint16_radial_3438_12004" cx="0" cy="0" r="1" gradientUnits="userSpaceOnUse" gradientTransform="translate(61.7528 49.0377) scale(17.4904 17.4904)">
<stop stop-color="white"/>
<stop offset="1" stop-color="#C2B0B0"/>
</radialGradient>
</defs>
</svg>
