<svg width="172" height="125" viewBox="0 0 172 125" fill="none" xmlns="http://www.w3.org/2000/svg">
<path d="M169.176 69.1283L116.45 122.163C113.86 124.767 110.024 125.669 106.554 124.49L6.54396 90.4795C2.18496 88.9987 -0.512489 84.6247 0.0816808 80.0366C0.82045 74.322 1.19904 68.4936 1.19904 62.5754C1.19904 56.6571 0.817821 50.8287 0.0816808 45.1141C-0.50986 40.526 2.18759 36.1521 6.54396 34.6712L106.998 0.510246C110.469 -0.669176 114.304 0.232576 116.894 2.83735L169.178 55.4274C172.941 59.2116 172.941 65.3467 169.178 69.131L169.176 69.1283Z" fill="url(#paint0_linear_3157_247)"/>
<defs>
<linearGradient id="paint0_linear_3157_247" x1="179" y1="50.1366" x2="1.03036e-06" y2="50.1366" gradientUnits="userSpaceOnUse">
<stop stop-color="#6275E1"/>
<stop offset="1" stop-color="#5AD9FF"/>
</linearGradient>
</defs>
</svg>
