<svg width="36" height="37" viewBox="0 0 36 37" fill="none" xmlns="http://www.w3.org/2000/svg">
<path d="M32.6126 4.71875H15.7376C14.4967 4.71875 13.4876 5.72787 13.4876 6.96875V17.2288C12.4622 16.8479 11.6763 15.818 10.503 15.9688C14.1828 13.0269 12.0977 6.97325 7.32822 6.96875C2.55822 6.97381 0.473591 13.028 4.15347 15.9688H3.39072C2.16672 15.9637 1.12947 16.9908 1.14072 18.2188V22.7188C1.14072 23.3392 1.64528 23.8438 2.26572 23.8438H3.39072V24.9688C3.39072 25.3833 3.61853 25.7422 3.95322 25.9374V30.5938C3.95322 31.5241 4.71034 32.2812 5.64072 32.2812H9.01572C9.94609 32.2812 10.7032 31.5241 10.7032 30.5938V25.9374C11.0379 25.7422 11.2657 25.3833 11.2657 24.9688V19.8815C11.9758 20.2736 12.7193 20.6017 13.4876 20.8619V23.8438C13.4876 25.0846 14.4967 26.0938 15.7376 26.0938H23.6126V27.7812C23.6126 27.8161 23.6267 27.8459 23.6323 27.8786C21.8531 28.4917 22.2744 31.1377 24.1751 31.1562C26.0763 31.1377 26.4971 28.4917 24.7179 27.8786C24.7235 27.8459 24.7376 27.8161 24.7376 27.7812V26.0938H32.6126C33.8535 26.0938 34.8626 25.0846 34.8626 23.8438V6.96875C34.8626 5.72787 33.8535 4.71875 32.6126 4.71875ZM3.39072 12.0312C3.39072 9.86 5.15697 8.09375 7.32822 8.09375C12.5448 8.29175 12.5432 15.7719 7.32822 15.9688C5.15697 15.9688 3.39072 14.2025 3.39072 12.0312ZM9.57822 30.5938C9.57822 30.7429 9.51895 30.886 9.41346 30.9915C9.30797 31.097 9.1649 31.1562 9.01572 31.1562H8.45322V28.3438C8.45322 28.1946 8.39395 28.0515 8.28846 27.946C8.18297 27.8405 8.0399 27.7812 7.89072 27.7812C7.74153 27.7812 7.59846 27.8405 7.49297 27.946C7.38748 28.0515 7.32822 28.1946 7.32822 28.3438V31.1562H5.64072C5.49153 31.1562 5.34846 31.097 5.24297 30.9915C5.13748 30.886 5.07822 30.7429 5.07822 30.5938V26.0938H9.57822V30.5938ZM14.0799 19.8764C12.9957 19.5298 11.963 19.0388 11.0098 18.4167C10.925 18.3612 10.8267 18.3296 10.7254 18.3254C10.6241 18.3212 10.5236 18.3445 10.4344 18.3928C10.3453 18.4412 10.2709 18.5127 10.2192 18.5999C10.1675 18.6872 10.1404 18.7867 10.1407 18.8881V24.9688H4.51572V19.9062C4.51572 19.7571 4.45645 19.614 4.35096 19.5085C4.24547 19.403 4.1024 19.3438 3.95322 19.3438C3.80403 19.3438 3.66096 19.403 3.55547 19.5085C3.44998 19.614 3.39072 19.7571 3.39072 19.9062V22.7188H2.26572V18.2188C2.25447 17.618 2.77928 17.0938 3.39072 17.0938H10.872C10.989 17.0938 11.1043 17.1303 11.1982 17.1978C13.1467 18.5759 15.5053 19.3522 17.9032 19.3438C18.248 19.2903 18.464 19.5687 18.7323 19.8612C18.7953 20.1824 18.4792 20.462 18.1451 20.4688C16.767 20.489 15.395 20.2961 14.0799 19.8764ZM24.7376 29.4688C24.7247 30.2079 23.6255 30.2079 23.6126 29.4688C23.6255 28.7296 24.7247 28.7296 24.7376 29.4688ZM33.7376 23.8438C33.7376 24.4642 33.233 24.9688 32.6126 24.9688H15.7376C15.1177 24.9688 14.6126 24.4642 14.6126 23.8438V21.1893C15.6892 21.4548 16.7917 21.5938 17.9032 21.5938C18.72 21.6658 19.5305 21.1961 19.7792 20.4496C20.5335 20.5992 21.2169 20.0907 21.4948 19.7234C21.9167 19.2087 22.3037 19.2087 22.7255 19.7234C23.4793 20.7118 24.8647 20.7106 25.6168 19.7234C26.0392 19.2082 26.4279 19.2093 26.8503 19.7234C27.5996 20.7084 28.9935 20.7117 29.7444 19.7246C29.993 19.4534 30.1044 19.3438 30.3632 19.3438C31.0989 19.3325 31.1045 18.2311 30.3632 18.2188C29.5993 18.2188 29.2044 18.6496 28.9153 18.9635C28.6678 19.2335 28.5564 19.3438 28.2977 19.3438C28.0389 19.3438 27.9281 19.2341 27.6789 18.9629C27.3909 18.6491 26.996 18.2188 26.2333 18.2188C25.4705 18.2188 25.0745 18.6496 24.7877 18.9635C24.5396 19.2335 24.4288 19.3438 24.1712 19.3438C23.9135 19.3438 23.8027 19.2341 23.5552 18.9635C23.2672 18.6496 22.8723 18.2188 22.1096 18.2188C21.3468 18.2188 20.9531 18.6496 20.6651 18.9635C20.358 19.3297 20.0868 19.4579 19.7297 19.2487C19.4529 18.5186 18.6733 18.1518 17.9032 18.2193C16.7782 18.2148 15.6645 18.0478 14.6126 17.6816V6.96875C14.6126 6.34831 15.1177 5.84375 15.7376 5.84375H32.6126C33.233 5.84375 33.7376 6.34831 33.7376 6.96875V23.8438Z" fill="#26DDFF"/>
<path d="M30.3668 10.3438C29.6035 10.3438 29.2081 10.7741 28.9195 11.0885C28.672 11.3585 28.5607 11.4688 28.3019 11.4688C28.0432 11.4688 27.9323 11.3591 27.6832 11.0885C27.3952 10.7741 27.0003 10.3438 26.2375 10.3438C25.4748 10.3438 25.0788 10.7746 24.7919 11.0891C24.3689 11.6038 23.9819 11.6038 23.5595 11.0891C22.8108 10.1024 21.4186 10.1013 20.6693 11.0891C20.2463 11.6043 19.8599 11.6038 19.4375 11.0891C19.1495 10.7741 18.7546 10.3438 17.9918 10.3438C17.2561 10.355 17.2493 11.4558 17.9918 11.4688C18.2495 11.4688 18.3597 11.5784 18.6078 11.8484C18.8958 12.1634 19.2907 12.5938 20.0534 12.5938C20.8162 12.5938 21.211 12.1629 21.499 11.8484C21.7465 11.5784 21.8568 11.4688 22.1138 11.4688C22.3715 11.4688 22.4823 11.5784 22.7298 11.8484C23.0178 12.1634 23.4127 12.5938 24.1754 12.5938C24.9382 12.5938 25.333 12.1634 25.621 11.849C26.0435 11.3332 26.4322 11.3343 26.8546 11.849C27.601 12.8328 28.9988 12.8373 29.7487 11.849C29.9973 11.579 30.1087 11.4688 30.3674 11.4688C31.102 11.4575 31.1099 10.3561 30.3674 10.3438H30.3668ZM30.3668 14.2812C29.6035 14.2812 29.2081 14.7116 28.9195 15.026C28.672 15.296 28.5607 15.4062 28.3019 15.4062C28.0432 15.4062 27.9323 15.2966 27.6832 15.026C27.3952 14.7116 27.0003 14.2812 26.2375 14.2812C25.4748 14.2812 25.0788 14.7121 24.7919 15.0266C24.3689 15.5413 23.9819 15.5413 23.5595 15.0266C22.8108 14.0399 21.4186 14.0388 20.6693 15.0266C20.2463 15.5418 19.8599 15.5413 19.4375 15.0266C19.1495 14.7116 18.7546 14.2812 17.9918 14.2812C17.2561 14.2925 17.2493 15.3933 17.9918 15.4062C18.2495 15.4062 18.3597 15.5159 18.6078 15.7859C18.8958 16.1009 19.2907 16.5312 20.0534 16.5312C20.8162 16.5312 21.211 16.1004 21.499 15.7859C21.7465 15.5159 21.8568 15.4062 22.1138 15.4062C22.3715 15.4062 22.4823 15.5159 22.7298 15.7859C23.0178 16.1009 23.4127 16.5312 24.1754 16.5312C24.9382 16.5312 25.333 16.1004 25.621 15.7865C26.0435 15.2707 26.4322 15.2718 26.8546 15.7865C27.601 16.7698 28.9988 16.7754 29.7487 15.7865C29.9973 15.5165 30.1087 15.4062 30.3674 15.4062C31.102 15.395 31.1099 14.2936 30.3674 14.2812H30.3668Z" fill="#26DDFF"/>
</svg>
