<svg width="41" height="47" viewBox="0 0 41 47" fill="none" xmlns="http://www.w3.org/2000/svg">
<path d="M16.9572 0.565397C17.7101 -0.188057 18.9312 -0.18852 19.6845 0.564336L25.4793 6.35449C25.8415 6.71638 26.0448 7.20745 26.0446 7.71947C26.0444 8.23147 25.8407 8.72239 25.4782 9.08401L19.6836 14.8653C18.9295 15.6176 17.7083 15.6162 16.9562 14.8621C16.2039 14.1081 16.2052 12.887 16.9593 12.1347L19.4371 9.66266C10.7612 10.0863 3.85714 17.2547 3.85714 26.0357C3.85714 35.0892 11.1965 42.4286 20.25 42.4286C29.0113 42.4286 36.1684 35.5544 36.6201 26.9065C36.6756 25.8427 37.583 25.0255 38.6466 25.0811C39.7104 25.1366 40.5276 26.044 40.472 27.1076C39.9139 37.794 31.0743 46.2857 20.25 46.2857C9.06623 46.2857 0 37.2195 0 26.0357C0 15.1138 8.64661 6.21144 19.468 5.80054L16.9583 3.2928C16.2048 2.53995 16.2044 1.31883 16.9572 0.565397Z" fill="url(#paint0_linear_3030_97)"/>
<path d="M28.3626 19.8505C29.1157 20.6036 29.1157 21.8248 28.3626 22.5779L18.7197 32.2207C18.3581 32.5823 17.8675 32.7856 17.356 32.7856C16.8446 32.7856 16.3539 32.5823 15.9923 32.2207L12.1352 28.3636C11.382 27.6105 11.382 26.3893 12.1352 25.6362C12.8883 24.8831 14.1095 24.8831 14.8626 25.6362L17.356 28.1296L25.6352 19.8505C26.3883 19.0974 27.6095 19.0974 28.3626 19.8505Z" fill="url(#paint1_linear_3030_97)"/>
<defs>
<linearGradient id="paint0_linear_3030_97" x1="20.2374" y1="0" x2="20.2374" y2="46.2857" gradientUnits="userSpaceOnUse">
<stop stop-color="white"/>
<stop offset="1" stop-color="#15BFFD"/>
</linearGradient>
<linearGradient id="paint1_linear_3030_97" x1="20.2489" y1="19.2856" x2="20.2489" y2="32.7856" gradientUnits="userSpaceOnUse">
<stop stop-color="white"/>
<stop offset="1" stop-color="#15BFFD"/>
</linearGradient>
</defs>
</svg>
