<svg width="55" height="54" viewBox="0 0 55 54" fill="none" xmlns="http://www.w3.org/2000/svg">
<path d="M26.4023 0.21375C25.7091 0.42375 25.2872 0.79875 21.068 5.04375C18.5667 7.57875 16.3667 9.84375 16.216 10.0988C16.0201 10.3988 15.9297 10.8188 15.9297 11.3888C15.9297 13.1287 17.3311 14.1938 19.1996 13.8488C19.6817 13.7587 20.1639 13.3688 22.1831 11.3588C23.5242 10.0538 24.6543 8.97375 24.7146 8.97375C24.7749 8.97375 24.8201 13.3837 24.8201 18.7537C24.8201 27.9788 24.8502 28.5788 25.1064 29.1638C25.5132 30.0488 26.1913 30.4838 27.3064 30.5438C28.4667 30.6038 29.2352 30.1838 29.7475 29.2388L30.0941 28.5788V18.7688C30.0941 13.3838 30.1393 8.97375 30.2146 8.97375C30.2749 8.97375 31.3448 9.99375 32.5804 11.2388C33.8311 12.4838 35.0215 13.5938 35.2475 13.7138C35.4735 13.8338 36.016 13.9238 36.468 13.9238C37.4023 13.9238 38.0954 13.5488 38.6379 12.7388C39.09 12.0638 39.1201 10.7587 38.6982 10.0988C38.5324 9.84375 36.3475 7.57875 33.8311 5.04375C29.4913 0.67875 29.2201 0.43875 28.4516 0.21375C27.4722 -0.07125 27.3817 -0.07125 26.4023 0.21375Z" fill="url(#paint0_linear_2461_2203)"/>
<path d="M7.67443 28.7892C4.87169 29.1492 2.49087 30.1242 1.16484 31.4592C-0.387215 33.0042 -0.372146 34.3392 1.24018 35.9292C4.84155 39.4392 15.0731 39.5592 18.9909 36.1092C22.321 33.2142 19.1265 29.5992 12.5416 28.7892C11.0196 28.6092 9.09087 28.6092 7.67443 28.7892Z" fill="url(#paint1_linear_2461_2203)"/>
<path d="M42.2303 28.7891C39.6234 29.1191 37.2577 30.0191 35.9316 31.1891C34.1686 32.7191 34.1686 34.5791 35.9316 36.1091C39.9097 39.6041 50.1563 39.4391 53.7577 35.8391C55.2193 34.3841 55.2796 33.0941 53.9686 31.6391C51.9344 29.4041 46.9618 28.2041 42.2303 28.7891Z" fill="url(#paint2_linear_2461_2203)"/>
<path d="M24.1302 36.6341C20.0165 37.4141 17.2891 39.2891 17.2891 41.3741C17.2891 43.2191 19.6247 45.0341 23.1055 45.9041C24.2808 46.2041 24.8384 46.2491 27.4603 46.2491C30.926 46.2491 32.1918 46.0091 34.3918 44.9891C38.5959 43.0241 38.6863 39.8891 34.6028 37.8341C32.674 36.8741 31.0315 36.5441 27.9123 36.4841C26.074 36.4541 24.8534 36.4991 24.1302 36.6341Z" fill="url(#paint3_linear_2461_2203)"/>
<path d="M0.0322924 37.0837C-0.118393 37.8337 0.439142 38.9887 1.35832 39.8137C4.10079 42.2587 10.2789 43.1137 15.2816 41.7337L16.1857 41.4787L16.2761 40.6237C16.3063 40.1587 16.4871 39.4987 16.6528 39.1687L16.9693 38.5537L15.8693 38.9137C10.9117 40.4737 3.85969 39.6337 0.906265 37.1137C0.574758 36.8137 0.243251 36.5737 0.198046 36.5737C0.15284 36.5737 0.0774979 36.7987 0.0322924 37.0837Z" fill="url(#paint4_linear_2461_2203)"/>
<path d="M53.9782 37.1141C51.1453 39.6191 44.0179 40.4741 39.1056 38.9291L37.9453 38.5541L38.2617 39.1691C38.4275 39.4991 38.6083 40.1591 38.6385 40.6391L38.7289 41.4941L39.6481 41.7341C41.3357 42.1691 41.9686 42.2741 43.6864 42.3641C49.0056 42.6491 53.9933 40.7291 54.7919 38.0891C54.9727 37.4891 54.8974 36.5741 54.6864 36.5741C54.6261 36.5891 54.3097 36.8291 53.9782 37.1141Z" fill="url(#paint5_linear_2461_2203)"/>
<path d="M0.0326039 40.7589C-0.118081 41.4789 0.258631 42.3939 1.05726 43.2789C3.54356 45.9789 10.3847 46.9689 15.6737 45.3939C16.2011 45.2289 16.2312 45.1989 16.2312 44.5989C16.2312 44.2539 16.3367 43.6539 16.4723 43.2639C16.6079 42.8739 16.6833 42.5289 16.6532 42.4989C16.623 42.4689 16.186 42.5589 15.6737 42.7239C13.4888 43.3989 10.234 43.6389 7.56685 43.3089C5.02028 42.9939 2.20247 41.9589 0.891508 40.8339C0.560001 40.5489 0.258631 40.3239 0.213426 40.3239C0.16822 40.3239 0.0928779 40.5189 0.0326039 40.7589Z" fill="url(#paint6_linear_2461_2203)"/>
<path d="M54.3421 40.5789C53.9804 40.9989 52.5941 41.8089 51.4037 42.2889C49.2941 43.1289 47.8174 43.3839 44.7886 43.3839C42.0612 43.3989 40.5544 43.2039 38.9571 42.6339C38.2338 42.3789 38.1133 42.5589 38.4599 43.3689C38.5804 43.6689 38.6859 44.2089 38.6859 44.5689C38.6859 45.1989 38.716 45.2289 39.2585 45.3939C44.5475 46.9689 51.3736 45.9789 53.8599 43.2639C54.6585 42.3939 55.0352 41.4639 54.8845 40.7589C54.7791 40.2639 54.6284 40.2189 54.3421 40.5789Z" fill="url(#paint7_linear_2461_2203)"/>
<path d="M0.033953 44.5092C-0.222211 45.6942 0.998336 47.3892 2.77642 48.3192C6.03121 50.0142 10.9134 50.4042 15.0723 49.2942L16.2326 48.9942V48.4242C16.2326 48.1092 16.3381 47.5092 16.4887 47.0892C16.6244 46.6692 16.6997 46.2942 16.6696 46.2642C16.6394 46.2192 16.0668 46.3542 15.4038 46.5492C11.9079 47.5542 6.81477 47.3592 3.62025 46.1142C2.52025 45.6942 1.04354 44.8242 0.636693 44.3742C0.275049 43.9692 0.154501 43.9992 0.033953 44.5092Z" fill="url(#paint8_linear_2461_2203)"/>
<path d="M54.0379 44.5692C52.8626 45.6042 50.316 46.5942 47.8146 46.9992C45.253 47.4192 41.5461 47.1792 39.2407 46.4742C38.7283 46.3092 38.2913 46.2192 38.2461 46.2642C38.2009 46.2942 38.2913 46.6542 38.427 47.0442C38.5626 47.4342 38.6831 48.0342 38.6831 48.3642V48.9942L39.8585 49.2942C45.0571 50.6892 51.4612 49.6392 53.8722 46.9992C54.6557 46.1442 55.0324 45.2142 54.8818 44.5092C54.8215 44.2692 54.7311 44.0742 54.6859 44.0742C54.6256 44.0892 54.3393 44.2992 54.0379 44.5692Z" fill="url(#paint9_linear_2461_2203)"/>
<path d="M17.374 44.4639C17.1932 44.9139 17.2836 45.6339 17.585 46.2639C18.2631 47.6439 20.222 48.8889 22.8439 49.5939C24.185 49.9539 24.5165 49.9839 27.4549 49.9839C30.3932 49.9839 30.7247 49.9539 32.0658 49.5939C35.396 48.6939 37.611 46.9389 37.6261 45.1689C37.6261 44.2389 37.5055 44.1789 36.8425 44.7339C36.0891 45.3789 34.537 46.1889 33.2562 46.6089C30.7549 47.4039 26.7165 47.6589 23.974 47.1789C21.6535 46.7589 19.1672 45.7389 18.0521 44.7489C17.5699 44.3139 17.4494 44.2689 17.374 44.4639Z" fill="url(#paint10_linear_2461_2203)"/>
<path d="M17.3773 48.214C17.0458 49.054 17.528 50.314 18.5376 51.229C20.5869 53.104 25.2882 54.259 29.1307 53.824C34.1485 53.269 37.6143 51.259 37.6293 48.919C37.6293 47.989 37.5088 47.929 36.8156 48.514C35.9567 49.264 34.0129 50.164 32.265 50.629C30.8636 51.019 30.5773 51.034 27.4581 51.034C24.3389 51.034 24.0526 51.019 22.6513 50.629C20.9033 50.164 18.9595 49.264 18.1006 48.514C17.5882 48.079 17.4526 48.019 17.3773 48.214Z" fill="url(#paint11_linear_2461_2203)"/>
<defs>
<linearGradient id="paint0_linear_2461_2203" x1="29.5" y1="-3" x2="27" y2="64" gradientUnits="userSpaceOnUse">
<stop stop-color="white"/>
<stop offset="1" stop-color="#15BFFD"/>
</linearGradient>
<linearGradient id="paint1_linear_2461_2203" x1="29.5" y1="-3" x2="27" y2="64" gradientUnits="userSpaceOnUse">
<stop stop-color="white"/>
<stop offset="1" stop-color="#15BFFD"/>
</linearGradient>
<linearGradient id="paint2_linear_2461_2203" x1="29.5" y1="-3" x2="27" y2="64" gradientUnits="userSpaceOnUse">
<stop stop-color="white"/>
<stop offset="1" stop-color="#15BFFD"/>
</linearGradient>
<linearGradient id="paint3_linear_2461_2203" x1="29.5" y1="-3" x2="27" y2="64" gradientUnits="userSpaceOnUse">
<stop stop-color="white"/>
<stop offset="1" stop-color="#15BFFD"/>
</linearGradient>
<linearGradient id="paint4_linear_2461_2203" x1="29.5" y1="-3" x2="27" y2="64" gradientUnits="userSpaceOnUse">
<stop stop-color="white"/>
<stop offset="1" stop-color="#15BFFD"/>
</linearGradient>
<linearGradient id="paint5_linear_2461_2203" x1="29.5" y1="-3" x2="27" y2="64" gradientUnits="userSpaceOnUse">
<stop stop-color="white"/>
<stop offset="1" stop-color="#15BFFD"/>
</linearGradient>
<linearGradient id="paint6_linear_2461_2203" x1="29.5" y1="-3" x2="27" y2="64" gradientUnits="userSpaceOnUse">
<stop stop-color="white"/>
<stop offset="1" stop-color="#15BFFD"/>
</linearGradient>
<linearGradient id="paint7_linear_2461_2203" x1="29.5" y1="-3" x2="27" y2="64" gradientUnits="userSpaceOnUse">
<stop stop-color="white"/>
<stop offset="1" stop-color="#15BFFD"/>
</linearGradient>
<linearGradient id="paint8_linear_2461_2203" x1="29.5" y1="-3" x2="27" y2="64" gradientUnits="userSpaceOnUse">
<stop stop-color="white"/>
<stop offset="1" stop-color="#15BFFD"/>
</linearGradient>
<linearGradient id="paint9_linear_2461_2203" x1="29.5" y1="-3" x2="27" y2="64" gradientUnits="userSpaceOnUse">
<stop stop-color="white"/>
<stop offset="1" stop-color="#15BFFD"/>
</linearGradient>
<linearGradient id="paint10_linear_2461_2203" x1="29.5" y1="-3" x2="27" y2="64" gradientUnits="userSpaceOnUse">
<stop stop-color="white"/>
<stop offset="1" stop-color="#15BFFD"/>
</linearGradient>
<linearGradient id="paint11_linear_2461_2203" x1="29.5" y1="-3" x2="27" y2="64" gradientUnits="userSpaceOnUse">
<stop stop-color="white"/>
<stop offset="1" stop-color="#15BFFD"/>
</linearGradient>
</defs>
</svg>
