<svg width="34" height="37" viewBox="0 0 34 37" fill="none" xmlns="http://www.w3.org/2000/svg">
<path d="M17 11.75V18.75M31 15.5387C31 27.0333 22.3058 32.1867 18.6202 33.8549L18.6154 33.8569C18.2278 34.0324 18.0335 34.1204 17.5931 34.196C17.3141 34.244 16.6876 34.244 16.4087 34.196C15.9664 34.1201 15.7701 34.0319 15.3795 33.8549C11.6937 32.1867 3 27.0333 3 15.5387V8.60035C3 6.64016 3 5.65934 3.38148 4.91065C3.71703 4.25207 4.25207 3.71703 4.91065 3.38148C5.65934 3 6.64016 3 8.60035 3H25.4003C27.3605 3 28.3393 3 29.088 3.38148C29.7465 3.71703 30.2834 4.25207 30.6188 4.91065C31 5.6586 31 6.63823 31 8.59459V15.5387ZM17.0871 24V24.175L16.9129 24.1753V24H17.0871Z" stroke="url(#paint0_linear_2813_212)" stroke-width="5" stroke-linecap="round" stroke-linejoin="round"/>
<defs>
<linearGradient id="paint0_linear_2813_212" x1="17" y1="-18.75" x2="17" y2="47.75" gradientUnits="userSpaceOnUse">
<stop stop-color="white"/>
<stop offset="1" stop-color="#15BFFD"/>
</linearGradient>
</defs>
</svg>
