<svg width="38" height="34" viewBox="0 0 38 34" fill="none" xmlns="http://www.w3.org/2000/svg">
<path d="M36.5 16.125V6.6995C36.5 5.31525 36.5 4.624 36.1605 3.91C35.9129 3.43673 35.5773 3.01503 35.1717 2.6675C34.5522 2.1775 34.0343 2.06025 33 1.82225C31.39 1.45475 29.6155 1.25 27.75 1.25C24.3952 1.25 21.331 1.9115 19 3C16.669 4.0885 13.6048 4.75 10.25 4.75C8.3845 4.75 6.61 4.54525 5 4.17775C3.32 3.79275 1.5 4.97575 1.5 6.6995V25.5505C1.5 26.9347 1.5 27.6277 1.8395 28.34C2.032 28.7477 2.47475 29.3025 2.82825 29.5825C3.44775 30.0725 3.96575 30.1898 5 30.4278C6.61 30.7953 8.3845 31 10.25 31C12.8207 31 15.22 30.6115 17.25 29.9413M22.5 29.25C22.5 29.25 24.25 29.25 26 32.75C26 32.75 31.5598 24 36.5 22.25" stroke="url(#paint0_linear_2813_1598)" stroke-width="1.5" stroke-linecap="round" stroke-linejoin="round"/>
<path d="M7.625 17.875V17.8907M30.375 14.361V14.3785M23.375 16.125C23.375 17.2853 22.9141 18.3981 22.0936 19.2186C21.2731 20.0391 20.1603 20.5 19 20.5C17.8397 20.5 16.7269 20.0391 15.9064 19.2186C15.0859 18.3981 14.625 17.2853 14.625 16.125C14.625 14.9647 15.0859 13.8519 15.9064 13.0314C16.7269 12.2109 17.8397 11.75 19 11.75C20.1603 11.75 21.2731 12.2109 22.0936 13.0314C22.9141 13.8519 23.375 14.9647 23.375 16.125Z" stroke="url(#paint1_linear_2813_1598)" stroke-width="1.5" stroke-linecap="round" stroke-linejoin="round"/>
<defs>
<linearGradient id="paint0_linear_2813_1598" x1="19" y1="1.25" x2="19" y2="32.75" gradientUnits="userSpaceOnUse">
<stop stop-color="white"/>
<stop offset="1" stop-color="#15BFFD"/>
</linearGradient>
<linearGradient id="paint1_linear_2813_1598" x1="19" y1="11.75" x2="19" y2="20.5" gradientUnits="userSpaceOnUse">
<stop stop-color="white"/>
<stop offset="1" stop-color="#15BFFD"/>
</linearGradient>
</defs>
</svg>
