<svg width="42" height="42" viewBox="0 0 42 42" fill="none" xmlns="http://www.w3.org/2000/svg">
<path d="M13.125 28.875C14.5174 28.875 15.8527 28.3219 16.8373 27.3373C17.8219 26.3527 18.375 25.0174 18.375 23.625C18.375 22.2326 17.8219 20.8973 16.8373 19.9127C15.8527 18.9281 14.5174 18.375 13.125 18.375C11.7326 18.375 10.3973 18.9281 9.41269 19.9127C8.42812 20.8973 7.875 22.2326 7.875 23.625C7.875 25.0174 8.42812 26.3527 9.41269 27.3373C10.3973 28.3219 11.7326 28.875 13.125 28.875ZM13.125 21C13.8212 21 14.4889 21.2766 14.9812 21.7688C15.4734 22.2611 15.75 22.9288 15.75 23.625C15.75 24.3212 15.4734 24.9889 14.9812 25.4812C14.4889 25.9734 13.8212 26.25 13.125 26.25C12.4288 26.25 11.7611 25.9734 11.2688 25.4812C10.7766 24.9889 10.5 24.3212 10.5 23.625C10.5 22.9288 10.7766 22.2611 11.2688 21.7688C11.7611 21.2766 12.4288 21 13.125 21ZM19.6875 31.5H6.5625C5.7007 31.5 4.84734 31.6697 4.05114 31.9995C3.25494 32.3293 2.5315 32.8127 1.92211 33.4221C1.31273 34.0315 0.829339 34.7549 0.499542 35.5511C0.169746 36.3473 0 37.2007 0 38.0625C0 39.1068 0.414845 40.1083 1.15327 40.8467C1.89169 41.5852 2.89321 42 3.9375 42H22.3125C23.3568 42 24.3583 41.5852 25.0967 40.8467C25.8352 40.1083 26.25 39.1068 26.25 38.0625C26.25 36.322 25.5586 34.6528 24.3279 33.4221C23.0972 32.1914 21.428 31.5 19.6875 31.5ZM22.3125 39.375H3.9375C3.5894 39.375 3.25556 39.2367 3.00942 38.9906C2.76328 38.7444 2.625 38.4106 2.625 38.0625C2.625 37.0182 3.03984 36.0167 3.77827 35.2783C4.51669 34.5398 5.51821 34.125 6.5625 34.125H19.6875C20.7318 34.125 21.7333 34.5398 22.4717 35.2783C23.2102 36.0167 23.625 37.0182 23.625 38.0625C23.625 38.4106 23.4867 38.7444 23.2406 38.9906C22.9944 39.2367 22.6606 39.375 22.3125 39.375ZM42 6.5625V19.6875C42 21.428 41.3086 23.0972 40.0779 24.3279C38.8472 25.5586 37.178 26.25 35.4375 26.25H28.1059L23.2418 31.1168C23.1196 31.2386 22.9747 31.3351 22.8153 31.4009C22.6558 31.4666 22.485 31.5003 22.3125 31.5C22.1404 31.5007 21.9699 31.4668 21.8111 31.4002C21.5711 31.301 21.3659 31.1328 21.2215 30.917C21.0771 30.7011 21 30.4472 21 30.1875V24.9375C21 24.5894 21.1383 24.2556 21.3844 24.0094C21.6306 23.7633 21.9644 23.625 22.3125 23.625C22.6606 23.625 22.9944 23.7633 23.2406 24.0094C23.4867 24.2556 23.625 24.5894 23.625 24.9375V27.0191L26.6332 24.0082C26.7554 23.8864 26.9003 23.7899 27.0597 23.7241C27.2192 23.6584 27.39 23.6247 27.5625 23.625H35.4375C36.4818 23.625 37.4833 23.2102 38.2217 22.4717C38.9602 21.7333 39.375 20.7318 39.375 19.6875V6.5625C39.375 5.51821 38.9602 4.51669 38.2217 3.77827C37.4833 3.03984 36.4818 2.625 35.4375 2.625H17.0625C16.0182 2.625 15.0167 3.03984 14.2783 3.77827C13.5398 4.51669 13.125 5.51821 13.125 6.5625V14.4375C13.125 14.7856 12.9867 15.1194 12.7406 15.3656C12.4944 15.6117 12.1606 15.75 11.8125 15.75C11.4644 15.75 11.1306 15.6117 10.8844 15.3656C10.6383 15.1194 10.5 14.7856 10.5 14.4375V6.5625C10.5 4.82202 11.1914 3.15282 12.4221 1.92211C13.6528 0.691404 15.322 0 17.0625 0H35.4375C37.178 0 38.8472 0.691404 40.0779 1.92211C41.3086 3.15282 42 4.82202 42 6.5625ZM24.0082 17.9918L18.7582 12.7418C18.636 12.6198 18.539 12.475 18.4729 12.3155C18.4067 12.1561 18.3727 11.9851 18.3727 11.8125C18.3727 11.6399 18.4067 11.4689 18.4729 11.3095C18.539 11.15 18.636 11.0052 18.7582 10.8832C18.8802 10.761 19.025 10.664 19.1845 10.5979C19.3439 10.5317 19.5149 10.4977 19.6875 10.4977C19.8601 10.4977 20.0311 10.5317 20.1905 10.5979C20.35 10.664 20.4948 10.761 20.6168 10.8832L24.9375 15.2066L31.8832 8.25825C32.0052 8.13602 32.15 8.03905 32.3095 7.97288C32.4689 7.90671 32.6399 7.87265 32.8125 7.87265C32.9851 7.87265 33.1561 7.90671 33.3155 7.97288C33.475 8.03905 33.6198 8.13602 33.7417 8.25825C33.864 8.38017 33.961 8.52501 34.0271 8.68446C34.0933 8.84392 34.1273 9.01486 34.1273 9.1875C34.1273 9.36014 34.0933 9.53108 34.0271 9.69054C33.961 9.84999 33.864 9.99483 33.7417 10.1168L25.8668 17.9918C25.7446 18.1136 25.5997 18.2101 25.4403 18.2759C25.2808 18.3416 25.11 18.3753 24.9375 18.375C24.765 18.3753 24.5942 18.3416 24.4347 18.2759C24.2753 18.2101 24.1304 18.1136 24.0082 17.9918Z" fill="url(#paint0_linear_3030_109)"/>
<defs>
<linearGradient id="paint0_linear_3030_109" x1="21" y1="-11.5" x2="21" y2="51" gradientUnits="userSpaceOnUse">
<stop stop-color="white"/>
<stop offset="1" stop-color="#15BFFD"/>
</linearGradient>
</defs>
</svg>
