<svg width="40" height="42" viewBox="0 0 40 42" fill="none" xmlns="http://www.w3.org/2000/svg">
<path d="M14.8922 0V17.8833C12.3715 18.0333 10.1161 19.5667 9.05473 21.9L0 42H12.7031L13.5158 39.2833C17.0149 38.4333 19.6352 35.7667 20.7463 32.4H40V0H14.8922ZM38.3748 30.75H18.2753C17.7612 33.1667 15.9867 35.3 13.5987 36.2833C13.5158 36.3167 13.4328 36.3333 13.3499 36.3333C13.0846 36.3333 12.8524 36.1833 12.7529 35.9167C12.6202 35.5833 12.7695 35.1667 13.1177 35.0667C15.3565 34.3333 17.0978 31.9833 17.1476 29.4833V28.5333H23.5323C24.5108 28.5333 25.3068 27.7333 25.3068 26.75V26.7167C25.3068 25.7333 24.5108 24.9333 23.5323 24.9333H12.1559C11.791 24.9333 11.5091 24.6333 11.5091 24.2833C11.5091 23.9333 11.8076 23.6333 12.1559 23.6333H16.5174V1.63333H38.3582V30.75H38.3748ZM31.7081 7.85H23.1675V6.21667H31.7081V7.85ZM35.3068 13.1167H19.5854V11.4833H35.3068V13.1167ZM35.3068 17.3833H19.5854V15.75H35.3068V17.3833ZM35.3068 21.65H19.5854V20H35.3068V21.65Z" fill="url(#paint0_linear_3030_108)"/>
<defs>
<linearGradient id="paint0_linear_3030_108" x1="20" y1="-13" x2="20" y2="50" gradientUnits="userSpaceOnUse">
<stop stop-color="white"/>
<stop offset="1" stop-color="#15BFFD"/>
</linearGradient>
</defs>
</svg>
