<svg width="47" height="41" viewBox="0 0 47 41" fill="none" xmlns="http://www.w3.org/2000/svg">
<path d="M20.8648 26.1108L20.8863 26.1819H20.9606H21.8072V27.2957H20.8202V25.9676C20.8357 26.0157 20.8505 26.0634 20.8648 26.1108ZM20.8202 23.9863L21.7518 22.9988C21.7711 22.9794 21.7896 22.9593 21.8072 22.9383V25.9819H21.0345C20.9726 25.783 20.9007 25.5781 20.8202 25.3686V23.9863ZM22.9818 27.6999V27.6999L22.9832 27.6999C23.0525 27.7004 23.1224 27.7011 23.1924 27.7019C23.334 27.7033 23.4765 27.7048 23.6178 27.7048C23.741 27.7048 23.8558 27.7039 23.9656 27.7019V28.6062H22.8518V27.6981C22.8567 27.6981 22.8616 27.6982 22.8666 27.6982L22.8668 27.6982C22.9056 27.6986 22.9437 27.6991 22.9818 27.6999ZM12.0911 35.4057C11.5338 35.3761 10.9935 35.28 10.4791 35.1241C10.4434 35.057 10.4096 34.9873 10.3767 34.9146C10.2048 34.5342 10.1305 34.1678 10.1499 33.8208C10.4414 33.9489 10.7448 34.0534 11.0583 34.1325C11.0753 34.491 11.2089 34.7978 11.4472 35.0317C11.6154 35.1969 11.8327 35.3226 12.0911 35.4057Z" fill="#6275E1" stroke="#6275E1" stroke-width="0.2"/>
<path d="M26.1512 6.05856L26.1513 6.05845C26.6826 5.52238 27.3848 5.22866 28.13 5.22866H28.1511C29.7039 5.23998 30.9723 6.52173 30.9787 8.08583C30.9835 9.63849 29.7082 10.9709 28.2 10.9967H28.1531C26.5992 10.9967 25.3222 9.71377 25.311 8.13257L25.311 8.13246C25.3047 7.34714 25.6023 6.61066 26.1512 6.05856ZM28.1306 10.0953L28.1306 10.0953H28.1333C29.2048 10.0953 30.0629 9.24218 30.0871 8.15855L30.0871 8.15852C30.0992 7.61036 29.9094 7.10146 29.5469 6.72846C29.1881 6.35752 28.6929 6.15172 28.1541 6.14654V6.14654H28.1531H28.1317C27.0681 6.14654 26.2357 6.95526 26.1993 8.02285L26.1993 8.02287C26.1804 8.58227 26.3664 9.1076 26.7301 9.49569L26.7301 9.49575C27.0765 9.86471 27.5529 10.0763 28.0707 10.0936L28.0713 10.0936L28.1306 10.0953Z" fill="#6275E1" stroke="#6275E1" stroke-width="0.2"/>
<path d="M11.4472 35.0317C11.6154 35.1968 11.8327 35.3225 12.0911 35.4057C11.5338 35.3761 10.9935 35.2799 10.4791 35.1241C10.4434 35.057 10.4096 34.9872 10.3767 34.9146C10.2048 34.5342 10.1305 34.1678 10.1499 33.8208C10.4414 33.9489 10.7448 34.0534 11.0583 34.1325C11.0753 34.4909 11.2089 34.7978 11.4472 35.0317Z" fill="#6275E1" stroke="#6275E1" stroke-width="0.2"/>
<path d="M19.3222 28.7018L19.3222 28.7018L19.3221 28.7057C19.301 29.6906 19.0706 30.625 18.6748 31.4654C18.4929 31.8487 18.2787 32.2138 18.0322 32.5544L18.0321 32.5545C16.9965 33.9904 15.4223 35.0117 13.6053 35.3184H13.3733C13.3063 35.3184 13.2409 35.32 13.1756 35.3216L13.1702 35.3217C13.0976 35.3234 13.0263 35.325 12.9551 35.325C12.8531 35.325 12.6984 35.3217 12.5418 35.3011L12.5417 35.3011C12.1217 35.2463 11.8003 35.1004 11.5848 34.8889C11.3977 34.7052 11.2849 34.4667 11.2595 34.18C11.6472 34.2632 12.048 34.3067 12.4596 34.3067C14.0112 34.3067 15.422 33.6883 16.4573 32.6866C16.8041 32.3531 17.1091 31.9744 17.3637 31.5607C17.8781 30.7279 18.1846 29.7543 18.2148 28.7124L18.2148 28.7124V28.7095C18.2148 28.684 18.2152 28.6589 18.2157 28.6326C18.2161 28.6066 18.2165 28.5795 18.2165 28.5514C18.2165 28.2013 18.1847 27.8576 18.1226 27.5239L18.1227 27.5239L18.1219 27.5205C18.119 27.5072 18.1163 27.4937 18.1134 27.4787C18.1106 27.4643 18.1076 27.4485 18.104 27.4325C17.9178 26.5156 17.5054 25.6778 16.9275 24.9793C15.8703 23.6993 14.2603 22.8818 12.4596 22.8818C9.28763 22.8818 6.70269 25.4242 6.70269 28.5514C6.70269 30.8283 8.0302 32.8 9.95362 33.7329C9.91544 34.1406 9.99646 34.5659 10.192 34.9986L10.192 34.9987C10.1982 35.0123 10.2044 35.0258 10.2106 35.0393C7.52539 34.1061 5.59219 31.5504 5.59219 28.5514C5.59219 24.8147 8.6726 21.7746 12.4596 21.7746C14.1005 21.7746 15.6063 22.3442 16.7877 23.2934C17.2129 23.6359 17.5943 24.0254 17.927 24.4555C18.6117 25.3446 19.0803 26.4037 19.2539 27.5582C19.2994 27.8799 19.3254 28.2109 19.3254 28.5481C19.3254 28.6029 19.3253 28.6509 19.3222 28.7018Z" fill="#6275E1" stroke="#6275E1" stroke-width="0.2"/>
<path d="M22.8492 27.3957V27.2957H22.7492H22.0063V26.1819H22.955C23.5352 26.1819 23.963 26.6754 23.963 27.101V28.6062H22.8492V27.3957Z" fill="#6275E1" stroke="#6275E1" stroke-width="0.2"/>
<mask id="path-6-inside-1_2461_1704" fill="white">
<path fill-rule="evenodd" clip-rule="evenodd" d="M45.8071 32.6755C45.4383 32.0894 44.8292 31.6861 44.0883 31.5396C44.0027 31.5231 43.9171 31.5083 43.8117 31.4935L43.1943 31.3914L43.2372 30.988C43.3623 29.7977 43.2931 28.9037 42.549 28.4098C42.0205 28.0591 41.3768 27.8303 40.6968 27.5916C40.3708 27.4763 40.035 27.3578 39.6942 27.2195L39.4242 27.1108V15.1895L39.7847 15.1286C39.9296 15.1056 40.0728 15.0858 40.2128 15.0677C40.4795 15.0331 40.733 15.0002 40.9536 14.9278C41.8855 14.6265 42.5506 13.9136 42.7317 13.0163C42.9161 12.1125 42.5737 11.1806 41.8163 10.527C40.1387 9.07824 38.4034 7.63603 36.7241 6.24321C35.9866 5.63076 35.2506 5.01996 34.5164 4.40587L33.4907 3.54812C32.7482 2.92744 32.0073 2.30841 31.2664 1.68608C29.8473 0.495763 29.3056 0.150024 28.4495 0.150024C28.3474 0.150024 28.2437 0.154963 28.1285 0.164841C27.1489 0.252098 26.2088 0.657102 25.4136 1.33705C24.9214 1.75852 24.3172 2.27713 23.7294 2.7875C21.762 4.49971 19.7139 6.179 17.7334 7.80396C16.6698 8.67653 15.5684 9.58038 14.495 10.476C13.6652 11.1675 13.3524 12.0318 13.5664 13.0476C13.7673 14.0058 14.36 14.6397 15.3247 14.9344C15.5519 15.0019 15.8055 15.0348 16.0722 15.0694C16.2088 15.0858 16.3471 15.1023 16.4871 15.1253L16.8493 15.183V20.6489L16.6912 20.8069C16.1315 20.4958 15.6425 20.3212 15.0152 20.1385V18.0542C15.0152 17.4533 14.5065 16.9446 13.9056 16.9446H11.0113C10.4104 16.9446 9.90161 17.4533 9.90161 18.0542V20.1385C9.27599 20.3196 8.78539 20.4958 8.22727 20.8053L6.83938 19.3301C6.64675 19.1359 6.35371 19.0256 6.03432 19.0256C5.7462 19.0256 5.53382 19.1178 5.31979 19.3301L3.23879 21.4111C3.04452 21.6038 2.93421 21.882 2.93421 22.1701C2.93421 22.4582 3.04452 22.7348 3.23879 22.9291L4.71063 24.4009C4.39947 24.885 4.141 25.4628 3.95661 26.0802H1.96122C1.32737 26.0802 0.851562 26.6169 0.851562 27.0993V29.9953C0.851562 30.5962 1.3603 31.1049 1.96122 31.1049H3.95661C4.141 31.7239 4.39947 32.3018 4.71063 32.7842L3.23879 34.2561C3.04452 34.4487 2.93421 34.7269 2.93421 35.015C2.93421 35.3031 3.04452 35.5797 3.24043 35.7756L5.31156 37.7579C5.50418 38.0443 5.71492 38.1596 6.03267 38.1596C6.38334 38.1596 6.66487 38.0196 6.84432 37.7562L8.22891 36.3733C8.35239 36.426 8.47257 36.4786 8.59111 36.5313C9.0274 36.7239 9.44064 36.9067 9.89998 37.0466V39.1309C9.89998 39.7928 10.4713 40.15 11.0096 40.15H13.9039C14.4406 40.15 15.0136 39.7928 15.0136 39.1309V37.0466C15.4745 36.9067 15.8861 36.7239 16.3224 36.5313C16.3306 36.528 16.3389 36.5247 16.3471 36.5198C15.4663 36.5198 14.5822 36.5198 13.6998 36.5165V38.8362H11.2138V36.5099C11.2138 36.1872 11.0211 35.9502 10.7528 35.9436C9.97899 35.7691 9.18216 35.4217 8.56477 34.9837L8.5269 34.9574L8.4841 34.9442C8.36556 34.9064 8.25196 34.8883 8.14659 34.8883C7.95561 34.8883 7.79592 34.9508 7.67409 35.0727L6.03596 36.7108L4.29741 34.9722L5.93553 33.3341C5.97339 33.2946 6.06888 33.1909 6.12157 33.0509C6.19071 32.8665 6.15944 32.6788 6.03596 32.5488C5.62273 31.8836 5.34119 31.1823 5.15515 30.3426L5.15022 30.3262L5.14528 30.3114C4.98393 29.8405 4.6382 29.7911 4.49826 29.7911H2.16865V27.3957H4.49826C4.67277 27.3957 4.99052 27.3282 5.14528 26.8754L5.15022 26.8606L5.15515 26.8441C5.34449 25.9995 5.62766 25.2916 6.0409 24.6298C6.23023 24.3466 6.18907 24.014 5.93553 23.7621L4.29904 22.1257L6.03432 20.4744L7.67409 22.1141C7.79592 22.236 7.95561 22.2969 8.14659 22.2969C8.25196 22.2969 8.36556 22.2788 8.4841 22.2409L8.52855 22.2277L8.56642 22.1997C9.18381 21.7635 9.98229 21.4144 10.7561 21.2416L10.7725 21.2366L10.789 21.23C11.1726 21.0983 11.2171 20.797 11.2171 20.583V18.2551H13.7031V20.583C13.7031 20.8481 13.8479 21.0769 14.1015 21.2152L14.1361 21.2333L14.1772 21.2432C14.9263 21.4111 15.7182 21.7486 16.464 22.2129L16.4788 22.2212L16.4936 22.2277C16.5842 22.2705 16.6863 22.2936 16.7916 22.2936C16.8114 22.2936 16.8328 22.2919 16.8526 22.2903C17.0057 22.2771 17.1423 22.2146 17.2477 22.1108L18.8875 20.4711L20.6227 22.1224L18.9862 23.7589C18.7343 24.0107 18.6948 24.345 18.8792 24.6248C19.2974 25.2933 19.5789 25.9963 19.7683 26.8425L19.7716 26.859L19.7781 26.8738C19.9329 27.3265 20.2506 27.394 20.4252 27.394H20.7248V25.3855C20.603 25.0694 20.4581 24.7401 20.2918 24.4059L20.7248 23.9449L21.683 22.9274C21.7818 22.8287 21.8591 22.7035 21.9102 22.5636V15.0167H22.3415C22.5605 15.0167 22.7778 15.015 22.9918 15.0117C23.2059 15.0084 23.4166 15.0068 23.6257 15.0068C24.0834 15.0068 24.434 15.0183 24.7666 15.043C25.1947 15.0743 25.6194 15.6275 25.6227 16.0144C25.6507 19.5343 25.6507 23.0954 25.6227 26.5972C25.6194 26.9841 25.193 27.5323 24.76 27.5652C24.5443 27.5817 24.3221 27.5916 24.0653 27.5965V28.7029H32.9145C35.3148 28.7029 37.7152 28.7029 40.114 28.7062C40.1815 28.7062 40.2539 28.7029 40.3247 28.6996C40.4087 28.6946 40.496 28.693 40.5799 28.693C40.7824 28.693 41.0475 28.7111 41.2829 28.8461C41.604 29.0338 42.0913 29.4964 42.1242 30.0084C42.1555 30.4793 41.7768 31.0341 41.4097 31.2761C41.0919 31.4869 40.6984 31.5033 40.3214 31.5033H40.1453C36.0425 31.5066 31.9398 31.5083 27.8354 31.5083C25.4992 31.5083 23.1631 31.5083 20.8269 31.505C20.7018 31.8589 20.5486 32.2277 20.3659 32.6097H42.9721C43.8924 32.6097 44.4555 32.7677 44.7995 33.1234C45.0317 33.3637 45.1436 33.6815 45.1305 34.0634C45.0844 35.4134 43.489 35.4134 42.9671 35.4134H21.9019C21.8493 35.5517 21.7719 35.6736 21.6764 35.7707L20.9306 36.5165H23.2668C23.4874 36.5165 23.7031 36.5297 23.9336 36.5429C24.0373 36.5494 24.1443 36.5544 24.2579 36.561L26.2401 36.5165H36.0228C38.4874 36.5165 40.9503 36.5165 43.415 36.5132C44.7666 36.5099 45.789 35.8152 46.0804 34.6989C46.2697 33.9795 46.1726 33.26 45.8071 32.6755ZM20.7182 20.4085L19.6859 19.3301C19.4933 19.1359 19.2003 19.0256 18.8809 19.0256C18.5928 19.0256 18.3804 19.1178 18.1664 19.3301L18.0034 19.4931V15.0891H20.7166V20.4085H20.7182ZM22.5802 13.912C20.5157 13.912 18.4528 13.9136 16.3883 13.9153H16.2467C15.8038 13.9153 14.979 13.9153 14.6728 12.9966C14.3468 12.0203 15.0613 11.4292 15.3675 11.1741C17.2806 9.58368 19.1937 7.99 21.1035 6.39632C22.8947 4.90307 24.6859 3.40653 26.4805 1.91492C27.0419 1.449 27.5852 1.22016 28.1384 1.22016C28.6965 1.22016 29.2414 1.44901 29.8094 1.92151C31.8114 3.58763 33.8101 5.25539 35.8071 6.92316C37.5095 8.34397 39.2134 9.76643 40.9158 11.1839C41.2138 11.4325 42.1176 12.1849 41.5117 13.0871C41.2154 13.5267 40.5322 13.879 39.9543 13.884C37.5901 13.912 35.2177 13.9153 33.415 13.9153C32.5341 13.9153 29.0076 13.912 28.1252 13.912H22.5802ZM29.5065 27.5224H26.7966V15.0875H29.5065V27.5224ZM34.3221 27.5224H30.733V15.0595H34.3221V27.5224ZM38.2322 27.5405H35.519V15.0908H38.2322V27.5405Z"/>
</mask>
<path fill-rule="evenodd" clip-rule="evenodd" d="M45.8071 32.6755C45.4383 32.0894 44.8292 31.6861 44.0883 31.5396C44.0027 31.5231 43.9171 31.5083 43.8117 31.4935L43.1943 31.3914L43.2372 30.988C43.3623 29.7977 43.2931 28.9037 42.549 28.4098C42.0205 28.0591 41.3768 27.8303 40.6968 27.5916C40.3708 27.4763 40.035 27.3578 39.6942 27.2195L39.4242 27.1108V15.1895L39.7847 15.1286C39.9296 15.1056 40.0728 15.0858 40.2128 15.0677C40.4795 15.0331 40.733 15.0002 40.9536 14.9278C41.8855 14.6265 42.5506 13.9136 42.7317 13.0163C42.9161 12.1125 42.5737 11.1806 41.8163 10.527C40.1387 9.07824 38.4034 7.63603 36.7241 6.24321C35.9866 5.63076 35.2506 5.01996 34.5164 4.40587L33.4907 3.54812C32.7482 2.92744 32.0073 2.30841 31.2664 1.68608C29.8473 0.495763 29.3056 0.150024 28.4495 0.150024C28.3474 0.150024 28.2437 0.154963 28.1285 0.164841C27.1489 0.252098 26.2088 0.657102 25.4136 1.33705C24.9214 1.75852 24.3172 2.27713 23.7294 2.7875C21.762 4.49971 19.7139 6.179 17.7334 7.80396C16.6698 8.67653 15.5684 9.58038 14.495 10.476C13.6652 11.1675 13.3524 12.0318 13.5664 13.0476C13.7673 14.0058 14.36 14.6397 15.3247 14.9344C15.5519 15.0019 15.8055 15.0348 16.0722 15.0694C16.2088 15.0858 16.3471 15.1023 16.4871 15.1253L16.8493 15.183V20.6489L16.6912 20.8069C16.1315 20.4958 15.6425 20.3212 15.0152 20.1385V18.0542C15.0152 17.4533 14.5065 16.9446 13.9056 16.9446H11.0113C10.4104 16.9446 9.90161 17.4533 9.90161 18.0542V20.1385C9.27599 20.3196 8.78539 20.4958 8.22727 20.8053L6.83938 19.3301C6.64675 19.1359 6.35371 19.0256 6.03432 19.0256C5.7462 19.0256 5.53382 19.1178 5.31979 19.3301L3.23879 21.4111C3.04452 21.6038 2.93421 21.882 2.93421 22.1701C2.93421 22.4582 3.04452 22.7348 3.23879 22.9291L4.71063 24.4009C4.39947 24.885 4.141 25.4628 3.95661 26.0802H1.96122C1.32737 26.0802 0.851562 26.6169 0.851562 27.0993V29.9953C0.851562 30.5962 1.3603 31.1049 1.96122 31.1049H3.95661C4.141 31.7239 4.39947 32.3018 4.71063 32.7842L3.23879 34.2561C3.04452 34.4487 2.93421 34.7269 2.93421 35.015C2.93421 35.3031 3.04452 35.5797 3.24043 35.7756L5.31156 37.7579C5.50418 38.0443 5.71492 38.1596 6.03267 38.1596C6.38334 38.1596 6.66487 38.0196 6.84432 37.7562L8.22891 36.3733C8.35239 36.426 8.47257 36.4786 8.59111 36.5313C9.0274 36.7239 9.44064 36.9067 9.89998 37.0466V39.1309C9.89998 39.7928 10.4713 40.15 11.0096 40.15H13.9039C14.4406 40.15 15.0136 39.7928 15.0136 39.1309V37.0466C15.4745 36.9067 15.8861 36.7239 16.3224 36.5313C16.3306 36.528 16.3389 36.5247 16.3471 36.5198C15.4663 36.5198 14.5822 36.5198 13.6998 36.5165V38.8362H11.2138V36.5099C11.2138 36.1872 11.0211 35.9502 10.7528 35.9436C9.97899 35.7691 9.18216 35.4217 8.56477 34.9837L8.5269 34.9574L8.4841 34.9442C8.36556 34.9064 8.25196 34.8883 8.14659 34.8883C7.95561 34.8883 7.79592 34.9508 7.67409 35.0727L6.03596 36.7108L4.29741 34.9722L5.93553 33.3341C5.97339 33.2946 6.06888 33.1909 6.12157 33.0509C6.19071 32.8665 6.15944 32.6788 6.03596 32.5488C5.62273 31.8836 5.34119 31.1823 5.15515 30.3426L5.15022 30.3262L5.14528 30.3114C4.98393 29.8405 4.6382 29.7911 4.49826 29.7911H2.16865V27.3957H4.49826C4.67277 27.3957 4.99052 27.3282 5.14528 26.8754L5.15022 26.8606L5.15515 26.8441C5.34449 25.9995 5.62766 25.2916 6.0409 24.6298C6.23023 24.3466 6.18907 24.014 5.93553 23.7621L4.29904 22.1257L6.03432 20.4744L7.67409 22.1141C7.79592 22.236 7.95561 22.2969 8.14659 22.2969C8.25196 22.2969 8.36556 22.2788 8.4841 22.2409L8.52855 22.2277L8.56642 22.1997C9.18381 21.7635 9.98229 21.4144 10.7561 21.2416L10.7725 21.2366L10.789 21.23C11.1726 21.0983 11.2171 20.797 11.2171 20.583V18.2551H13.7031V20.583C13.7031 20.8481 13.8479 21.0769 14.1015 21.2152L14.1361 21.2333L14.1772 21.2432C14.9263 21.4111 15.7182 21.7486 16.464 22.2129L16.4788 22.2212L16.4936 22.2277C16.5842 22.2705 16.6863 22.2936 16.7916 22.2936C16.8114 22.2936 16.8328 22.2919 16.8526 22.2903C17.0057 22.2771 17.1423 22.2146 17.2477 22.1108L18.8875 20.4711L20.6227 22.1224L18.9862 23.7589C18.7343 24.0107 18.6948 24.345 18.8792 24.6248C19.2974 25.2933 19.5789 25.9963 19.7683 26.8425L19.7716 26.859L19.7781 26.8738C19.9329 27.3265 20.2506 27.394 20.4252 27.394H20.7248V25.3855C20.603 25.0694 20.4581 24.7401 20.2918 24.4059L20.7248 23.9449L21.683 22.9274C21.7818 22.8287 21.8591 22.7035 21.9102 22.5636V15.0167H22.3415C22.5605 15.0167 22.7778 15.015 22.9918 15.0117C23.2059 15.0084 23.4166 15.0068 23.6257 15.0068C24.0834 15.0068 24.434 15.0183 24.7666 15.043C25.1947 15.0743 25.6194 15.6275 25.6227 16.0144C25.6507 19.5343 25.6507 23.0954 25.6227 26.5972C25.6194 26.9841 25.193 27.5323 24.76 27.5652C24.5443 27.5817 24.3221 27.5916 24.0653 27.5965V28.7029H32.9145C35.3148 28.7029 37.7152 28.7029 40.114 28.7062C40.1815 28.7062 40.2539 28.7029 40.3247 28.6996C40.4087 28.6946 40.496 28.693 40.5799 28.693C40.7824 28.693 41.0475 28.7111 41.2829 28.8461C41.604 29.0338 42.0913 29.4964 42.1242 30.0084C42.1555 30.4793 41.7768 31.0341 41.4097 31.2761C41.0919 31.4869 40.6984 31.5033 40.3214 31.5033H40.1453C36.0425 31.5066 31.9398 31.5083 27.8354 31.5083C25.4992 31.5083 23.1631 31.5083 20.8269 31.505C20.7018 31.8589 20.5486 32.2277 20.3659 32.6097H42.9721C43.8924 32.6097 44.4555 32.7677 44.7995 33.1234C45.0317 33.3637 45.1436 33.6815 45.1305 34.0634C45.0844 35.4134 43.489 35.4134 42.9671 35.4134H21.9019C21.8493 35.5517 21.7719 35.6736 21.6764 35.7707L20.9306 36.5165H23.2668C23.4874 36.5165 23.7031 36.5297 23.9336 36.5429C24.0373 36.5494 24.1443 36.5544 24.2579 36.561L26.2401 36.5165H36.0228C38.4874 36.5165 40.9503 36.5165 43.415 36.5132C44.7666 36.5099 45.789 35.8152 46.0804 34.6989C46.2697 33.9795 46.1726 33.26 45.8071 32.6755ZM20.7182 20.4085L19.6859 19.3301C19.4933 19.1359 19.2003 19.0256 18.8809 19.0256C18.5928 19.0256 18.3804 19.1178 18.1664 19.3301L18.0034 19.4931V15.0891H20.7166V20.4085H20.7182ZM22.5802 13.912C20.5157 13.912 18.4528 13.9136 16.3883 13.9153H16.2467C15.8038 13.9153 14.979 13.9153 14.6728 12.9966C14.3468 12.0203 15.0613 11.4292 15.3675 11.1741C17.2806 9.58368 19.1937 7.99 21.1035 6.39632C22.8947 4.90307 24.6859 3.40653 26.4805 1.91492C27.0419 1.449 27.5852 1.22016 28.1384 1.22016C28.6965 1.22016 29.2414 1.44901 29.8094 1.92151C31.8114 3.58763 33.8101 5.25539 35.8071 6.92316C37.5095 8.34397 39.2134 9.76643 40.9158 11.1839C41.2138 11.4325 42.1176 12.1849 41.5117 13.0871C41.2154 13.5267 40.5322 13.879 39.9543 13.884C37.5901 13.912 35.2177 13.9153 33.415 13.9153C32.5341 13.9153 29.0076 13.912 28.1252 13.912H22.5802ZM29.5065 27.5224H26.7966V15.0875H29.5065V27.5224ZM34.3221 27.5224H30.733V15.0595H34.3221V27.5224ZM38.2322 27.5405H35.519V15.0908H38.2322V27.5405Z" fill="#6275E1" stroke="#6275E1" stroke-width="0.4" mask="url(#path-6-inside-1_2461_1704)"/>
<path d="M20.957 31.005H20.8826L20.8612 31.0762C20.822 31.2069 20.7797 31.3404 20.7326 31.4753C20.6087 31.8256 20.457 32.191 20.2757 32.5699L20.2755 32.5705C20.2495 32.6257 20.2235 32.6794 20.1958 32.7346L20.1646 32.797L20.2125 32.8479L21.6069 34.3296L21.6069 34.3296L21.609 34.3318C21.7924 34.5151 21.881 34.7982 21.881 34.9723C21.881 35.1186 21.8551 35.2598 21.8084 35.3848C21.7604 35.5108 21.6904 35.6204 21.6054 35.7069C21.6053 35.707 21.6052 35.7071 21.6051 35.7072L20.86 36.4524L20.8599 36.4524L19.6236 37.6872L19.6168 37.6939L19.6114 37.7019C19.4529 37.9361 19.2044 38.0613 18.8826 38.0613C18.7365 38.0613 18.622 38.0346 18.5237 37.9799C18.4249 37.9249 18.3348 37.8373 18.2443 37.7036L18.2381 37.6943L18.23 37.6867L16.9148 36.4506L16.9145 36.4503L16.7568 36.3008L16.709 36.2555L16.6486 36.2814C16.5863 36.3081 16.522 36.3366 16.4591 36.3645C16.4148 36.3841 16.3713 36.4034 16.3297 36.4215C15.4932 36.4215 14.654 36.4215 13.8161 36.4186C13.8335 36.3511 13.8682 36.2756 13.9178 36.2084C13.992 36.1076 14.0828 36.0474 14.1686 36.0435L14.1774 36.0431L14.1859 36.0412C14.6798 35.9307 15.1874 35.7503 15.6888 35.5104C15.969 35.3769 16.2441 35.2253 16.5155 35.0554L16.5155 35.0554L16.5179 35.0538L16.5257 35.0487L16.5327 35.0455L16.5327 35.0456L16.5348 35.0446C16.6127 35.0078 16.7002 34.9867 16.7901 34.9867C16.9408 34.9867 17.0764 35.0428 17.1754 35.1418L17.5228 35.4892L18.6258 36.5922L18.8135 36.7799L18.8842 36.8506L18.9549 36.7799L19.1426 36.5922L20.2457 35.4892L20.6935 35.0414L20.7642 34.9706L20.6935 34.8999L19.0554 33.2618C18.8453 33.0517 18.8167 32.8204 18.9168 32.6679L18.9173 32.6671C18.929 32.649 18.9419 32.6322 18.9577 32.615L18.9641 32.6081L18.9691 32.6001C19.1797 32.2625 19.3552 31.9148 19.5022 31.5455C19.6493 31.178 19.7694 30.7874 19.8627 30.3625L19.8627 30.3625L19.8631 30.3607L19.8642 30.3551L19.8663 30.3505L19.8666 30.3506L19.8695 30.3422C19.9428 30.1284 20.0544 30.0183 20.1562 29.9598C20.2603 29.9001 20.3628 29.8895 20.4219 29.8895H22.7515H22.8515V29.7895V28.8046H23.962V29.9953C23.962 30.541 23.4981 31.005 22.9524 31.005H20.957Z" fill="#6275E1" stroke="#6275E1" stroke-width="0.2"/>
<path d="M21.9058 27.3956H20.7188" stroke="#6275E1" stroke-width="0.2"/>
<path d="M13.8957 26.2888V26.2888L13.8975 26.2888C14.0693 26.2857 14.2372 26.3149 14.3938 26.3772C14.5511 26.4399 14.6947 26.5331 14.8153 26.6506C14.9357 26.7679 15.0319 26.9098 15.0976 27.0657C15.1631 27.2212 15.1967 27.3891 15.1967 27.557C15.1967 27.7248 15.1631 27.8927 15.0976 28.0482C15.0319 28.2041 14.9357 28.346 14.8153 28.4633C14.6947 28.5808 14.5511 28.674 14.3938 28.7367C14.2371 28.799 14.0693 28.8282 13.8991 28.8251L13.8991 28.8251H13.8973H13.8957H12.8239H12.7547H12.6547V28.9251V28.9942V29.8586C12.6547 29.9171 12.6311 29.9744 12.5897 30.0172C12.5482 30.0585 12.4918 30.0813 12.4321 30.0813C12.3735 30.0813 12.3162 30.0576 12.2734 30.0162C12.2322 29.9747 12.2094 29.9183 12.2094 29.8586V26.5099C12.2094 26.451 12.2332 26.3946 12.2746 26.3544L12.2746 26.3544L12.2756 26.3534C12.3171 26.3118 12.3738 26.2888 12.4337 26.2888H13.8957ZM13.7957 28.3797V28.3814H13.8957H13.8973V28.3814L13.9008 28.3813C14.1144 28.3738 14.3166 28.2839 14.4661 28.1306L14.4665 28.1301C14.6143 27.9767 14.6987 27.7709 14.6987 27.557C14.6987 27.3437 14.6164 27.1375 14.4663 26.9836C14.318 26.8297 14.114 26.7401 13.9008 26.7326L13.9008 26.7326H13.8973H13.8957H12.8239H12.7547H12.6547V26.8326V26.9017V28.2106V28.2797V28.3797H12.7547H12.8239H13.7957Z" fill="#6275E1" stroke="#6275E1" stroke-width="0.2"/>
<path d="M11.4813 29.7483L10.2268 26.3979C10.2037 26.337 10.1625 26.2843 10.1082 26.2465C10.0539 26.2086 9.98968 26.1888 9.92383 26.1888H9.51059C9.44473 26.1888 9.38053 26.2086 9.3262 26.2465C9.27187 26.2843 9.23071 26.337 9.20766 26.3979L11.4813 29.7483ZM11.4813 29.7483C11.4961 29.7878 11.5027 29.8306 11.5011 29.8718L11.4813 29.7483ZM9.30124 26.4332C9.31707 26.3914 9.34541 26.355 9.38338 26.3285C9.42063 26.3025 9.46481 26.2888 9.51059 26.2888H9.92383C9.9696 26.2888 10.0138 26.3025 10.051 26.3285C10.089 26.355 10.1174 26.3914 10.1332 26.4332C10.1332 26.4332 10.1332 26.4333 10.1332 26.4333L11.3876 29.7833L11.3877 29.7834C11.3977 29.8101 11.4023 29.8396 11.4011 29.8678L11.4011 29.8679C11.4 29.8971 11.3934 29.9255 11.3821 29.9521C11.3691 29.9787 11.3518 30.0026 11.3302 30.0231C11.3098 30.0424 11.2856 30.057 11.2573 30.0677C11.23 30.0776 11.2023 30.0829 11.1784 30.0829C11.1326 30.0829 11.0884 30.0692 11.0511 30.0432C11.0132 30.0168 10.9848 29.9803 10.969 29.9386C10.969 29.9385 10.969 29.9385 10.969 29.9384L10.7502 29.3563L10.7501 29.3558L10.7338 29.3118L10.7096 29.2466H10.64H10.5923H8.83558H8.78784H8.71738L8.69367 29.3129L8.67743 29.3584L8.46036 29.9405L8.46019 29.941C8.44008 29.9958 8.39878 30.0395 8.3444 30.0633L8.3444 30.0633L8.34369 30.0636C8.29008 30.0876 8.22819 30.0899 8.17201 30.0693C8.11725 30.0492 8.07349 30.0079 8.0497 29.9535L8.0497 29.9535L8.04938 29.9528C8.02547 29.8993 8.02308 29.8375 8.04359 29.7814C8.04363 29.7813 8.04367 29.7812 8.04371 29.7811L9.30119 26.4333C9.30121 26.4333 9.30122 26.4332 9.30124 26.4332ZM8.9724 28.5707L8.97224 28.5711L8.93767 28.665L8.88808 28.7995H9.0315L9.13165 28.7995L9.13194 28.7995L10.2989 28.8028H10.2992H10.3996H10.5454L10.4929 28.6668L10.4569 28.5734L9.87258 27.0148L9.8725 27.0146L9.80665 26.8401L9.71307 26.5921L9.61952 26.8401L9.55368 27.0146L9.55357 27.0149L8.9724 28.5707Z" fill="#6275E1" stroke="#6275E1" stroke-width="0.2"/>
<path d="M16.5287 29.857V26.6116H16.4287M16.5287 29.857L16.4287 29.853C16.4287 29.8536 16.4287 29.8542 16.4287 29.8548M16.5287 29.857H16.4287V29.8548M16.5287 29.857C16.5254 29.9393 16.4892 30.0183 16.4299 30.0743C16.369 30.1319 16.2899 30.1649 16.206 30.1649C16.122 30.1649 16.043 30.1319 15.9821 30.0743L15.9833 29.8548M16.4287 29.8548V26.6116M16.4287 29.8548C16.426 29.9103 16.4011 29.9639 16.3612 30.0016L16.3612 30.0017C16.3179 30.0425 16.2632 30.0649 16.206 30.0649C16.149 30.0649 16.0944 30.0427 16.0513 30.0021C16.0101 29.9619 15.986 29.9093 15.9833 29.8548M16.4287 26.6116H15.9833M16.4287 26.6116V26.5116V26.511C16.4279 26.4755 16.4196 26.4418 16.4044 26.4116M15.9833 26.6116V26.5116V26.5099C15.9833 26.4755 15.9915 26.4418 16.0063 26.4116M15.9833 26.6116V29.8548M15.9833 26.6116H15.8833L15.9833 29.8548M16.4044 26.4116H16.4783C16.4639 26.3726 16.441 26.3366 16.4105 26.306L16.3634 26.3544C16.3633 26.3543 16.3631 26.3541 16.363 26.3539M16.4044 26.4116H16.0063M16.4044 26.4116C16.3939 26.3905 16.38 26.3711 16.363 26.3539M16.363 26.3539C16.3628 26.3538 16.3626 26.3536 16.3625 26.3534L16.4102 26.3057L16.4094 26.3049L16.4094 26.3049C16.3563 26.2506 16.2819 26.2198 16.2043 26.2198C16.1278 26.2198 16.0547 26.2499 15.9993 26.3049L16.0478 26.3534C16.0477 26.3536 16.0475 26.3538 16.0474 26.3539M16.363 26.3539C16.3202 26.3126 16.2629 26.2889 16.2043 26.2889C16.1463 26.2889 16.0905 26.3122 16.0474 26.3539M16.0474 26.3539C16.0472 26.3541 16.047 26.3543 16.0469 26.3544L15.999 26.3052C15.9988 26.3054 15.9986 26.3055 15.9985 26.3057L15.9977 26.3065L15.9977 26.3065C15.9675 26.336 15.9446 26.3721 15.9302 26.4116H16.0063M16.0474 26.3539C16.0307 26.3707 16.0168 26.3903 16.0063 26.4116" fill="#6275E1" stroke="#6275E1" stroke-width="0.2"/>
<path d="M16.2043 26.2889C16.2629 26.2889 16.3202 26.3126 16.363 26.3539C16.38 26.3711 16.3939 26.3905 16.4044 26.4116H16.0063C16.0168 26.3903 16.0307 26.3707 16.0474 26.3539C16.0905 26.3122 16.1463 26.2889 16.2043 26.2889ZM15.9833 26.6116H16.4287V29.8548C16.426 29.9103 16.4011 29.9639 16.3612 30.0016L16.3612 30.0017C16.3179 30.0425 16.2632 30.0649 16.206 30.0649C16.149 30.0649 16.0944 30.0427 16.0513 30.0021C16.0101 29.9619 15.986 29.9093 15.9833 29.8548V26.6116Z" fill="#6275E1" stroke="#6275E1" stroke-width="0.2"/>
</svg>
