<svg width="39" height="42" viewBox="0 0 39 42" fill="none" xmlns="http://www.w3.org/2000/svg">
<mask id="path-1-outside-1_2461_1687" maskUnits="userSpaceOnUse" x="-0.03125" y="-0.180908" width="39" height="42" fill="black">
<rect fill="white" x="-0.03125" y="-0.180908" width="39" height="42"/>
<path d="M38.6375 3.78996C38.6392 1.69552 37.1007 0.805961 35.6386 0.819238C30.4307 0.865707 25.2244 0.837492 20.0182 0.837492C17.864 0.837492 15.7098 0.827534 13.5556 0.84247C12.062 0.852428 10.9534 1.9345 10.8803 3.42484C10.8571 3.88289 10.8339 4.34593 10.8803 4.80067C10.9351 5.31681 10.7293 5.63712 10.3393 5.95742C8.2432 7.67513 6.16867 9.42271 4.08751 11.1603C3.4469 11.6947 3.18966 12.3802 3.35894 13.1884C3.51826 13.9502 4.00453 14.458 4.75302 14.6854C5.01192 14.765 5.2924 14.7783 5.57785 14.8231V22.4557C4.85758 22.7478 4.15224 22.9187 3.58797 23.2955C2.91582 23.7469 2.91914 24.5502 2.98552 25.1294C2.42125 25.4563 1.89183 25.6389 1.53501 25.9957C0.959125 26.5683 0.803121 27.3085 1.15662 28.0918C1.52008 28.9 2.15405 29.3166 3.03863 29.3199C5.4318 29.3282 7.82664 29.3232 10.2198 29.3265C10.4289 29.3265 10.638 29.3448 10.8853 29.3564C10.7974 30.4534 11.0347 31.3695 11.8761 32.045C12.4039 32.4699 12.9383 32.8848 13.4693 33.3047C16.3621 35.5949 19.2448 37.8952 22.1475 40.1705C23.598 41.3057 25.4651 40.9057 26.2468 39.3224C26.3762 39.0602 26.4526 38.7748 26.5687 38.4628C27.616 38.8777 28.5918 39.5349 29.81 39.0685C31.0348 38.6005 31.38 37.5184 31.77 36.4164C32.3243 36.531 32.7923 36.6289 33.2587 36.7218C35.1606 37.1035 36.5945 35.9567 36.6227 34.0266C36.6294 33.6482 36.5962 33.2648 36.6377 32.8914C36.6543 32.7371 36.7804 32.5263 36.9148 32.4649C38.1081 31.9222 38.6392 30.9812 38.6392 29.7033C38.6342 21.0666 38.6309 12.4283 38.6375 3.78996ZM5.55628 13.4207C5.1895 13.4224 4.8194 13.4407 4.6717 12.9975C4.53395 12.586 4.75302 12.3287 5.05009 12.0814C7.56276 9.99362 10.0671 7.89752 12.5781 5.80806C13.2254 5.27034 13.8079 5.27034 14.4601 5.81304C16.9711 7.9025 19.4739 10.0003 21.9849 12.0897C22.2786 12.3353 22.5724 12.6357 22.3334 12.9909C22.1824 13.2149 21.799 13.3992 21.5168 13.4025C18.8465 13.434 16.1778 13.4207 13.5059 13.4207C10.8571 13.4207 8.20669 13.4191 5.55628 13.4207ZM20.063 14.8032V22.6532H18.81V14.8032H20.063ZM17.4143 14.7833V22.6416H15.5671V14.7833H17.4143ZM14.1515 14.8032V22.6416H12.9001V14.8032H14.1515ZM11.5176 22.3063C11.5176 22.4358 11.3235 22.6632 11.204 22.6715C10.6745 22.713 10.1401 22.6897 9.58749 22.6897V14.7534C10.1468 14.7534 10.6795 14.7318 11.2089 14.7717C11.3251 14.78 11.5176 15.0107 11.5176 15.1401C11.5359 17.53 11.5359 19.9181 11.5176 22.3063ZM8.19673 14.8032V22.6532H6.94372V14.8032H8.19673ZM4.82272 24.0738C4.992 23.9792 5.2509 24.0307 5.46997 24.0307C8.16354 24.029 10.8554 24.0307 13.549 24.0307C16.2442 24.0307 18.9361 24.029 21.6297 24.0324C21.8471 24.0324 22.106 23.9892 22.2753 24.0888C22.4678 24.2016 22.6885 24.4423 22.7018 24.6414C22.7151 24.8373 22.5292 25.1177 22.3483 25.2372C22.1707 25.3551 21.8903 25.3418 21.6546 25.3418C16.2276 25.3468 10.8023 25.3468 5.37538 25.3418C5.15797 25.3418 4.89077 25.3667 4.73808 25.2555C4.54391 25.1144 4.32152 24.8373 4.33479 24.6365C4.34973 24.4307 4.61029 24.1917 4.82272 24.0738ZM3.5166 27.9922C3.33736 27.9922 3.15481 28.0055 2.97723 27.9823C2.58058 27.9308 2.27023 27.7366 2.30342 27.2968C2.33495 26.8852 2.60879 26.6678 3.04029 26.6778C3.1797 26.6828 3.31911 26.6761 3.45851 26.6761H23.5648C24.3996 26.6761 24.7514 26.8836 24.7365 27.3599C24.7216 27.7947 24.3581 27.9922 23.5632 27.9922H3.5166ZM25.1614 38.4412C24.866 39.4618 23.8403 39.8054 22.9474 39.1133C21.4505 37.9516 19.9751 36.7633 18.4914 35.585C17.9636 35.1651 17.4342 34.7435 16.9048 34.3237C16.923 34.2905 16.9396 34.2573 16.9562 34.2257C17.7329 34.5626 18.5113 34.8962 19.2847 35.2365C21.1086 36.0364 22.9275 36.8513 24.7564 37.6346C25.1547 37.8089 25.2892 37.9964 25.1614 38.4412ZM30.1253 37.0222C29.8315 37.7242 29.0997 38.096 28.4093 37.7972C25.6692 36.609 22.9458 35.3858 20.2174 34.1726C20.1692 34.1511 20.1327 34.1013 20.0166 33.9967C23.53 34.717 26.9504 35.4174 30.439 36.131C30.3112 36.4978 30.2315 36.7666 30.1253 37.0222ZM35.2552 34.3635C35.1506 35.1983 34.5167 35.5916 33.574 35.429C32.6131 35.2613 31.6588 35.0456 30.7045 34.8481C27.6243 34.2091 24.5423 33.5702 21.4621 32.9296C21.2331 32.8831 21.004 32.82 20.7816 32.6923H35.2701C35.2685 33.2598 35.3249 33.8191 35.2552 34.3635ZM37.3015 29.7232C37.3015 30.8053 36.8103 31.2949 35.7182 31.2965C28.3976 31.3015 21.0754 31.3032 13.7515 31.2965C12.5649 31.2949 12.1184 30.7239 12.2313 29.3232H12.9748C16.606 29.3232 20.2356 29.3265 23.8669 29.3199C24.9307 29.3182 25.724 28.7573 25.9547 27.8727C26.265 26.6927 25.5779 25.6057 24.378 25.37C24.2834 25.3518 24.1872 25.3385 24.0362 25.3136C24.1175 24.5452 24.1158 23.7419 23.442 23.2922C22.8761 22.9138 22.1691 22.7478 21.4538 22.4574V14.8264C21.7475 14.7766 22.0297 14.7634 22.2886 14.6804C23.8519 14.1759 24.2386 12.2905 22.9757 11.2002C21.3459 9.79281 19.6763 8.43026 18.025 7.04779C17.2915 6.43374 16.5562 5.81967 15.8243 5.20561C14.344 3.96422 14.0834 3.90115 12.2047 4.35589C12.2047 4.01401 12.1715 3.67544 12.2114 3.34684C12.3043 2.59005 12.8619 2.17183 13.7482 2.17017C18.3569 2.16851 22.9657 2.16851 27.5745 2.16851C30.268 2.16851 32.9599 2.16685 35.6535 2.17017C36.7903 2.17183 37.2998 2.66639 37.2998 3.80821C37.3065 12.4449 37.3065 21.0832 37.3015 29.7232Z"/>
</mask>
<path d="M38.6375 3.78996C38.6392 1.69552 37.1007 0.805961 35.6386 0.819238C30.4307 0.865707 25.2244 0.837492 20.0182 0.837492C17.864 0.837492 15.7098 0.827534 13.5556 0.84247C12.062 0.852428 10.9534 1.9345 10.8803 3.42484C10.8571 3.88289 10.8339 4.34593 10.8803 4.80067C10.9351 5.31681 10.7293 5.63712 10.3393 5.95742C8.2432 7.67513 6.16867 9.42271 4.08751 11.1603C3.4469 11.6947 3.18966 12.3802 3.35894 13.1884C3.51826 13.9502 4.00453 14.458 4.75302 14.6854C5.01192 14.765 5.2924 14.7783 5.57785 14.8231V22.4557C4.85758 22.7478 4.15224 22.9187 3.58797 23.2955C2.91582 23.7469 2.91914 24.5502 2.98552 25.1294C2.42125 25.4563 1.89183 25.6389 1.53501 25.9957C0.959125 26.5683 0.803121 27.3085 1.15662 28.0918C1.52008 28.9 2.15405 29.3166 3.03863 29.3199C5.4318 29.3282 7.82664 29.3232 10.2198 29.3265C10.4289 29.3265 10.638 29.3448 10.8853 29.3564C10.7974 30.4534 11.0347 31.3695 11.8761 32.045C12.4039 32.4699 12.9383 32.8848 13.4693 33.3047C16.3621 35.5949 19.2448 37.8952 22.1475 40.1705C23.598 41.3057 25.4651 40.9057 26.2468 39.3224C26.3762 39.0602 26.4526 38.7748 26.5687 38.4628C27.616 38.8777 28.5918 39.5349 29.81 39.0685C31.0348 38.6005 31.38 37.5184 31.77 36.4164C32.3243 36.531 32.7923 36.6289 33.2587 36.7218C35.1606 37.1035 36.5945 35.9567 36.6227 34.0266C36.6294 33.6482 36.5962 33.2648 36.6377 32.8914C36.6543 32.7371 36.7804 32.5263 36.9148 32.4649C38.1081 31.9222 38.6392 30.9812 38.6392 29.7033C38.6342 21.0666 38.6309 12.4283 38.6375 3.78996ZM5.55628 13.4207C5.1895 13.4224 4.8194 13.4407 4.6717 12.9975C4.53395 12.586 4.75302 12.3287 5.05009 12.0814C7.56276 9.99362 10.0671 7.89752 12.5781 5.80806C13.2254 5.27034 13.8079 5.27034 14.4601 5.81304C16.9711 7.9025 19.4739 10.0003 21.9849 12.0897C22.2786 12.3353 22.5724 12.6357 22.3334 12.9909C22.1824 13.2149 21.799 13.3992 21.5168 13.4025C18.8465 13.434 16.1778 13.4207 13.5059 13.4207C10.8571 13.4207 8.20669 13.4191 5.55628 13.4207ZM20.063 14.8032V22.6532H18.81V14.8032H20.063ZM17.4143 14.7833V22.6416H15.5671V14.7833H17.4143ZM14.1515 14.8032V22.6416H12.9001V14.8032H14.1515ZM11.5176 22.3063C11.5176 22.4358 11.3235 22.6632 11.204 22.6715C10.6745 22.713 10.1401 22.6897 9.58749 22.6897V14.7534C10.1468 14.7534 10.6795 14.7318 11.2089 14.7717C11.3251 14.78 11.5176 15.0107 11.5176 15.1401C11.5359 17.53 11.5359 19.9181 11.5176 22.3063ZM8.19673 14.8032V22.6532H6.94372V14.8032H8.19673ZM4.82272 24.0738C4.992 23.9792 5.2509 24.0307 5.46997 24.0307C8.16354 24.029 10.8554 24.0307 13.549 24.0307C16.2442 24.0307 18.9361 24.029 21.6297 24.0324C21.8471 24.0324 22.106 23.9892 22.2753 24.0888C22.4678 24.2016 22.6885 24.4423 22.7018 24.6414C22.7151 24.8373 22.5292 25.1177 22.3483 25.2372C22.1707 25.3551 21.8903 25.3418 21.6546 25.3418C16.2276 25.3468 10.8023 25.3468 5.37538 25.3418C5.15797 25.3418 4.89077 25.3667 4.73808 25.2555C4.54391 25.1144 4.32152 24.8373 4.33479 24.6365C4.34973 24.4307 4.61029 24.1917 4.82272 24.0738ZM3.5166 27.9922C3.33736 27.9922 3.15481 28.0055 2.97723 27.9823C2.58058 27.9308 2.27023 27.7366 2.30342 27.2968C2.33495 26.8852 2.60879 26.6678 3.04029 26.6778C3.1797 26.6828 3.31911 26.6761 3.45851 26.6761H23.5648C24.3996 26.6761 24.7514 26.8836 24.7365 27.3599C24.7216 27.7947 24.3581 27.9922 23.5632 27.9922H3.5166ZM25.1614 38.4412C24.866 39.4618 23.8403 39.8054 22.9474 39.1133C21.4505 37.9516 19.9751 36.7633 18.4914 35.585C17.9636 35.1651 17.4342 34.7435 16.9048 34.3237C16.923 34.2905 16.9396 34.2573 16.9562 34.2257C17.7329 34.5626 18.5113 34.8962 19.2847 35.2365C21.1086 36.0364 22.9275 36.8513 24.7564 37.6346C25.1547 37.8089 25.2892 37.9964 25.1614 38.4412ZM30.1253 37.0222C29.8315 37.7242 29.0997 38.096 28.4093 37.7972C25.6692 36.609 22.9458 35.3858 20.2174 34.1726C20.1692 34.1511 20.1327 34.1013 20.0166 33.9967C23.53 34.717 26.9504 35.4174 30.439 36.131C30.3112 36.4978 30.2315 36.7666 30.1253 37.0222ZM35.2552 34.3635C35.1506 35.1983 34.5167 35.5916 33.574 35.429C32.6131 35.2613 31.6588 35.0456 30.7045 34.8481C27.6243 34.2091 24.5423 33.5702 21.4621 32.9296C21.2331 32.8831 21.004 32.82 20.7816 32.6923H35.2701C35.2685 33.2598 35.3249 33.8191 35.2552 34.3635ZM37.3015 29.7232C37.3015 30.8053 36.8103 31.2949 35.7182 31.2965C28.3976 31.3015 21.0754 31.3032 13.7515 31.2965C12.5649 31.2949 12.1184 30.7239 12.2313 29.3232H12.9748C16.606 29.3232 20.2356 29.3265 23.8669 29.3199C24.9307 29.3182 25.724 28.7573 25.9547 27.8727C26.265 26.6927 25.5779 25.6057 24.378 25.37C24.2834 25.3518 24.1872 25.3385 24.0362 25.3136C24.1175 24.5452 24.1158 23.7419 23.442 23.2922C22.8761 22.9138 22.1691 22.7478 21.4538 22.4574V14.8264C21.7475 14.7766 22.0297 14.7634 22.2886 14.6804C23.8519 14.1759 24.2386 12.2905 22.9757 11.2002C21.3459 9.79281 19.6763 8.43026 18.025 7.04779C17.2915 6.43374 16.5562 5.81967 15.8243 5.20561C14.344 3.96422 14.0834 3.90115 12.2047 4.35589C12.2047 4.01401 12.1715 3.67544 12.2114 3.34684C12.3043 2.59005 12.8619 2.17183 13.7482 2.17017C18.3569 2.16851 22.9657 2.16851 27.5745 2.16851C30.268 2.16851 32.9599 2.16685 35.6535 2.17017C36.7903 2.17183 37.2998 2.66639 37.2998 3.80821C37.3065 12.4449 37.3065 21.0832 37.3015 29.7232Z" fill="#6275E1"/>
<path d="M38.6375 3.78996C38.6392 1.69552 37.1007 0.805961 35.6386 0.819238C30.4307 0.865707 25.2244 0.837492 20.0182 0.837492C17.864 0.837492 15.7098 0.827534 13.5556 0.84247C12.062 0.852428 10.9534 1.9345 10.8803 3.42484C10.8571 3.88289 10.8339 4.34593 10.8803 4.80067C10.9351 5.31681 10.7293 5.63712 10.3393 5.95742C8.2432 7.67513 6.16867 9.42271 4.08751 11.1603C3.4469 11.6947 3.18966 12.3802 3.35894 13.1884C3.51826 13.9502 4.00453 14.458 4.75302 14.6854C5.01192 14.765 5.2924 14.7783 5.57785 14.8231V22.4557C4.85758 22.7478 4.15224 22.9187 3.58797 23.2955C2.91582 23.7469 2.91914 24.5502 2.98552 25.1294C2.42125 25.4563 1.89183 25.6389 1.53501 25.9957C0.959125 26.5683 0.803121 27.3085 1.15662 28.0918C1.52008 28.9 2.15405 29.3166 3.03863 29.3199C5.4318 29.3282 7.82664 29.3232 10.2198 29.3265C10.4289 29.3265 10.638 29.3448 10.8853 29.3564C10.7974 30.4534 11.0347 31.3695 11.8761 32.045C12.4039 32.4699 12.9383 32.8848 13.4693 33.3047C16.3621 35.5949 19.2448 37.8952 22.1475 40.1705C23.598 41.3057 25.4651 40.9057 26.2468 39.3224C26.3762 39.0602 26.4526 38.7748 26.5687 38.4628C27.616 38.8777 28.5918 39.5349 29.81 39.0685C31.0348 38.6005 31.38 37.5184 31.77 36.4164C32.3243 36.531 32.7923 36.6289 33.2587 36.7218C35.1606 37.1035 36.5945 35.9567 36.6227 34.0266C36.6294 33.6482 36.5962 33.2648 36.6377 32.8914C36.6543 32.7371 36.7804 32.5263 36.9148 32.4649C38.1081 31.9222 38.6392 30.9812 38.6392 29.7033C38.6342 21.0666 38.6309 12.4283 38.6375 3.78996ZM5.55628 13.4207C5.1895 13.4224 4.8194 13.4407 4.6717 12.9975C4.53395 12.586 4.75302 12.3287 5.05009 12.0814C7.56276 9.99362 10.0671 7.89752 12.5781 5.80806C13.2254 5.27034 13.8079 5.27034 14.4601 5.81304C16.9711 7.9025 19.4739 10.0003 21.9849 12.0897C22.2786 12.3353 22.5724 12.6357 22.3334 12.9909C22.1824 13.2149 21.799 13.3992 21.5168 13.4025C18.8465 13.434 16.1778 13.4207 13.5059 13.4207C10.8571 13.4207 8.20669 13.4191 5.55628 13.4207ZM20.063 14.8032V22.6532H18.81V14.8032H20.063ZM17.4143 14.7833V22.6416H15.5671V14.7833H17.4143ZM14.1515 14.8032V22.6416H12.9001V14.8032H14.1515ZM11.5176 22.3063C11.5176 22.4358 11.3235 22.6632 11.204 22.6715C10.6745 22.713 10.1401 22.6897 9.58749 22.6897V14.7534C10.1468 14.7534 10.6795 14.7318 11.2089 14.7717C11.3251 14.78 11.5176 15.0107 11.5176 15.1401C11.5359 17.53 11.5359 19.9181 11.5176 22.3063ZM8.19673 14.8032V22.6532H6.94372V14.8032H8.19673ZM4.82272 24.0738C4.992 23.9792 5.2509 24.0307 5.46997 24.0307C8.16354 24.029 10.8554 24.0307 13.549 24.0307C16.2442 24.0307 18.9361 24.029 21.6297 24.0324C21.8471 24.0324 22.106 23.9892 22.2753 24.0888C22.4678 24.2016 22.6885 24.4423 22.7018 24.6414C22.7151 24.8373 22.5292 25.1177 22.3483 25.2372C22.1707 25.3551 21.8903 25.3418 21.6546 25.3418C16.2276 25.3468 10.8023 25.3468 5.37538 25.3418C5.15797 25.3418 4.89077 25.3667 4.73808 25.2555C4.54391 25.1144 4.32152 24.8373 4.33479 24.6365C4.34973 24.4307 4.61029 24.1917 4.82272 24.0738ZM3.5166 27.9922C3.33736 27.9922 3.15481 28.0055 2.97723 27.9823C2.58058 27.9308 2.27023 27.7366 2.30342 27.2968C2.33495 26.8852 2.60879 26.6678 3.04029 26.6778C3.1797 26.6828 3.31911 26.6761 3.45851 26.6761H23.5648C24.3996 26.6761 24.7514 26.8836 24.7365 27.3599C24.7216 27.7947 24.3581 27.9922 23.5632 27.9922H3.5166ZM25.1614 38.4412C24.866 39.4618 23.8403 39.8054 22.9474 39.1133C21.4505 37.9516 19.9751 36.7633 18.4914 35.585C17.9636 35.1651 17.4342 34.7435 16.9048 34.3237C16.923 34.2905 16.9396 34.2573 16.9562 34.2257C17.7329 34.5626 18.5113 34.8962 19.2847 35.2365C21.1086 36.0364 22.9275 36.8513 24.7564 37.6346C25.1547 37.8089 25.2892 37.9964 25.1614 38.4412ZM30.1253 37.0222C29.8315 37.7242 29.0997 38.096 28.4093 37.7972C25.6692 36.609 22.9458 35.3858 20.2174 34.1726C20.1692 34.1511 20.1327 34.1013 20.0166 33.9967C23.53 34.717 26.9504 35.4174 30.439 36.131C30.3112 36.4978 30.2315 36.7666 30.1253 37.0222ZM35.2552 34.3635C35.1506 35.1983 34.5167 35.5916 33.574 35.429C32.6131 35.2613 31.6588 35.0456 30.7045 34.8481C27.6243 34.2091 24.5423 33.5702 21.4621 32.9296C21.2331 32.8831 21.004 32.82 20.7816 32.6923H35.2701C35.2685 33.2598 35.3249 33.8191 35.2552 34.3635ZM37.3015 29.7232C37.3015 30.8053 36.8103 31.2949 35.7182 31.2965C28.3976 31.3015 21.0754 31.3032 13.7515 31.2965C12.5649 31.2949 12.1184 30.7239 12.2313 29.3232H12.9748C16.606 29.3232 20.2356 29.3265 23.8669 29.3199C24.9307 29.3182 25.724 28.7573 25.9547 27.8727C26.265 26.6927 25.5779 25.6057 24.378 25.37C24.2834 25.3518 24.1872 25.3385 24.0362 25.3136C24.1175 24.5452 24.1158 23.7419 23.442 23.2922C22.8761 22.9138 22.1691 22.7478 21.4538 22.4574V14.8264C21.7475 14.7766 22.0297 14.7634 22.2886 14.6804C23.8519 14.1759 24.2386 12.2905 22.9757 11.2002C21.3459 9.79281 19.6763 8.43026 18.025 7.04779C17.2915 6.43374 16.5562 5.81967 15.8243 5.20561C14.344 3.96422 14.0834 3.90115 12.2047 4.35589C12.2047 4.01401 12.1715 3.67544 12.2114 3.34684C12.3043 2.59005 12.8619 2.17183 13.7482 2.17017C18.3569 2.16851 22.9657 2.16851 27.5745 2.16851C30.268 2.16851 32.9599 2.16685 35.6535 2.17017C36.7903 2.17183 37.2998 2.66639 37.2998 3.80821C37.3065 12.4449 37.3065 21.0832 37.3015 29.7232Z" stroke="#6275E1" stroke-width="0.4" mask="url(#path-1-outside-1_2461_1687)"/>
<path d="M11.1345 9.80185C11.1432 11.1409 12.235 12.2204 13.5595 12.1996L13.5596 12.1996C14.8429 12.1788 15.8986 11.0731 15.8951 9.76596L15.8951 9.76582C15.8899 8.46193 14.8189 7.37971 13.5222 7.36931L13.5222 7.36931C12.1984 7.3589 11.1224 8.45652 11.1345 9.80185ZM11.1345 9.80185C11.1345 9.8018 11.1345 9.80176 11.1345 9.80172L11.2345 9.80107L11.1345 9.80197C11.1345 9.80193 11.1345 9.80189 11.1345 9.80185ZM12.6571 9.73983L12.6571 9.73973C12.6736 9.25421 13.0357 8.90763 13.5169 8.91359L13.5169 8.91359C14.02 8.91956 14.3827 9.2946 14.3708 9.80537C14.3588 10.2974 13.9604 10.6802 13.478 10.667C12.9935 10.6506 12.639 10.2599 12.6571 9.73983Z" fill="#6275E1" stroke="#6275E1" stroke-width="0.2"/>
<path d="M30.037 5.2559H33.967C34.225 5.2559 34.4321 5.04652 34.4321 4.79078C34.4321 4.53503 34.225 4.32566 33.967 4.32566H30.037C29.7809 4.32566 29.5719 4.53474 29.5719 4.79078C29.5719 5.04652 29.779 5.2559 30.037 5.2559Z" fill="#6275E1" stroke="#6275E1" stroke-width="0.2"/>
<path d="M30.037 6.60843H33.967C34.225 6.60843 34.4321 6.39906 34.4321 6.14331C34.4321 5.88756 34.225 5.6782 33.967 5.6782H30.037C29.7809 5.6782 29.5719 5.88727 29.5719 6.14331C29.5719 6.39906 29.779 6.60843 30.037 6.60843Z" fill="#6275E1" stroke="#6275E1" stroke-width="0.2"/>
<path d="M32.028 4.42895L32.0476 4.3309C31.7941 4.28018 31.5486 4.44514 31.4999 4.6989C31.4515 4.9515 31.6155 5.19684 31.8677 5.24571C32.2824 5.32786 32.5759 5.70778 32.5424 6.10328C32.5231 6.32951 32.4253 6.50803 32.2681 6.63144C32.1094 6.75599 31.8826 6.83 31.5982 6.83H31.5981H31.5981H31.5981H31.5981H31.5981H31.5981H31.5981H31.5981H31.5981H31.5981H31.598H31.598H31.598H31.598H31.598H31.598H31.598H31.598H31.598H31.598H31.598H31.5979H31.5979H31.5979H31.5979H31.5979H31.5979H31.5979H31.5979H31.5979H31.5979H31.5979H31.5979H31.5978H31.5978H31.5978H31.5978H31.5978H31.5978H31.5978H31.5978H31.5978H31.5978H31.5978H31.5978H31.5977H31.5977H31.5977H31.5977H31.5977H31.5977H31.5977H31.5977H31.5977H31.5977H31.5977H31.5977H31.5976H31.5976H31.5976H31.5976H31.5976H31.5976H31.5976H31.5976H31.5976H31.5976H31.5976H31.5976H31.5976H31.5976H31.5975H31.5975H31.5975H31.5975H31.5975H31.5975H31.5975H31.5975H31.5975H31.5975H31.5975H31.5975H31.5975H31.5974H31.5974H31.5974H31.5974H31.5974H31.5974H31.5974H31.5974H31.5974H31.5974H31.5974H31.5974H31.5974H31.5974H31.5974H31.5973H31.5973H31.5973H31.5973H31.5973H31.5973H31.5973H31.5973H31.5973H31.5973H31.5973H31.5973H31.5973H31.5973H31.5973H31.5972H31.5972H31.5972H31.5972H31.5972H31.5972H31.5972H31.5972H31.5972H31.5972H31.5972H31.5972H31.5972H31.5972H31.5972H31.5972H31.5972H31.5971H31.5971H31.5971H31.5971H31.5971H31.5971H31.5971H31.5971H31.5971H31.5971H31.5971H31.5971H31.5971H31.5971H31.5971H31.5971H31.5971H31.597H31.597H31.597H31.597H31.597H31.597H31.597H31.597H31.597H31.597H31.597H31.597H31.597H31.597H31.597H31.597H31.597H31.5969H31.5969H31.5969H31.5969H31.5969H31.5969H31.5969H31.5969H31.5969H31.5969H31.5969H31.5969H31.5969H31.5969H31.5969H31.5969H31.5969H31.5969H31.5969H31.5968H31.5968H31.5968H31.5968H31.5968H31.5968H31.5968H31.5968H31.5968H31.5968H31.5968H31.5968H31.5968H31.5968H31.5968H31.5968H31.5968H31.5968H31.5968H31.5967H31.5967H31.5967H31.5967H31.5967H31.5967H31.5967H31.5967H31.5967H31.5967H31.5967H31.5967H31.5967H31.5967H31.5967H31.5967H31.5967H31.5967H31.5967H31.5967H31.5966H31.5966H31.5966H31.5966H31.5966H31.5966H31.5966H31.5966H31.5966H31.5966H31.5966H31.5966H31.5966H31.5966H31.5966H31.5966H31.5966H31.5966H31.5966H31.5966H31.5966H31.5965H31.5965H31.5965H31.5965H31.5965H31.5965H31.5965H31.5965H31.5965H31.5965H31.5965H31.5965H31.5965H31.5965H31.5965H31.5965H31.5965H31.5965H31.5965H31.5965H31.5964H31.5964H31.5964H31.5964H31.5964H31.5964H31.5964H31.5964H31.5964H31.5964H31.5964H31.5964H31.5964H31.5964H31.5964H31.5964H31.5964H31.5964H31.5964H31.5964H31.5964H31.5963H31.5963H31.5963H31.5963H31.5963H31.5963H31.5963H31.5963H31.5963H31.5963H31.5963H31.5963H31.5963H31.5963H31.5963H31.5963H31.5963H31.5963H31.5963H31.5963H31.5962H31.5962H31.5962H31.5962H31.5962H31.5962H31.5962H31.5962H31.5962H31.5962H31.5962H31.5962H31.5962H31.5962H31.5962H31.5962H31.5962H31.5962H31.5962H31.5961H31.5961H31.5961H31.5961H31.5961H31.5961H31.5961H31.5961H31.5961H31.5961H31.5961H31.5961H31.5961H31.5961H31.5961H31.5961H31.5961H31.5961H31.5961H31.596H31.596H31.596H31.596H31.596H31.596H31.596H31.596H31.596H31.596H31.596H31.596H31.596H31.596H31.596H31.596H31.596H31.596H31.5959H31.5959H31.5959H31.5959H31.5959H31.5959H31.5959H31.5959H31.5959H31.5959H31.5959H31.5959H31.5959H31.5959H31.5959H31.5959H31.5959H31.5958H31.5958H31.5958H31.5958H31.5958H31.5958H31.5958H31.5958H31.5958H31.5958H31.5958H31.5958H31.5958H31.5958H31.5958H31.5958H31.5957H31.5957H31.5957H31.5957H31.5957H31.5957H31.5957H31.5957H31.5957H31.5957H31.5957H31.5957H31.5957H31.5957H31.5957H31.5957H31.5956H31.5956H31.5956H31.5956H31.5956H31.5956H31.5956H31.5956H31.5956H31.5956H31.5956H31.5956H31.5956H31.5956H31.5956H31.5955H31.5955H31.5955H31.5955H31.5955H31.5955H31.5955H31.5955H31.5955H31.5955H31.5955H31.5955H31.5955H31.5955H31.5954H31.5954H31.5954H31.5954H31.5954H31.5954H31.5954H31.5954H31.5954H31.5954H31.5954H31.5954H31.5954H31.5953H31.5953H31.5953H31.5953H31.5953H31.5953H31.5953H31.5953H31.5953H31.5953H31.5953H31.5953H31.5952H31.5952H31.5952H31.5952H31.5952H31.5952H31.5952H31.5952H31.5952H31.5952H31.5952H31.5952H31.5951H31.5951H31.5951H31.5951H31.5951H31.5951H31.5951H31.5951H31.5951H31.5951H31.5951H31.5951H31.595H31.595H31.595H31.595H31.595H31.595H31.595H31.595H31.595H31.595H31.595H31.5949H31.5949H31.5949H31.5949H31.5949H31.5949H31.5949H31.5949H31.5949H31.5949H31.5949H31.5948H31.5948H31.5926H31.5905H31.5883H31.5861H31.5838H31.5816H31.5794H31.5772H31.5749H31.5727H31.5704H31.5681H31.5659H31.5636H31.5613H31.559H31.5567H31.5544H31.5521H31.5497H31.5474H31.5451H31.5427H31.5404H31.538H31.5357H31.5333H31.5309H31.5285H31.5261H31.5237H31.5213H31.5189H31.5165H31.5141H31.5117H31.5092H31.5068H31.5043H31.5019H31.4994H31.497H31.4945H31.492H31.4895H31.487H31.4845H31.482H31.4795H31.477H31.4745H31.472H31.4695H31.4669H31.4644H31.4619H31.4593H31.4567H31.4542H31.4516H31.4491H31.4465H31.4439H31.4413H31.4387H31.4361H31.4335H31.4309H31.4283H31.4257H31.4231H31.4205H31.4178H31.4152H31.4126H31.4099H31.4073H31.4046H31.402H31.3993H31.3967H31.394H31.3913H31.3887H31.386H31.3833H31.3806H31.3779H31.3753H31.3726H31.3699H31.3672H31.3645H31.3617H31.359H31.3563H31.3536H31.3509H31.3481H31.3454H31.3427H31.3399H31.3372H31.3345H31.3317H31.329H31.3262H31.3235H31.3207H31.318H31.3152H31.3124H31.3097H31.3069H31.3041H31.3013H31.2986H31.2958H31.293H31.2902H31.2874H31.2847H31.2819H31.2791H31.2763H31.2735H31.2707H31.2679H31.2651H31.2623H31.2595H31.2567H31.2539H31.2511H31.2482H31.2454H31.2426H31.2398H31.237H31.2342H31.2313H31.2285H31.2257H31.2229H31.2201H31.2172H31.2144H31.2116H31.2087H31.2059H31.2031H31.2003H31.1974H31.1946H31.1918H31.1889H31.1861H31.1833H31.1804H31.1776H31.1748H31.1719H31.1691H31.1663H31.1634H31.1606H31.1577H31.1549H31.1521H31.1492H31.1464H31.1436H31.1407H31.1379H31.1351H31.1322H31.1294H31.1266H31.1237H31.1209H31.1181H31.1152H31.1124H31.1096H31.1068H31.1039H31.1011H31.0983H31.0955H31.0926H31.0898H31.087H31.0842H31.0814H31.0785H31.0757H31.0729H31.0701H31.0673H31.0645H31.0617H31.0589H31.0561H31.0532H31.0504H31.0476H31.0449H31.0421H31.0393H31.0365H31.0337H31.0309H31.0281H31.0253H31.0225H31.0198H31.017H31.0142H31.0114H31.0087H31.0059H31.0031H31.0004H30.9976H30.9949H30.9921H30.9894H30.9866H30.9839H30.9811H30.9784H30.9757H30.9729H30.9702H30.9675H30.9648H30.962H30.9593H30.9566H30.9539H30.9512H30.9485H30.9458H30.9431H30.9404H30.9377H30.935H30.9324H30.9297H30.927H30.9243H30.9217H30.919H30.9164H30.9137H30.9111H30.9084H30.9058H30.9032H30.9005H30.8979H30.8953H30.8927H30.89H30.8874H30.8848H30.8822H30.8796H30.8771H30.8745H30.8719H30.8693H30.8668H30.8642H30.8616H30.8591H30.8565H30.854H30.8515H30.8489H30.8464H30.8439H30.8414H30.8388H30.8363H30.8338H30.8314H30.8289H30.8264H30.8239H30.8214H30.819H30.8165H30.8141H30.8116H30.8092H30.8067H30.8043H30.8019H30.7995H30.7971H30.7947H30.7923H30.7899H30.7875H30.7851H30.7828H30.7804H30.778H30.7757H30.7733H30.771H30.7687H30.7664H30.764H30.7617H30.7594H30.7571H30.7549H30.7526H30.7503H30.748H30.7458H30.7435H30.7413H30.7391H30.7368H30.7346H30.7324H30.7302H30.728H30.7258H30.7236H30.7215H30.7193H30.7171H30.715H30.7128H30.7107H30.7086H30.7065H30.7044H30.7023H30.7002H30.6981H30.696H30.694H30.6919H30.6898H30.6878H30.6858H30.6838H30.6817H30.6797H30.6777H30.6758H30.6738H30.6718H30.6698H30.6679H30.666H30.664H30.6621H30.6602H30.6583H30.6564H30.6545H30.6526H30.6508H30.6489H30.6471H30.6452H30.6434H30.6416H30.6398H30.638H30.6362H30.6344H30.6326H30.6309H30.6291H30.6274H30.6257H30.624H30.6222H30.6206H30.6189H30.6172H30.6155H30.6139H30.6122H30.6106H30.609H30.6074H30.6058H30.6042H30.6026H30.601H30.5995H30.5979H30.5964H30.5949H30.5934H30.5919H30.5904H30.5889H30.5874H30.586H30.5845H30.5831H30.5817H30.5803H30.5789H30.5775H30.5761H30.5747H30.5734H30.572H30.5707H30.5694H30.5681H30.5668H30.5655H30.5643H30.563H30.5618H30.5605H30.5593H30.5581H30.5569H30.5557H30.5546H30.5534H30.5523H30.5512H30.55H30.5489H30.5478H30.5468H30.5457H30.5446H30.5436H30.5426H30.5416H30.5406H30.5396H30.5386H30.5377H30.5367H30.5358H30.5349H30.5339H30.5331H30.5322H30.5313H30.5305H30.5296H30.5288H30.528H30.5272H30.5264H30.5256H30.5249H30.5241H30.5234H30.5227H30.522H30.5213H30.5207H30.52H30.5194H30.5187H30.5181H30.5175H30.517H30.5164H30.5158H30.5153H30.5148H30.5143H30.5138H30.5133H30.5128H30.5124H30.5119H30.5115H30.5111H30.5107H30.5104H30.51H30.5097H30.5093H30.509H30.5087H30.5085H30.5082H30.5079H30.5077H30.5075H30.5073H30.5071H30.5069H30.5068H30.5066H30.5065H30.5064H30.5063H30.5063H30.5062H30.5062H30.5061L30.5061 6.93V6.83C30.3185 6.83 30.149 6.94185 30.0769 7.11554C30.0052 7.28655 30.0412 7.48513 30.1721 7.62028L30.1721 7.62029L32.9365 10.4727C32.9366 10.4728 32.9367 10.4728 32.9368 10.4729C33.0281 10.5684 33.1493 10.6148 33.271 10.6148C33.3896 10.6148 33.5057 10.5701 33.5973 10.4826L33.5978 10.4821C33.7835 10.3027 33.7881 10.0069 33.6083 9.82272C33.6082 9.82266 33.6082 9.8226 33.6081 9.82254L31.6087 7.76022C32.6336 7.75662 33.3925 7.12815 33.4719 6.17991L33.4719 6.17986C33.5444 5.31074 32.917 4.50125 32.0472 4.33082L32.028 4.42895ZM32.028 4.42895C31.8288 4.38912 31.6363 4.51857 31.5982 4.71773C31.56 4.91688 31.6894 5.1094 31.8869 5.14757M32.028 4.42895C32.8495 4.58994 33.4403 5.35502 33.3723 6.17156L31.8869 5.14757M31.8869 5.14757C32.3483 5.23885 32.6802 5.66205 32.6421 6.11181L31.8869 5.14757Z" fill="#6275E1" stroke="#6275E1" stroke-width="0.2"/>
</svg>
