<svg width="45" height="45" viewBox="0 0 45 45" fill="none" xmlns="http://www.w3.org/2000/svg">
<path d="M9.40469 22.3692C9.40469 15.3583 15.2558 9.66104 22.2895 9.66104C29.3251 9.66104 35.1743 15.3583 35.1743 22.3692C35.1743 29.5634 29.3184 35.254 22.2895 35.254C15.2605 35.254 9.40469 29.5634 9.40469 22.3692ZM10.6252 22.3731C10.6252 28.8324 15.8301 34.0373 22.2895 34.0373C28.7488 34.0373 33.9557 28.8324 33.9557 22.3731C33.9557 16.0758 28.7419 10.8777 22.2895 10.8777C15.837 10.8777 10.6252 16.0777 10.6252 22.3731Z" fill="#6275E1" stroke="#6275E1" stroke-width="0.2"/>
<mask id="path-2-inside-1_2461_1671" fill="white">
<path fill-rule="evenodd" clip-rule="evenodd" d="M42.6997 18.1366H38.3934L38.3236 17.8882C38.0189 16.8209 37.5512 15.6546 36.9399 14.43L36.8331 14.2165L39.8178 11.0436C40.0895 10.7739 40.2448 10.3469 40.2448 9.87728C40.2448 9.46781 40.1303 9.2 39.812 8.88368L35.9482 4.84328C35.6765 4.57159 35.2515 4.41634 34.7819 4.41634C34.3705 4.41634 34.1046 4.53278 33.7922 4.84328L30.6154 8.01816L30.3883 7.89008C29.2414 7.23414 28.2575 6.88871 26.9476 6.51417L26.6992 6.44236V1.96144C26.6992 1.0998 25.9675 0.370117 25.1059 0.370117H19.4761C18.6145 0.370117 17.8829 1.0998 17.8829 1.96144V6.44236L17.6345 6.51417C16.3226 6.88871 15.3387 7.23414 14.1937 7.89008L13.9589 8.02398L10.9664 4.84328C10.6947 4.57159 10.2697 4.41634 9.80011 4.41634C9.39064 4.41634 9.12284 4.53278 8.8104 4.84328L4.76416 8.8895C4.49248 9.16119 4.33723 9.5532 4.33723 9.96849C4.33723 10.3818 4.49248 10.7739 4.76416 11.0455L7.95264 14.236L7.79738 14.4688C7.15503 15.4333 6.6233 16.6171 6.25846 17.8921L6.1886 18.1405H1.88233C0.985755 18.1405 0.289062 18.9012 0.289062 19.5572V25.187C0.289062 26.0486 1.02069 26.7802 1.88233 26.7802H6.1886L6.25846 27.0286C6.6233 28.3036 7.15503 29.4874 7.79738 30.4519L7.95264 30.6848L4.76416 33.8713C4.49248 34.143 4.33723 34.535 4.33723 34.9483C4.33723 35.3617 4.49248 35.7537 4.75835 36.0215L8.83368 39.9183L8.85503 39.9494C9.16553 40.4132 9.42751 40.5005 9.80206 40.5005C10.3027 40.5005 10.6812 40.3161 10.9257 39.9494L10.9451 39.9202L13.9492 36.9181L14.1607 37.0093C14.4518 37.1335 14.7332 37.2596 15.0088 37.38C15.8898 37.77 16.7204 38.1407 17.6383 38.4007L17.8867 38.4725V42.9535C17.8867 43.883 18.6902 44.3701 19.48 44.3701H25.1098C25.8996 44.3701 26.703 43.883 26.703 42.9535V38.4725L26.9514 38.4007C27.8713 38.1387 28.7 37.77 29.581 37.38C29.8566 37.2577 30.138 37.1335 30.4291 37.0093L30.6348 36.922L33.8174 39.9164L33.8388 39.9494C34.1473 40.4132 34.4093 40.5005 34.7858 40.5005C35.2865 40.5005 35.663 40.3161 35.9094 39.9494L35.9288 39.9202L39.8217 36.0273C40.0934 35.7556 40.2487 35.3306 40.2487 34.861C40.2487 34.5893 40.0992 34.1488 39.814 33.8635L36.837 30.6984L36.9438 30.4849C37.557 29.2603 38.0228 28.096 38.3274 27.0267L38.3973 26.7783H42.7036C43.5652 26.7783 44.2968 26.0466 44.2968 25.185V19.5552C44.2929 18.8993 43.5963 18.1366 42.6997 18.1366ZM42.8646 25.35H37.7705C37.4328 25.35 37.1883 25.5615 37.0447 25.9807C36.6643 27.6884 36.0938 29.1148 35.2457 30.4674L35.2244 30.5004L35.1972 30.5295C34.9721 30.7546 35.2147 31.1156 35.3738 31.2767L38.9581 34.8629L34.78 39.0431L31.1937 35.4568C31.0365 35.2996 30.8424 35.2647 30.7085 35.2647C30.5901 35.2647 30.4698 35.2899 30.3708 35.3384C28.8513 36.2874 27.2367 36.9685 25.7056 37.3082L25.6687 37.3159H25.6318C25.5231 37.3159 25.2709 37.6322 25.2709 37.8535V42.9457H19.3092V37.8535C19.3092 37.8321 19.3053 37.3159 18.9483 37.3159H18.9114L18.8745 37.3082C17.2929 36.955 15.6647 36.2427 14.3955 35.3481C14.2189 35.2918 14.0559 35.2647 13.9084 35.2647C13.6853 35.2647 13.5145 35.3287 13.3864 35.4568L9.80011 39.0431L5.62193 34.8629L9.20628 31.2767C9.36735 31.1175 9.608 30.7566 9.38288 30.5295L9.35571 30.5004L9.33437 30.4674C8.48631 29.1129 7.91576 27.6884 7.5354 25.9807C7.39179 25.5634 7.14727 25.35 6.8096 25.35H1.71544V19.563H6.8096C7.14727 19.563 7.39179 19.3515 7.5354 18.9323C7.91576 17.2245 8.48631 15.7982 9.34018 14.4358C9.63322 13.9953 9.38288 13.6363 9.20628 13.4597L5.61611 9.86952L9.80788 5.87764L13.3864 9.45617C13.5145 9.58425 13.6853 9.64829 13.9084 9.64829C14.0559 9.64829 14.2209 9.62112 14.3955 9.56484C15.6589 8.67409 17.2793 7.96382 18.8571 7.61062C19.1908 7.49419 19.3112 7.30206 19.3112 6.88483V1.79066H25.2747V6.88483C25.2747 7.29818 25.5872 7.52524 25.7541 7.61645C27.2736 7.95994 28.8707 8.63722 30.3767 9.57649C30.4756 9.625 30.596 9.65023 30.7143 9.65023C30.8502 9.65023 31.0423 9.6153 31.1995 9.45811L34.778 5.87958L38.9698 9.87146L35.3796 13.4616C35.203 13.6382 34.9527 13.9973 35.2515 14.4455C36.0996 15.8001 36.6701 17.2245 37.0505 18.9323C37.1941 19.3495 37.4386 19.563 37.7763 19.563H42.8705V25.35H42.8646Z"/>
</mask>
<path fill-rule="evenodd" clip-rule="evenodd" d="M42.6997 18.1366H38.3934L38.3236 17.8882C38.0189 16.8209 37.5512 15.6546 36.9399 14.43L36.8331 14.2165L39.8178 11.0436C40.0895 10.7739 40.2448 10.3469 40.2448 9.87728C40.2448 9.46781 40.1303 9.2 39.812 8.88368L35.9482 4.84328C35.6765 4.57159 35.2515 4.41634 34.7819 4.41634C34.3705 4.41634 34.1046 4.53278 33.7922 4.84328L30.6154 8.01816L30.3883 7.89008C29.2414 7.23414 28.2575 6.88871 26.9476 6.51417L26.6992 6.44236V1.96144C26.6992 1.0998 25.9675 0.370117 25.1059 0.370117H19.4761C18.6145 0.370117 17.8829 1.0998 17.8829 1.96144V6.44236L17.6345 6.51417C16.3226 6.88871 15.3387 7.23414 14.1937 7.89008L13.9589 8.02398L10.9664 4.84328C10.6947 4.57159 10.2697 4.41634 9.80011 4.41634C9.39064 4.41634 9.12284 4.53278 8.8104 4.84328L4.76416 8.8895C4.49248 9.16119 4.33723 9.5532 4.33723 9.96849C4.33723 10.3818 4.49248 10.7739 4.76416 11.0455L7.95264 14.236L7.79738 14.4688C7.15503 15.4333 6.6233 16.6171 6.25846 17.8921L6.1886 18.1405H1.88233C0.985755 18.1405 0.289062 18.9012 0.289062 19.5572V25.187C0.289062 26.0486 1.02069 26.7802 1.88233 26.7802H6.1886L6.25846 27.0286C6.6233 28.3036 7.15503 29.4874 7.79738 30.4519L7.95264 30.6848L4.76416 33.8713C4.49248 34.143 4.33723 34.535 4.33723 34.9483C4.33723 35.3617 4.49248 35.7537 4.75835 36.0215L8.83368 39.9183L8.85503 39.9494C9.16553 40.4132 9.42751 40.5005 9.80206 40.5005C10.3027 40.5005 10.6812 40.3161 10.9257 39.9494L10.9451 39.9202L13.9492 36.9181L14.1607 37.0093C14.4518 37.1335 14.7332 37.2596 15.0088 37.38C15.8898 37.77 16.7204 38.1407 17.6383 38.4007L17.8867 38.4725V42.9535C17.8867 43.883 18.6902 44.3701 19.48 44.3701H25.1098C25.8996 44.3701 26.703 43.883 26.703 42.9535V38.4725L26.9514 38.4007C27.8713 38.1387 28.7 37.77 29.581 37.38C29.8566 37.2577 30.138 37.1335 30.4291 37.0093L30.6348 36.922L33.8174 39.9164L33.8388 39.9494C34.1473 40.4132 34.4093 40.5005 34.7858 40.5005C35.2865 40.5005 35.663 40.3161 35.9094 39.9494L35.9288 39.9202L39.8217 36.0273C40.0934 35.7556 40.2487 35.3306 40.2487 34.861C40.2487 34.5893 40.0992 34.1488 39.814 33.8635L36.837 30.6984L36.9438 30.4849C37.557 29.2603 38.0228 28.096 38.3274 27.0267L38.3973 26.7783H42.7036C43.5652 26.7783 44.2968 26.0466 44.2968 25.185V19.5552C44.2929 18.8993 43.5963 18.1366 42.6997 18.1366ZM42.8646 25.35H37.7705C37.4328 25.35 37.1883 25.5615 37.0447 25.9807C36.6643 27.6884 36.0938 29.1148 35.2457 30.4674L35.2244 30.5004L35.1972 30.5295C34.9721 30.7546 35.2147 31.1156 35.3738 31.2767L38.9581 34.8629L34.78 39.0431L31.1937 35.4568C31.0365 35.2996 30.8424 35.2647 30.7085 35.2647C30.5901 35.2647 30.4698 35.2899 30.3708 35.3384C28.8513 36.2874 27.2367 36.9685 25.7056 37.3082L25.6687 37.3159H25.6318C25.5231 37.3159 25.2709 37.6322 25.2709 37.8535V42.9457H19.3092V37.8535C19.3092 37.8321 19.3053 37.3159 18.9483 37.3159H18.9114L18.8745 37.3082C17.2929 36.955 15.6647 36.2427 14.3955 35.3481C14.2189 35.2918 14.0559 35.2647 13.9084 35.2647C13.6853 35.2647 13.5145 35.3287 13.3864 35.4568L9.80011 39.0431L5.62193 34.8629L9.20628 31.2767C9.36735 31.1175 9.608 30.7566 9.38288 30.5295L9.35571 30.5004L9.33437 30.4674C8.48631 29.1129 7.91576 27.6884 7.5354 25.9807C7.39179 25.5634 7.14727 25.35 6.8096 25.35H1.71544V19.563H6.8096C7.14727 19.563 7.39179 19.3515 7.5354 18.9323C7.91576 17.2245 8.48631 15.7982 9.34018 14.4358C9.63322 13.9953 9.38288 13.6363 9.20628 13.4597L5.61611 9.86952L9.80788 5.87764L13.3864 9.45617C13.5145 9.58425 13.6853 9.64829 13.9084 9.64829C14.0559 9.64829 14.2209 9.62112 14.3955 9.56484C15.6589 8.67409 17.2793 7.96382 18.8571 7.61062C19.1908 7.49419 19.3112 7.30206 19.3112 6.88483V1.79066H25.2747V6.88483C25.2747 7.29818 25.5872 7.52524 25.7541 7.61645C27.2736 7.95994 28.8707 8.63722 30.3767 9.57649C30.4756 9.625 30.596 9.65023 30.7143 9.65023C30.8502 9.65023 31.0423 9.6153 31.1995 9.45811L34.778 5.87958L38.9698 9.87146L35.3796 13.4616C35.203 13.6382 34.9527 13.9973 35.2515 14.4455C36.0996 15.8001 36.6701 17.2245 37.0505 18.9323C37.1941 19.3495 37.4386 19.563 37.7763 19.563H42.8705V25.35H42.8646Z" fill="#6275E1" stroke="#6275E1" stroke-width="0.4" mask="url(#path-2-inside-1_2461_1671)"/>
<path d="M26.9289 17.7689H17.6449C17.2266 17.7689 16.8891 17.4313 16.8891 17.013C16.8891 16.5948 17.2266 16.2572 17.6449 16.2572H26.9289C27.3472 16.2572 27.6847 16.5948 27.6847 17.013C27.6847 17.4312 27.3454 17.7689 26.9289 17.7689Z" fill="#6275E1" stroke="#6275E1" stroke-width="0.2"/>
<path d="M26.9289 20.9652H17.6449C17.2266 20.9652 16.8891 20.6276 16.8891 20.2093C16.8891 19.791 17.2266 19.4535 17.6449 19.4535H26.9289C27.3472 19.4535 27.6847 19.791 27.6847 20.2093C27.6847 20.6275 27.3454 20.9652 26.9289 20.9652Z" fill="#6275E1" stroke="#6275E1" stroke-width="0.2"/>
<path d="M25.4191 20.2749C25.2475 22.3149 23.6199 23.6919 21.3386 23.6919H21.3386H21.3386H21.3385H21.3385H21.3385H21.3385H21.3384H21.3384H21.3384H21.3384H21.3384H21.3383H21.3383H21.3383H21.3383H21.3382H21.3382H21.3382H21.3382H21.3381H21.3381H21.3381H21.3381H21.3381H21.338H21.338H21.338H21.338H21.3379H21.3379H21.3379H21.3379H21.3379H21.3378H21.3378H21.3378H21.3378H21.3377H21.3377H21.3377H21.3377H21.3377H21.3376H21.3376H21.3376H21.3376H21.3375H21.3375H21.3375H21.3375H21.3374H21.3374H21.3374H21.3374H21.3374H21.3373H21.3373H21.3373H21.3373H21.3372H21.3372H21.3372H21.3372H21.3372H21.3371H21.3371H21.3371H21.3371H21.337H21.337H21.337H21.337H21.3369H21.3369H21.3369H21.3369H21.3369H21.3368H21.3368H21.3368H21.3368H21.3367H21.3367H21.3367H21.3367H21.3367H21.3366H21.3366H21.3366H21.3366H21.3365H21.3365H21.3365H21.3365H21.3365H21.3364H21.3364H21.3364H21.3364H21.3363H21.3363H21.3363H21.3363H21.3363H21.3362H21.3362H21.3362H21.3362H21.3361H21.3361H21.3361H21.3361H21.3361H21.336H21.336H21.336H21.336H21.3359H21.3359H21.3359H21.3359H21.3359H21.3358H21.3358H21.3358H21.3358H21.3357H21.3357H21.3357H21.3357H21.3357H21.3356H21.3356H21.3356H21.3356H21.3355H21.3355H21.3355H21.3355H21.3355H21.3354H21.3354H21.3354H21.3354H21.3354H21.3353H21.3353H21.3353H21.3353H21.3352H21.3352H21.3352H21.3352H21.3352H21.3351H21.3351H21.3351H21.3351H21.335H21.335H21.335H21.335H21.335H21.3349H21.3349H21.3349H21.3349H21.3349H21.3348H21.3348H21.3348H21.3348H21.3347H21.3347H21.3347H21.3347H21.3347H21.3346H21.3346H21.3346H21.3346H21.3346H21.3345H21.3345H21.3345H21.3345H21.3344H21.3344H21.3344H21.3344H21.3344H21.3343H21.3343H21.3343H21.3343H21.3343H21.3342H21.3342H21.3342H21.3342H21.3342H21.3341H21.3341H21.3341H21.3341H21.334H21.334H21.334H21.334H21.334H21.3339H21.3339H21.3339H21.3339H21.3339H21.3338H21.3338H21.3338H21.3338H21.3338H21.3337H21.3337H21.3337H21.3337H21.3337H21.3336H21.3336H21.3336H21.3336H21.3336H21.3335H21.3335H21.3335H21.3335H21.3334H21.3334H21.3334H21.3334H21.3334H21.3333H21.3333H21.3333H21.3333H21.3333H21.3332H21.3332H21.3332H21.3332H21.3332H21.3331H21.3331H21.3331H21.3331H21.3331H21.333H21.333H21.333H21.333H21.333H21.3329H21.3329H21.3329H21.3329H21.3329H21.3328H21.3328H21.3328H21.3328H21.3328H21.3327H21.3327H21.3327H21.3327H21.3327H21.3327H21.3326H21.3326H21.3326H21.3326H21.3326H21.3325H21.3325H21.3325H21.3325H21.3325H21.3324H21.3324H21.3324H21.3324H21.3324H21.3323H21.3323H21.3323H21.3323H21.3323H21.3322H21.3322H21.3322H21.3322H21.3322H21.3322H21.3321H21.3321H21.3321H21.3321H21.3321H21.332H21.332H21.332H21.332H21.332H21.3319H21.3319H21.3319H21.3319H21.3319H21.3319H21.3318H21.3318H21.3318H21.3318H21.3318H21.3317H21.3317H21.3317H21.3317H21.3317H21.3317H21.3316H21.3316H21.3316H21.3316H21.3316H21.3315H21.3315H21.3315H21.3315H21.3315H21.3315H21.3314H21.3314H21.3314H21.3314H21.3314H21.3314H21.3313H21.3313H21.3313H21.3313H21.3313H21.3312H21.3312H21.3312H21.3312H21.3312H21.3312H21.3311H21.3311H21.3311H21.3311H21.3311H21.3311H21.331H21.331H21.331H21.331H21.331H21.331H21.3309H21.3309H21.3309H21.3309H21.3309H21.3309H21.3308H21.3308H21.3308H21.3308H21.3308H21.3308H21.3307H21.3307H21.3307H21.3307H21.3307H21.3307H21.3306H21.3306H21.3306H21.3306H21.3306H21.3306H21.3305H21.3305H21.3305H21.3305H21.3305H21.3305H21.3305H21.3304H21.3304H21.3304H21.3304H21.3304H21.3304H21.3303H21.3303H21.3303H21.3303H21.3303H21.3303H21.3302H21.3302H21.3302H21.3302H21.3302H21.3302H21.3302H21.3301H21.3301H21.3301H21.3301H21.3301H21.3301H21.3301H21.33H21.33H21.33H21.33H21.33H21.33H21.3299H21.3299H21.3299H21.3299H21.3299H21.3299H21.3299H21.3298H21.3298H21.3298H21.3298H21.3298H21.3298H21.3298H21.3297H21.3297H21.3297H21.3297H21.3297H21.3297H21.3297H21.3296H21.3296H21.3296H21.3296H21.3296H21.3296H21.3296H21.3296H21.3295H21.3295H21.3295H21.3295H21.3295H21.3295H21.3295H21.3294H21.3294H21.3294H21.3294H21.3294H21.3294H21.3294H21.3294H21.3293H21.3293H21.3293H21.3293H21.3293H21.3293H21.3293H21.3293H21.3292H21.3292H21.3292H21.3292H21.3292H21.3292H21.3292H21.3292H21.3291H21.3291H21.3291H21.3291H21.3291H21.3291H21.3291H21.3291H21.329H21.329H21.329H21.329H21.329H21.329H21.329H21.329H21.3289H21.3289H21.3289H21.3289H21.3289H21.328H21.327H21.3261H21.3252H21.3242H21.3233H21.3224H21.3214H21.3205H21.3195H21.3186H21.3177H21.3167H21.3158H21.3148H21.3139H21.313H21.312H21.3111H21.3101H21.3092H21.3082H21.3073H21.3063H21.3054H21.3045H21.3035H21.3026H21.3016H21.3007H21.2997H21.2988H21.2978H21.2968H21.2959H21.2949H21.294H21.293H21.2921H21.2911H21.2902H21.2892H21.2882H21.2873H21.2863H21.2854H21.2844H21.2834H21.2825H21.2815H21.2806H21.2796H21.2786H21.2777H21.2767H21.2757H21.2748H21.2738H21.2728H21.2719H21.2709H21.2699H21.269H21.268H21.267H21.266H21.2651H21.2641H21.2631H21.2621H21.2612H21.2602H21.2592H21.2582H21.2573H21.2563H21.2553H21.2543H21.2534H21.2524H21.2514H21.2504H21.2494H21.2484H21.2475H21.2465H21.2455H21.2445H21.2435H21.2425H21.2416H21.2406H21.2396H21.2386H21.2376H21.2366H21.2356H21.2346H21.2336H21.2327H21.2317H21.2307H21.2297H21.2287H21.2277H21.2267H21.2257H21.2247H21.2237H21.2227H21.2217H21.2207H21.2197H21.2187H21.2177H21.2167H21.2157H21.2147H21.2137H21.2127H21.2117H21.2107H21.2097H21.2087H21.2077H21.2067H21.2057H21.2047H21.2037H21.2027H21.2016H21.2006H21.1996H21.1986H21.1976H21.1966H21.1956H21.1946H21.1936H21.1925H21.1915H21.1905H21.1895H21.1885H21.1875H21.1865H21.1854H21.1844H21.1834H21.1824H21.1814H21.1803H21.1793H21.1783H21.1773H21.1763H21.1752H21.1742H21.1732H21.1722H21.1711H21.1701H21.1691H21.1681H21.167H21.166H21.165H21.164H21.1629H21.1619H21.1609H21.1598H21.1588H21.1578H21.1568H21.1557H21.1547H21.1537H21.1526H21.1516H21.1506H21.1495H21.1485H21.1474H21.1464H21.1454H21.1443H21.1433H21.1423H21.1412H21.1402H21.1391H21.1381H21.1371H21.136H21.135H21.1339H21.1329H21.1318H21.1308H21.1297H21.1287H21.1277H21.1266H21.1256H21.1245H21.1235H21.1224H21.1214H21.1203H21.1193H21.1182H21.1172H21.1161H21.1151H21.114H21.113H21.1119H21.1109H21.1098H21.1087H21.1077H21.1066H21.1056H21.1045H21.1035H21.1024H21.1013H21.1003H21.0992H21.0982H21.0971H21.0961H21.095H21.0939H21.0929H21.0918H21.0907H21.0897H21.0886H21.0875H21.0865H21.0854H21.0844H21.0833H21.0822H21.0812H21.0801H21.079H21.0779H21.0769H21.0758H21.0747H21.0737H21.0726H21.0715H21.0705H21.0694H21.0683H21.0672H21.0662H21.0651H21.064H21.0629H21.0619H21.0608H21.0597H21.0586H21.0576H21.0565H21.0554H21.0543H21.0532H21.0522H21.0511H21.05H21.0489H21.0478H21.0468H21.0457H21.0446H21.0435H21.0424H21.0413H21.0403H21.0392H21.0381H21.037H21.0359H21.0348H21.0337H21.0326H21.0316H21.0305H21.0294H21.0283H21.0272H21.0261H21.025H21.0239H21.0228H21.0217H21.0207H21.0196H21.0185H21.0174H21.0163H21.0152H21.0141H21.013H21.0119H21.0108H21.0097H21.0086H21.0075H21.0064H21.0053H21.0042H21.0031H21.002H21.0009H20.9998H20.9987H20.9976H20.9965H20.9954H20.9943H20.9932H20.9921H20.991H20.9899H20.9888H20.9877H20.9866H20.9855H20.9843H20.9832H20.9821H20.981H20.9799H20.9788H20.9777H20.9766H20.9755H20.9744H20.9733H20.9721H20.971H20.9699H20.9688H20.9677H20.9666H20.9655H20.9644H20.9632H20.9621H20.961H20.9599H20.9588H20.9577H20.9565H20.9554H20.9543H20.9532H20.9521H20.951H20.9498H20.9487H20.9476H20.9465H20.9454H20.9442H20.9431H20.942H20.9409H20.9397H20.9386H20.9375H20.9364H20.9352H20.9341H20.933H20.9319H20.9307H20.9296H20.9285H20.9274H20.9262H20.9251H20.924H20.9228H20.9217H20.9206H20.9195H20.9183H20.9172H20.9161H20.9149H20.9138H20.9127H20.9115H20.9104H20.9093H20.9081H20.907H20.9059H20.9047H20.9036H20.9025H20.9013H20.9002H20.899H20.8979H20.8968H20.8956H20.8945H20.8934H20.8922H20.8911H20.8899H20.8888H20.8877H20.8865H20.8854H20.8842H20.8831H20.882H20.8808H20.8797H20.8785H20.8774H20.8762H20.8751H20.8739H20.8728H20.8717H20.8705H20.8694H20.8682H20.8671H20.8659H20.8648H20.8636H20.8625H20.8613H20.8602H20.859H20.8579H20.8567H20.8556H20.8544H20.8533H20.8521H20.851H20.8498H20.8487H20.8475H20.8464H20.8452H20.8441H20.8429H20.8417H20.8406H20.8394H20.8383H20.8371H20.836H20.8348H20.8337H20.8325H20.8313H20.8302H20.829H20.8279H20.8267H20.8255H20.8244H20.8232H20.8221H20.8209H20.8197H20.8186H20.8174H20.8163H20.8151H20.8139H20.8128H20.8116H20.8104H20.8093H20.8081H20.8069H20.8058H20.8046H20.8035H20.8023H20.8011H20.8H20.7988H20.7976H20.7964H20.7953H20.7941H20.7929H20.7918H20.7906H20.7894H20.7883H20.7871H20.7859H20.7848H20.7836H20.5474L20.7118 23.8615L25.837 29.1497L25.8371 29.1498C26.1281 29.4494 26.12 29.9273 25.8201 30.219C25.6745 30.3576 25.4862 30.4278 25.2956 30.4278C25.0986 30.4278 24.9015 30.3508 24.752 30.1981C24.752 30.198 24.7519 30.198 24.7519 30.1979L18.22 23.4603C18.22 23.4603 18.22 23.4603 18.22 23.4603C18.009 23.2425 17.9475 22.9184 18.0656 22.6393C18.1839 22.36 18.4581 22.1783 18.7614 22.1783H18.7616L18.7614 22.0783L18.7616 22.1783H18.7616L18.7619 22.1783L18.7628 22.1783L18.7664 22.1783L18.7808 22.1783L18.8361 22.1782L19.0402 22.178L19.7187 22.1776C20.2519 22.1773 20.8941 22.1773 21.3306 22.1783H21.3308H21.3309H21.3309H21.3309H21.3309H21.3309H21.3309H21.3309H21.3309H21.3309H21.331H21.331H21.331H21.331H21.331H21.331H21.331H21.331H21.3311H21.3311H21.3311H21.3311H21.3311H21.3311H21.3311H21.3311H21.3312H21.3312H21.3312H21.3312H21.3312H21.3312H21.3312H21.3312H21.3313H21.3313H21.3313H21.3313H21.3313H21.3313H21.3313H21.3313H21.3314H21.3314H21.3314H21.3314H21.3314H21.3314H21.3314H21.3315H21.3315H21.3315H21.3315H21.3315H21.3315H21.3315H21.3315H21.3316H21.3316H21.3316H21.3316H21.3316H21.3316H21.3316H21.3317H21.3317H21.3317H21.3317H21.3317H21.3317H21.3317H21.3318H21.3318H21.3318H21.3318H21.3318H21.3318H21.3318H21.3319H21.3319H21.3319H21.3319H21.3319H21.3319H21.3319H21.332H21.332H21.332H21.332H21.332H21.332H21.332H21.3321H21.3321H21.3321H21.3321H21.3321H21.3321H21.3321H21.3322H21.3322H21.3322H21.3322H21.3322H21.3322H21.3323H21.3323H21.3323H21.3323H21.3323H21.3323H21.3323H21.3324H21.3324H21.3324H21.3324H21.3324H21.3324H21.3324H21.3325H21.3325H21.3325H21.3325H21.3325H21.3325H21.3326H21.3326H21.3326H21.3326H21.3326H21.3326H21.3327H21.3327H21.3327H21.3327H21.3327H21.3327H21.3327H21.3328H21.3328H21.3328H21.3328H21.3328H21.3328H21.3329H21.3329H21.3329H21.3329H21.3329H21.3329H21.333H21.333H21.333H21.333H21.333H21.333H21.333H21.3331H21.3331H21.3331H21.3331H21.3331H21.3331H21.3332H21.3332H21.3332H21.3332H21.3332H21.3332H21.3333H21.3333H21.3333H21.3333H21.3333H21.3333H21.3334H21.3334H21.3334H21.3334H21.3334H21.3334H21.3335H21.3335H21.3335H21.3335H21.3335H21.3335H21.3336H21.3336H21.3336H21.3336H21.3336H21.3336H21.3337H21.3337H21.3337H21.3337H21.3337H21.3337H21.3338H21.3338H21.3338H21.3338H21.3338H21.3338H21.3339H21.3339H21.3339H21.3339H21.3339H21.3339H21.334H21.334H21.334H21.334H21.334H21.334H21.3341H21.3341H21.3341H21.3341H21.3341H21.3341H21.3342H21.3342H21.3342H21.3342H21.3342H21.3342H21.3343H21.3343H21.3343H21.3343H21.3343H21.3344H21.3344H21.3344H21.3344H21.3344H21.3344H21.3345H21.3345H21.3345H21.3345H21.3345H21.3345H21.3346H21.3346H21.3346H21.3346H21.3346H21.3346H21.3347H21.3347H21.3347H21.3347H21.3347H21.3347H21.3348H21.3348H21.3348H21.3348H21.3348H21.3348H21.3349H21.3349H21.3349H21.3349H21.3349H21.3349H21.335H21.335H21.335H21.335H21.335H21.335H21.3351H21.3351H21.3351H21.3351H21.3351H21.3352H21.3352H21.3352H21.3352H21.3352H21.3352H21.3353H21.3353H21.3353H21.3353H21.3353H21.3353H21.3354H21.3354H21.3354H21.3354H21.3354H21.3354H21.3355H21.3355H21.3355H21.3355H21.3355H21.3355H21.3356H21.3356H21.3356H21.3356H21.3356H21.3356H21.3357H21.3357H21.3357H21.3357H21.3357H21.3357H21.3358H21.3358H21.3358H21.3358H21.3358H21.3358H21.3359H21.3359H21.3359H21.3359H21.3359H21.3359H21.336H21.336H21.336H21.336H21.336H21.336H21.3361H21.3361H21.3361H21.3361H21.3361H21.3361H21.3362H21.3362H21.3362H21.3362H21.3362H21.3362H21.3363H21.3363H21.3363H21.3363H21.3363H21.3363H21.3364H21.3364H21.3364H21.3364H21.3364H21.3364H21.3364H21.3365H21.3365H21.3365H21.3365H21.3365H21.3365H21.3366H21.3366H21.3366H21.3366H21.3366H21.3366H21.3367H21.3367H21.3367H21.3367H21.3367H21.3367H21.3368H21.3368H21.3368H21.3368H21.3368H21.3368H21.3368H21.3369H21.3369H21.3369H21.3369H21.3369H21.3369H21.337H21.337H21.337H21.337H21.337H21.337H21.337H21.3371H21.3371H21.3371H21.3371H21.3371H21.3371H21.3372H21.3372H21.3372H21.3372H21.3372H21.3372H21.3372H21.3373H21.3373H21.3373H21.3373H21.3373H21.3373H21.3373H21.3374H21.3374H21.3374H21.3374H21.3374H21.3374H21.3375H21.3375H21.3375H21.3375H21.3375H21.3375H21.3375H21.3376H21.3376H21.3376H21.3376H21.3376H21.3376H21.3376H21.3377H21.3377H21.3377H21.3377H21.3377H21.3377H21.3377H21.3378H21.3378H21.3378H21.3378H21.3378H21.3378H21.3378H21.3378H21.3379H21.3379H21.3379H21.3379H21.3379H21.3379H21.3379H21.338H21.338H21.338H21.338H21.338H21.338H21.338H21.3381H21.3381H21.3381H21.3381H21.3381H21.3381H21.3381H21.3381H21.3382H21.3382H21.3382H21.3382H21.3382H21.3382H21.3382H21.3382H21.3383H21.3383H21.3383H21.3383H21.3383H21.3383H21.3383H21.3383H21.3384H21.3384H21.3384H21.3384H21.3384H21.3384H21.3384H21.3384H21.3385H21.3385H21.3385H21.3385H21.3385H21.3385H21.3385H21.3385H21.3385H21.3386H21.3386H21.3386H21.3386H21.3386C22.0686 22.1783 22.6853 21.9881 23.1345 21.6357C23.5852 21.2821 23.8599 20.7709 23.9126 20.1461L23.9126 20.146C24.0063 19.0247 23.1823 17.978 22.0409 17.7554L22.0217 17.8536C21.5579 17.7623 21.2552 17.3141 21.3464 16.8503C21.4376 16.3864 21.8859 16.0837 22.3497 16.1749L25.4191 20.2749Z" fill="#6275E1" stroke="#6275E1" stroke-width="0.2"/>
</svg>
