<svg width="40" height="40" viewBox="0 0 40 40" fill="none" xmlns="http://www.w3.org/2000/svg">
<path d="M9.9987 23.3334H15.082L23.4154 15C23.6654 14.75 23.8531 14.465 23.9787 14.145C24.1043 13.825 24.1665 13.5128 24.1654 13.2084C24.1643 12.9039 24.0948 12.6056 23.957 12.3134C23.8193 12.0212 23.6387 11.75 23.4154 11.5L21.9154 9.91671C21.6654 9.66671 21.3876 9.47949 21.082 9.35504C20.7765 9.2306 20.457 9.16782 20.1237 9.16671C19.8181 9.16671 19.5059 9.22949 19.187 9.35504C18.8681 9.4806 18.5831 9.66782 18.332 9.91671L9.9987 18.25V23.3334ZM12.4987 20.8334V19.25L16.707 15.0417L17.5404 15.7917L18.2904 16.625L14.082 20.8334H12.4987ZM17.5404 15.7917L18.2904 16.625L16.707 15.0417L17.5404 15.7917ZM18.6237 23.3334H29.9987V20H21.957L18.6237 23.3334ZM3.33203 36.6667V6.66671C3.33203 5.75004 3.6587 4.9656 4.31203 4.31337C4.96536 3.66115 5.74981 3.33449 6.66536 3.33337H33.332C34.2487 3.33337 35.0337 3.66004 35.687 4.31337C36.3404 4.96671 36.6665 5.75115 36.6654 6.66671V26.6667C36.6654 27.5834 36.3393 28.3684 35.687 29.0217C35.0348 29.675 34.2498 30.0012 33.332 30H9.9987L3.33203 36.6667ZM8.58203 26.6667H33.332V6.66671H6.66536V28.5417L8.58203 26.6667Z" fill="#6275E1"/>
</svg>
