<?xml version="1.0" encoding="UTF-8"?>
<svg id="Layer_1" xmlns="http://www.w3.org/2000/svg" version="1.1" viewBox="0 0 1080 1080">
  <!-- Generator: Adobe Illustrator 29.6.0, SVG Export Plug-In . SVG Version: 2.1.1 Build 207)  -->
  <defs>
    <style>
      .st0 {
        stroke-linecap: round;
      }

      .st0, .st1, .st2, .st3 {
        fill: none;
        stroke: #4b5ca8;
        stroke-miterlimit: 10;
      }

      .st0, .st2 {
        stroke-width: 23.94px;
      }

      .st1, .st2 {
        opacity: .98;
      }

      .st1, .st3 {
        stroke-width: 29.93px;
      }

      .st4 {
        font-family: ArialRoundedMTBold, 'Arial Rounded MT Bold';
        font-size: 155.61px;
      }

      .st4, .st5 {
        fill: #4b5ca8;
      }
    </style>
  </defs>
  <path class="st1" d="M803.79,392.6v265.55h-191.46c-26.44,0-47.88,21.44-47.88,47.88v240.19c0,26.45,21.44,47.88,47.88,47.88H153.4c-26.44,0-47.88-21.43-47.88-47.88V132.92c0-26.44,21.44-47.88,47.88-47.88h602.51c15.68,0,29.6,7.54,38.33,19.19-65.01,15.23-113.42,73.57-113.42,143.22s53.21,133.62,122.97,145.15Z"/>
  <path class="st1" d="M735.71,447.14v211.01h-123.39c-26.44,0-47.88,21.44-47.88,47.88v83.88H197.53c-13.23,0-23.94-10.73-23.94-23.94v-318.83c0-13.22,10.71-23.94,23.94-23.94h514.24c13.23,0,23.94,10.73,23.94,23.94Z"/>
  <line class="st3" x1="270.2" y1="423.2" x2="270.2" y2="789.9"/>
  <line class="st3" x1="173.59" y1="522.82" x2="735.71" y2="522.82"/>
  <line class="st3" x1="270.2" y1="616.14" x2="735.71" y2="616.14"/>
  <line class="st3" x1="564.44" y1="709.46" x2="270.2" y2="709.46"/>
  <path class="st3" d="M975.06,247.45c0,81.25-65.87,147.13-147.11,147.13-8.22,0-16.29-.67-24.16-1.98-69.76-11.53-122.97-72.12-122.97-145.15s48.41-128,113.42-143.22c10.82-2.55,22.11-3.89,33.71-3.89,81.24,0,147.11,65.86,147.11,147.11Z"/>
  <path class="st1" d="M975.06,706.03v240.19c0,26.45-21.44,47.88-47.88,47.88h-314.85c-26.44,0-47.88-21.43-47.88-47.88v-240.19c0-26.44,21.44-47.88,47.88-47.88h314.85c26.44,0,47.88,21.44,47.88,47.88Z"/>
  <line class="st3" x1="564.44" y1="743.38" x2="975.06" y2="743.38"/>
  <path class="st2" d="M677.42,796.1v47.1c0,5.19-3.67,9.39-8.19,9.39h-53.88c-4.52,0-8.19-4.2-8.19-9.39v-47.1c0-5.18,3.67-9.39,8.19-9.39h53.88c4.52,0,8.19,4.2,8.19,9.39Z"/>
  <path class="st2" d="M785.15,796.1v47.1c0,5.19-3.67,9.39-8.19,9.39h-53.88c-4.52,0-8.19-4.2-8.19-9.39v-47.1c0-5.18,3.67-9.39,8.19-9.39h53.88c4.52,0,8.19,4.2,8.19,9.39Z"/>
  <path class="st2" d="M677.42,891.86v47.1c0,5.19-3.67,9.39-8.19,9.39h-53.88c-4.52,0-8.19-4.2-8.19-9.39v-47.1c0-5.18,3.67-9.39,8.19-9.39h53.88c4.52,0,8.19,4.2,8.19,9.39Z"/>
  <path class="st2" d="M892.88,796.1v47.1c0,5.19-3.67,9.39-8.19,9.39h-53.88c-4.52,0-8.19-4.2-8.19-9.39v-47.1c0-5.18,3.67-9.39,8.19-9.39h53.88c4.52,0,8.19,4.2,8.19,9.39Z"/>
  <text class="st4" transform="translate(310.06 309.95)"><tspan x="0" y="0">PAY</tspan></text>
  <path class="st5" d="M850.76,192.19c3.6,5.8,7.38,11.83,8.24,18.75,8.02-.33,20.77-1.35,19.94,10.28-.74,10.31-12.66,8.57-19.94,8.55-2.56,16.12-15.84,30.45-31.24,35.35-1.72.55-7.55,2.18-8.97,2.18h-20.24l60.1,60.47c5.52,8.92-4.8,18.96-13.47,12.89l-76.86-76.87c-4.47-5.3-1.28-14,5.44-15.13,14.88-2.5,37.92,3.55,51.59-2.97,6.81-3.25,11.46-9.1,14.26-15.95h-65.99c-3.58,0-7.3-5.62-7.38-9.1-.09-3.7,3.52-9.68,7.38-9.68h65.99c-2.66-6.43-6.86-12.02-13.09-15.37-12.86-6.91-36.93-1.75-51.73-3.41-11.32-1.27-11.57-17.73.56-18.81l95.59.08c6.76,1.11,10.28,8.73,6.48,14.59-.86,1.33-4.37,4.14-5.84,4.14h-20.83Z"/>
  <line class="st0" x1="163.16" y1="837.7" x2="395.91" y2="837.7"/>
  <line class="st0" x1="163.16" y1="873.62" x2="329.49" y2="873.62"/>
</svg>