<?xml version="1.0" encoding="UTF-8"?>
<svg id="Layer_1" xmlns="http://www.w3.org/2000/svg" version="1.1" viewBox="0 0 1080 1080">
  <!-- Generator: Adobe Illustrator 29.6.0, SVG Export Plug-In . SVG Version: 2.1.1 Build 207)  -->
  <defs>
    <style>
      .st0 {
        fill: #76cbcb;
      }
    </style>
  </defs>
  <path class="st0" d="M672.14,323.54c177.71-15.76,300.49,175.38,206.96,328.8-78.69,129.07-263.33,140.23-356.26,20.48-104.08-134.13-19.39-334.32,149.3-349.28ZM679.88,354.48c-126.79,9.76-206.98,142-155.99,259.27,60.4,138.92,256.04,150.01,330.77,18.01,73.11-129.13-26.91-288.67-174.78-277.29Z"/>
  <path class="st0" d="M331.75,323.54c57.12-5.06,126.59,14.09,167.73,55.45,16.02,16.1,7.72,36.59-12.74,30.12-5.23-1.65-29.94-24.09-39.82-29.78-113.16-65.24-258.36,3.47-276.99,132.46-23.07,159.74,153.15,271.42,287.73,181.36,12.14-8.13,34.47-36.55,47.67-18.31,10.85,14.98-7.69,26.89-17.6,34.85-118.88,95.5-300.03,37.37-342.24-108.23-37.57-129.58,50.99-265.93,186.24-277.92Z"/>
  <path class="st0" d="M461.72,121.82h182.77c1.74,0,18.79,6.04,21.62,7.39,62.99,29.86,38.8,111.61,42.75,167.23-3.4,15.24-28.62,16.69-30.62-5.3-2.85-31.29,8.11-94.8-8.73-118.91-5.02-7.19-22.26-19.46-30.82-19.46h-176.96v51.25c0,6.89-16.33,14.5-22.68,9.12l-99.64-68.59c-2.23-4.75-2.1-9.72,0-14.52,5.23-11.96,85.58-54.92,99.64-68.59,6.35-5.38,22.68,2.24,22.68,9.12v51.25ZM430.78,170.17v-65.76l-48.36,33.82,48.36,31.93Z"/>
  <path class="st0" d="M570.03,926.38v-51.25c0-6.89,16.33-14.5,22.68-9.12l99.64,68.59c2.23,4.75,2.1,9.72,0,14.52-5.23,11.96-85.58,54.92-99.64,68.59-6.35,5.38-22.68-2.24-22.68-9.12v-51.25h-182.77c-1.74,0-18.79-6.04-21.62-7.39-62.99-29.86-38.8-111.61-42.75-167.23,3.4-15.24,28.62-16.69,30.62,5.3,2.85,31.29-8.11,94.8,8.73,118.91,5.02,7.19,22.26,19.46,30.82,19.46h176.96ZM600.97,908.97v65.76l48.36-33.82-48.36-31.93Z"/>
  <path class="st0" d="M349.02,199.56c22.67-4.94,26.6,26.3,8.79,30.18-22.67,4.94-26.6-26.3-8.79-30.18Z"/>
  <path class="st0" d="M349.02,261.45c22.67-4.94,26.6,26.3,8.79,30.18-22.67,4.94-26.6-26.3-8.79-30.18Z"/>
  <path class="st0" d="M673.93,787.51c22.67-4.94,26.6,26.3,8.79,30.18-22.67,4.94-26.6-26.3-8.79-30.18Z"/>
  <path class="st0" d="M673.93,849.4c22.67-4.94,26.6,26.3,8.79,30.18-22.67,4.94-26.6-26.3-8.79-30.18Z"/>
  <path class="st0" d="M384.28,480.97c3.94,6.36,8.09,12.98,9.03,20.57,8.79-.36,22.78-1.48,21.86,11.28-.81,11.3-13.89,9.4-21.86,9.38-2.8,17.67-17.37,33.39-34.26,38.77-1.89.6-8.28,2.39-9.83,2.39h-22.19l65.91,66.32c6.05,9.78-5.26,20.8-14.77,14.13l-84.28-84.3c-4.9-5.81-1.4-15.36,5.96-16.6,16.32-2.74,41.59,3.9,56.57-3.25,7.47-3.56,12.57-9.97,15.64-17.5h-72.37c-3.92,0-8-6.16-8.09-9.98-.1-4.06,3.86-10.62,8.09-10.62h72.37c-2.92-7.05-7.52-13.18-14.36-16.85-14.11-7.57-40.5-1.92-56.73-3.74-12.41-1.39-12.69-19.45.62-20.62l104.83.08c7.41,1.22,11.28,9.57,7.1,16-.94,1.45-4.79,4.54-6.4,4.54h-22.84Z"/>
  <g>
    <path class="st0" d="M764.04,521.34c-.64,13.69-5.33,27.34-12.59,38.86-11.29,17.94-29.03,30.65-49.41,36.36-1.25.35-6.35,1.13-6.77,2.02l.83,46.46-.22.49c-11.4,1.34-23.71-1.62-32.56-9.04-5.19-4.35-9.06-8.47-11.84-14.77-6.25-14.15-5.5-29.96-5.74-45.11-.12-7.39-.22-14.73-.22-22.12,0-1.33-.8-2.96,1.29-3.2,1.8-.21,4.72-.19,6.65-.24,10.02-.28,20.47.28,30.41-.71,16.11-1.59,28.05-13.38,31.24-28.99h48.94Z"/>
    <path class="st0" d="M764.28,510.65h-48.82l-.31-.4c-1.63-13-12.19-23.88-24.97-26.35-4.98-.96-9.86-.27-14.85-.83-8.54-.65-18.48.91-26.86.01-2.01-.22-2.84-1.26-2.98-3.2-.99-14.24.77-29.62,0-43.98-.01-3.02,3.82-3.18,6.13-3.61,14.49-2.67,32.98-2.43,47.37.72,36.33,7.96,63.63,40.38,65.28,77.63Z"/>
    <path class="st0" d="M613.84,457l22.81.12c.55.4,1.25.84,1.26,1.59-.51,7.13.64,15.1,0,22.12-.13,1.47-.83,1.98-2.26,2.25-6.72-.48-14.3.63-20.92,0-1.42-.13-2.51-.73-2.73-2.26.61-6.81-.79-14.99,0-21.64.14-1.15.73-1.89,1.84-2.2Z"/>
    <path class="st0" d="M645.57,494.08c.31-.38.99-.52,1.46-.56,5.33-.51,11.47.41,16.89.01,1.29.15,1.68.81,1.79,2.01.38,4.14.37,12.51,0,16.66-.14,1.6-.76,1.88-2.26,2.02-3.97.37-12.2.37-16.17,0-1.07-.1-2.05-.53-2.02-1.78.38-5.55-.46-11.66,0-17.13.04-.44.02-.86.32-1.23Z"/>
  </g>
</svg>