<?xml version="1.0" encoding="UTF-8"?>
<svg id="Layer_1" xmlns="http://www.w3.org/2000/svg" version="1.1" viewBox="0 0 1080 1080">
  <!-- Generator: Adobe Illustrator 29.6.0, SVG Export Plug-In . SVG Version: 2.1.1 Build 207)  -->
  <defs>
    <style>
      .st0 {
        fill: #cf9bc6;
      }
    </style>
  </defs>
  <path class="st0" d="M783.53,678.6c116.4,9.92,173.9,148.66,98.2,239.18-55.14,65.93-149.97,67-213.62,13.6l-487.74.16c-31.42-3.54-53.33-28.39-57.23-59.21l.97-564.8,196.78-214.39,401.76-.44c35.98,2.85,59.07,31.49,60.86,66.49v519.4ZM724.41,114.61h-388.42v139.18c0,24.63-39.85,68.22-64.59,68.22h-123.71l-2.73,2.73v543.98c0,14.38,18.58,40.93,33.66,40.93h472.11c-10.71-17.1-18.64-35.52-24.85-54.66l-408.09-2.71-2.9-4.38-.76-281.15c1.17-6.2,9.4-10.65,15.33-10.14h447.73c4.96-1.64,15.38,5.93,15.38,10.09v131.9c21.06-10.41,43.31-20.02,67.33-20V150.08c-1.76-16.83-19.12-33.15-35.49-35.47ZM161.33,300.18h104.61c19.24,0,48.21-32.51,48.21-51.85v-115.53l-152.82,167.38ZM561.58,580.35H235.92v69.13h325.66v-69.13ZM668.92,580.35h-83.69v69.13h83.69v-69.13ZM561.58,671.32H235.92v69.13h325.66v-69.13ZM668.92,671.32h-83.69v69.13h65.5c-.56-5.3,18.19-21.27,18.19-22.74v-46.39ZM752.2,700.93c-43.81,4.94-85.05,39.58-99.22,80.89-36.92,107.64,75.42,204.61,176.07,150.6,117.91-63.27,63.21-247.29-76.85-231.49ZM561.58,762.29H238.65l-2.73,2.73v65.5l2.73,2.73h322.93v-70.95ZM636.17,762.29h-50.94v70.95h38.21c-1.73-24.5,4.55-48.18,12.74-70.95Z"/>
  <path class="st0" d="M292.32,443.9v-39.12c0-7.81,18.68-16.75,22.86.79,2.42,10.15,2.07,53.2.79,64.71-.84,7.52-3.54,14.61-12.15,15-10.07.45-42.2-44.13-53.35-50.48v42.75c0,2.58-6.6,8.55-10.02,8.05-4.36-.02-10.98-5.44-11.77-9.92,2.06-21.5-2.91-48.41-.14-69.18.69-5.21,5.95-12.07,11.76-11.76,10.96.58,39.56,42.76,52.02,49.16Z"/>
  <path class="st0" d="M466.58,395.2c50.92-5.31,65.37,70.08,20.94,86.53-65.12,24.1-84.89-79.87-20.94-86.53ZM464.66,418.86c-18.84,3.84-19.73,36.02-2.65,41.83,37.69,12.81,41.21-49.69,2.65-41.83Z"/>
  <path class="st0" d="M670.74,416.61v12.74h35.48c7.98,0,8.28,21.83-1.82,21.83h-33.66v10.92h33.66c7.39,0,12.99,18.12,1.44,21.45-5.86,1.69-37.46,1.11-45.18.46-3.32-.28-6.67-.27-9.5-2.32-2.06-2.83-2.05-6.18-2.32-9.5-1.29-15.41-1.97-52.84-.02-67.48.81-6.06,4.12-8.82,10.2-9.81,6.79-1.11,38.71-1.16,44.99.28,13.66,3.15,7.79,21.44,2.21,21.44h-35.48Z"/>
  <path class="st0" d="M706.66,229.69c7.36,7,3.05,18.37-7.69,19.54-48.25,5.27-105.54-4.01-154.77.09-13.99-1.79-13.3-20.58,0-22.02,49.49,3.38,104.15-4.17,152.99.02,2.97.26,7.23.24,9.46,2.36Z"/>
  <path class="st0" d="M631.99,476.14c-3.86,4.71-21.28,9.44-27.46,9.4-48.52-.25-59.17-73.09-13.82-88.01,12.59-4.15,45.45-1.97,43.63,16.18-1.75,17.43-17.49,5.89-24.66,4.83-35.22-5.17-33.93,50.44,1.87,43.47,4.19-.82,6.69-5.05,11.1-5.36,10-.7,15.4,12.11,9.35,19.49Z"/>
  <path class="st0" d="M348.15,398.98c7.95,8.87,15.21,37.11,22.43,48.55l25.51-49.94c10.76-7.2,20.57,1.23,17.31,13.61-2.41,9.13-26,58.43-31.56,66.73-5.86,8.73-13.53,10.33-20.1,1.18-4.42-6.16-30.84-61.29-32.21-67.84-3.15-15.06,10.08-21.81,18.63-12.28Z"/>
  <path class="st0" d="M622.91,169.57l83.26-.34c12.11,4.72,8.96,19.71-3.7,21.68-12.17,1.9-64.03,1.9-76.19,0-11.74-1.84-14.18-16.21-3.37-21.33Z"/>
  <path class="st0" d="M202.7,395.07c9.52-1.68,12.54,5.09,13.29,13.28,1.95,21.35-1.57,45.65-.13,67.35-6.66,13.9-20.32,13.56-21.87-3.51-1.99-21.94,1.61-46.89.12-69.18.41-3.82,5.08-7.32,8.59-7.94Z"/>
  <path class="st0" d="M546.55,481.65c-6.52,6.88-17.79,4.33-19.42-6.02-1.79-11.33-1.78-59.38,0-70.72,2.11-13.44,19.49-13.47,21.6,0,2.14,13.68,1.44,52.6.19,67.28-.26,2.98-.24,7.22-2.37,9.47Z"/>
  <path class="st0" d="M865.09,859.27c-.73,1.57-1.82,2.57-3.57,2.96-7.6-.7-17.19,1.04-24.55,0-1.19-.17-2.11-.68-2.83-1.64-.79-1.06-1.4-4.77-2.37-4.62l-5.26,3.69c-.44,1.38-.05,2.83-.23,4.25-.82,6.5-7.24,11.46-13.69,11.47-2.7,6.17-9.98,9.4-16.49,8.33-3.34,5.66-8.3,8.84-15.04,8.35-.76-.05-1.56-.7-2.22-.63-1.16.13-4.32,2.27-7.14,2.52-12.43,1.08-27.47-12.71-36.89-20.14-9.85-7.77-19.47-15.71-27.98-24.96-.95,1.94-1.12,4.78-3.75,5.2l-26.62-.18c-1.43-.71-2.26-2.07-2.27-3.69v-71.62c.45-3.94,3.27-4,6.54-3.89,8.88.29,31.6,3.07,38.64,7.96,3.57,2.48,2.58,4.14,2.19,8.06h31.5c.34,0,4.57-3.25,5.53-3.79,14.57-8.34,25.15-1.19,38.66,4.34,4.05,1.66,8.13,3.29,12.29,4.67-.21-2.59.31-3.9,2.53-5.11,7.47-4.06,24.07-6.74,32.7-7.56,4.32-.41,11.94-1.17,16.05-.77,2.11.2,3.37,1.07,4.27,3v73.82ZM682.04,783.4v62.82h17.15c5.62-18.96,11.51-37.93,14.57-57.55-9.71-3.95-20.53-4.46-30.88-5.75l-.84.49ZM857.26,790.67c-12.87.27-25.79,1.99-38.03,5.97,7.94,18.74,14.91,37.93,20.88,57.41h17.15v-63.38ZM814.67,806.42c-2.98-1.03-6.02-2.02-8.95-3.16-8.04-3.14-25.68-12.04-33.26-12.23-6.42-.16-12.38,3.97-16.98,8.03s-14.76,14.85-14.07,21.53c.31,2.97,6.55,2.96,8.88,2.36,4.6-1.2,5.59-4.61,8.41-7.25,1.81-1.7,4.23-1.4,6.47-2.1,2.81-.88,6.77-3.79,9.71-2.98,1.59.44,6.29,5.44,8.01,6.9,8.88,7.52,18.34,14.45,27.02,22.19,4.33,3.86,9.07,8.07,12.31,12.86l7.4-4.53.05-.47-15.01-41.15ZM744.3,798.5h-24.23l-10.26,41.74c4.56,4.15,8.35,9.07,12.86,13.25,7.01,6.49,15.87,13.14,23.53,18.97,5.05,3.84,13.23,10.92,19.06,12.63,1.79.53,4.13,1.16,5.88.46-4.06-4.36-8.66-8.28-12.68-12.67-1.19-1.3-4.68-4.9-4.83-6.38-.34-3.38,3.65-5.49,6.52-3.51,4.65,3.22,10.61,11.4,15.27,15.67,1.22,1.12,4.64,4.43,5.82,4.98,3.08,1.45,6.64-1.15,7.69-4.07-4.78-5.34-10.37-9.98-15.19-15.27-.69-.76-3.38-3.6-3.67-4.16-1.96-3.79,2.48-7.89,5.93-5.19,5.68,5.41,10.73,11.76,16.57,16.99,2.99,2.68,4.58,4.73,8.98,3.37,1.43-.44,4.32-2.24,3.17-3.95l-22.4-22.73c-2.51-3.85,1.73-8.36,5.61-5.61,5.04,3.57,11.78,12.32,16.57,16.99,2.37,2.31,5.04,4.43,7.37,6.79,4.08,1.18,6.99-2.13,6.16-6.16s-11.9-13.63-15.4-16.66c-9.79-8.5-20.4-16.06-29.97-24.82-.48-.1-4.17,1.73-5.05,2.09-1.09.43-2.57.45-3.53.94-1.13.59-1.88,2.32-2.81,3.16-6.06,5.51-13.48,7.68-21.38,4.56-13.83-5.45-2.33-24.61,4.4-31.42Z"/>
  <path class="st0" d="M292.32,443.9v-39.12c0-7.81,18.68-16.75,22.86.79,2.42,10.15,2.07,53.2.79,64.71-.84,7.52-3.54,14.61-12.15,15-10.07.45-42.2-44.13-53.35-50.48v42.75c0,2.58-6.6,8.55-10.02,8.05-4.36-.02-10.98-5.44-11.77-9.92,2.06-21.5-2.91-48.41-.14-69.18.69-5.21,5.95-12.07,11.76-11.76,10.96.58,39.56,42.76,52.02,49.16Z"/>
  <path class="st0" d="M466.58,395.2c50.92-5.31,65.37,70.08,20.94,86.53-65.12,24.1-84.89-79.87-20.94-86.53ZM464.66,418.86c-18.84,3.84-19.73,36.02-2.65,41.83,37.69,12.81,41.21-49.69,2.65-41.83Z"/>
  <path class="st0" d="M670.74,416.61v12.74h35.48c7.98,0,8.28,21.83-1.82,21.83h-33.66v10.92h33.66c7.39,0,12.99,18.12,1.44,21.45-5.86,1.69-37.46,1.11-45.18.46-3.32-.28-6.67-.27-9.5-2.32-2.06-2.83-2.05-6.18-2.32-9.5-1.29-15.41-1.97-52.84-.02-67.48.81-6.06,4.12-8.82,10.2-9.81,6.79-1.11,38.71-1.16,44.99.28,13.66,3.15,7.79,21.44,2.21,21.44h-35.48Z"/>
  <path class="st0" d="M631.99,476.14c-3.86,4.71-21.28,9.44-27.46,9.4-48.52-.25-59.17-73.09-13.82-88.01,12.59-4.15,45.45-1.97,43.63,16.18-1.75,17.43-17.49,5.89-24.66,4.83-35.22-5.17-33.93,50.44,1.87,43.47,4.19-.82,6.69-5.05,11.1-5.36,10-.7,15.4,12.11,9.35,19.49Z"/>
  <path class="st0" d="M348.15,398.98c7.95,8.87,15.21,37.11,22.43,48.55l25.51-49.94c10.76-7.2,20.57,1.23,17.31,13.61-2.41,9.13-26,58.43-31.56,66.73-5.86,8.73-13.53,10.33-20.1,1.18-4.42-6.16-30.84-61.29-32.21-67.84-3.15-15.06,10.08-21.81,18.63-12.28Z"/>
  <path class="st0" d="M202.7,395.07c9.52-1.68,12.54,5.09,13.29,13.28,1.95,21.35-1.57,45.65-.13,67.35-6.66,13.9-20.32,13.56-21.87-3.51-1.99-21.94,1.61-46.89.12-69.18.41-3.82,5.08-7.32,8.59-7.94Z"/>
  <path class="st0" d="M546.55,481.65c-6.52,6.88-17.79,4.33-19.42-6.02-1.79-11.33-1.78-59.38,0-70.72,2.11-13.44,19.49-13.47,21.6,0,2.14,13.68,1.44,52.6.19,67.28-.26,2.98-.24,7.22-2.37,9.47Z"/>
</svg>