<?xml version="1.0" encoding="UTF-8"?>
<svg id="Layer_1" xmlns="http://www.w3.org/2000/svg" version="1.1" viewBox="0 0 1080 1080">
  <!-- Generator: Adobe Illustrator 29.6.0, SVG Export Plug-In . SVG Version: 2.1.1 Build 207)  -->
  <defs>
    <style>
      .st0 {
        fill: #d35151;
      }

      .st1 {
        fill: none;
        stroke: #d35151;
        stroke-linecap: round;
        stroke-linejoin: round;
        stroke-width: 24.32px;
      }
    </style>
  </defs>
  <path class="st0" d="M87.06,623.61c27.36-6.2,29.81,28.7,9.58,32.88-21.7,4.49-28.75-28.54-9.58-32.88Z"/>
  <path class="st0" d="M931.52,655.2c34.7-7.69,25.04,45.26-2.3,30.86-13.48-7.1-12.1-27.67,2.3-30.86Z"/>
  <path class="st0" d="M101.04,691.3c18.95-18.91,41.68,15.36,21.48,26.73-17.86,10.05-35.98-12.25-21.48-26.73Z"/>
  <path class="st0" d="M906.26,326.65c24.68-5.38,28.96,28.64,9.57,32.86-24.68,5.38-28.96-28.64-9.57-32.86Z"/>
  <path class="st0" d="M137.62,299.28c24.68-5.38,28.96,28.64,9.57,32.86-24.68,5.38-28.96-28.64-9.57-32.86Z"/>
  <path class="st0" d="M723.03,907.9c27.36-6.2,29.81,28.7,9.58,32.88-21.7,4.49-28.75-28.54-9.58-32.88Z"/>
  <path class="st0" d="M335.57,922.61c24.68-5.38,28.96,28.64,9.57,32.86-24.68,5.38-28.96-28.64-9.57-32.86Z"/>
  <path class="st0" d="M908.38,716.19c23.96-4.96,29.97,35.43,1.65,33.45-20.07-1.41-19.37-29.78-1.65-33.45Z"/>
  <path class="st0" d="M143.5,746.32c22.49.59,20.53,34.49-.04,34.48-22.67-.02-23.89-35.11.04-34.48Z"/>
  <path class="st0" d="M661.96,935.28c27.17-6.15,29.51,28.76,9.58,32.89-21.7,4.49-28.75-28.54-9.58-32.89Z"/>
  <path class="st0" d="M678.73,138.16c-12.61,13.78-37.79-1.91-26.8-21.55,11.42-20.42,44.14,2.61,26.8,21.55Z"/>
  <path class="st0" d="M739.88,165.6c-13.77,13.77-37.3-3.11-26.88-21.63,11.63-20.67,45.35,3.16,26.88,21.63Z"/>
  <path class="st0" d="M274.48,156.11c34.6-7.84,25.11,45.33-2.29,30.86-13-6.87-11.5-27.73,2.29-30.86Z"/>
  <path class="st0" d="M79.91,427.98c12.61-13.78,37.79,1.91,26.8,21.55s-44.14-2.61-26.8-21.55Z"/>
  <path class="st0" d="M269.35,919.5c-13.77-13.77,3.11-37.3,21.63-26.88,20.67,11.63-3.16,45.35-21.63,26.88Z"/>
  <path class="st0" d="M335.59,122.3c22.66-4.08,28.04,32.33,5.03,34.4-22.16,2-25.24-30.76-5.03-34.4Z"/>
  <path class="st0" d="M615.64,956.48c13.77,13.77-3.11,37.3-21.63,26.88-20.67-11.63,3.16-45.35,21.63-26.88Z"/>
  <path class="st0" d="M878.45,773.7c22.04.8,20.66,36.14-1.99,34.77-19.95-1.21-21.79-35.63,1.99-34.77Z"/>
  <path class="st0" d="M589.52,121.3c-14.89-13.61,3.06-37.75,21.59-26.84,19.56,11.52-3.12,43.73-21.59,26.84Z"/>
  <path class="st0" d="M948.3,392.2c14.95,13.7-4.3,39.22-21.5,26.73-19.88-14.43,4.86-41.97,21.5-26.73Z"/>
  <path class="st0" d="M963.18,483.64c-9.65,9.17-30.01.42-28.53-14.76,2.17-22.18,35.97-19.52,34.42,1.67-.11,1.53-4.99,12.23-5.89,13.09Z"/>
  <path class="st0" d="M105.98,360.38c31.18-9.28,28.97,37,4.33,32.89-18.15-3.03-18.89-28.55-4.33-32.89Z"/>
  <path class="st0" d="M396.59,945.81c26.56-7.93,33.16,29.01,9.56,32.89-19.09,3.14-26.66-27.78-9.56-32.89Z"/>
  <path class="st0" d="M870.42,269.81c26.08-7.89,31.31,29.02,9.59,32.93-21.57,3.88-26.45-27.83-9.59-32.93Z"/>
  <path class="st0" d="M946.25,589.93c4.04-.92,9.48-1.25,13.26.59,1.62.79,9.78,13.6,10.14,15.27,1.41,6.54-7.88,15.78-13.81,17.01-21.93,4.55-27.64-28.76-9.58-32.87Z"/>
  <path class="st0" d="M413.41,129.72c-15.89,14.57-39.68-10.34-23.61-24.64,17.85-15.89,38.92,10.61,23.61,24.64Z"/>
  <path class="st0" d="M770.59,201.39c-16.23-19.41,20.63-47.11,24.31-12.52.69,6.46-9.19,12.8-13.79,17.12-2.71.66-8.91-2.68-10.52-4.6Z"/>
  <path class="st0" d="M790.8,903.02c-9.23,2-18.97-.5-22.04-10.21-3.14-9.94,5.53-25.54,14.98-19.17,13.48,9.09,11.78,15.4,7.06,29.38Z"/>
  <path class="st0" d="M468.81,958.01l-.34,22.81-11.09,4.49c-10.26-10.44-3.51-27.78,11.44-27.3Z"/>
  <path class="st1" d="M948.34,539.57c26.7.55,53.41,1.1,80.11,1.65l-36.4-36.4,36.4,36.4c-10.93,11.04-21.86,22.07-32.79,33.11"/>
  <path class="st1" d="M132.23,539.57c-26.7-.55-53.41-1.1-80.11-1.65l36.4,36.4-36.4-36.4c10.93-11.04,21.86-22.07,32.79-33.11"/>
  <path class="st1" d="M517.89,947.62c-.55,26.7-1.1,53.41-1.65,80.11l36.4-36.4-36.4,36.4c-11.04-10.93-22.07-21.86-33.11-32.79"/>
  <path class="st1" d="M517.89,131.52c.55-26.7,1.1-53.41,1.65-80.11l-36.4,36.4,36.4-36.4c11.04,10.93,22.07,21.86,33.11,32.79"/>
  <path class="st1" d="M828.82,828.11c18.49,19.27,36.99,38.54,55.48,57.81v-51.48s0,51.48,0,51.48c-15.53.08-31.06.15-46.6.23"/>
  <path class="st1" d="M251.75,251.04c-18.49-19.27-36.99-38.54-55.48-57.81v51.48s0-51.48,0-51.48c15.53-.08,31.06-.15,46.6-.23"/>
  <path class="st1" d="M828.82,251.04c19.27-18.49,38.54-36.99,57.81-55.48h-51.48s51.48,0,51.48,0c.08,15.53.15,31.06.23,46.6"/>
  <path class="st1" d="M251.75,828.11c-19.27,18.49-38.54,36.99-57.81,55.48h51.48s-51.48,0-51.48,0c-.08-15.53-.15-31.06-.23-46.6"/>
  <rect class="st1" x="230.47" y="398.46" width="604.81" height="279.8" rx="24.32" ry="24.32"/>
  <path class="st0" d="M561.47,476.61c3.65,5.89,7.5,12.02,8.37,19.05,8.14-.33,21.1-1.37,20.25,10.45-.75,10.47-12.86,8.71-20.25,8.68-2.6,16.37-16.09,30.93-31.74,35.91-1.75.56-7.67,2.22-9.11,2.22h-20.56l61.05,61.43c5.61,9.06-4.87,19.26-13.68,13.09l-78.07-78.08c-4.54-5.38-1.3-14.22,5.52-15.37,15.12-2.54,38.52,3.61,52.4-3.01,6.92-3.3,11.64-9.24,14.49-16.21h-67.03c-3.63,0-7.41-5.71-7.5-9.24-.09-3.76,3.58-9.84,7.5-9.84h67.03c-2.7-6.53-6.96-12.21-13.3-15.61-13.07-7.02-37.51-1.78-52.55-3.47-11.5-1.29-11.76-18.01.57-19.1l97.1.08c6.87,1.13,10.44,8.87,6.58,14.82-.87,1.35-4.44,4.2-5.93,4.2h-21.15Z"/>
</svg>